G04 EAGLE Gerber RS-274X export*
G75*
%MOMM*%
%FSLAX34Y34*%
%LPD*%
%AMOC8*
5,1,8,0,0,1.08239X$1,22.5*%
G01*
%ADD10R,1.320800X1.320800*%
%ADD11C,1.320800*%
%ADD12P,1.814519X8X112.500000*%
%ADD13C,0.609600*%
%ADD14C,0.203200*%
%ADD15C,0.304800*%

G36*
X234487Y5223D02*
X234487Y5223D01*
X234589Y5231D01*
X234617Y5243D01*
X234648Y5248D01*
X234740Y5292D01*
X234836Y5330D01*
X234859Y5350D01*
X234887Y5363D01*
X234962Y5433D01*
X235042Y5498D01*
X235059Y5524D01*
X235081Y5545D01*
X235132Y5634D01*
X235189Y5719D01*
X235195Y5743D01*
X235213Y5775D01*
X235271Y6035D01*
X235268Y6073D01*
X235273Y6096D01*
X235273Y20041D01*
X236315Y21083D01*
X250997Y21083D01*
X252039Y20041D01*
X252039Y6096D01*
X252054Y5994D01*
X252062Y5892D01*
X252074Y5864D01*
X252079Y5833D01*
X252123Y5741D01*
X252161Y5645D01*
X252181Y5622D01*
X252194Y5594D01*
X252264Y5519D01*
X252329Y5439D01*
X252355Y5422D01*
X252376Y5400D01*
X252465Y5349D01*
X252550Y5292D01*
X252574Y5286D01*
X252606Y5268D01*
X252866Y5210D01*
X252904Y5213D01*
X252927Y5208D01*
X257469Y5208D01*
X257520Y5215D01*
X257571Y5214D01*
X257651Y5235D01*
X257732Y5248D01*
X257778Y5270D01*
X257828Y5284D01*
X257897Y5328D01*
X257971Y5363D01*
X258009Y5398D01*
X258052Y5426D01*
X258105Y5489D01*
X258165Y5545D01*
X258191Y5589D01*
X258224Y5629D01*
X258257Y5704D01*
X258297Y5775D01*
X258308Y5826D01*
X258329Y5873D01*
X258337Y5955D01*
X258355Y6035D01*
X258351Y6086D01*
X258356Y6138D01*
X258340Y6218D01*
X258333Y6300D01*
X258314Y6348D01*
X258304Y6398D01*
X258276Y6442D01*
X258234Y6547D01*
X258121Y6686D01*
X258097Y6724D01*
X256869Y7952D01*
X255593Y11033D01*
X255593Y14367D01*
X256869Y17448D01*
X259228Y19807D01*
X262309Y21083D01*
X265643Y21083D01*
X268724Y19807D01*
X271083Y17448D01*
X272359Y14367D01*
X272359Y11033D01*
X271083Y7952D01*
X269855Y6724D01*
X269824Y6683D01*
X269787Y6647D01*
X269746Y6576D01*
X269697Y6510D01*
X269680Y6461D01*
X269655Y6417D01*
X269637Y6337D01*
X269610Y6259D01*
X269608Y6207D01*
X269597Y6157D01*
X269604Y6075D01*
X269601Y5993D01*
X269614Y5944D01*
X269619Y5892D01*
X269649Y5816D01*
X269671Y5737D01*
X269698Y5693D01*
X269718Y5645D01*
X269769Y5582D01*
X269813Y5513D01*
X269853Y5479D01*
X269885Y5439D01*
X269954Y5394D01*
X270016Y5341D01*
X270063Y5320D01*
X270106Y5292D01*
X270157Y5280D01*
X270260Y5236D01*
X270439Y5218D01*
X270483Y5208D01*
X295600Y5208D01*
X295702Y5223D01*
X295804Y5231D01*
X295832Y5243D01*
X295863Y5248D01*
X295955Y5292D01*
X296051Y5330D01*
X296074Y5350D01*
X296102Y5363D01*
X296177Y5433D01*
X296257Y5498D01*
X296274Y5524D01*
X296296Y5545D01*
X296347Y5634D01*
X296404Y5719D01*
X296410Y5743D01*
X296428Y5775D01*
X296486Y6035D01*
X296483Y6073D01*
X296488Y6096D01*
X296488Y134366D01*
X296473Y134468D01*
X296465Y134570D01*
X296453Y134598D01*
X296448Y134629D01*
X296404Y134721D01*
X296366Y134817D01*
X296346Y134840D01*
X296333Y134868D01*
X296263Y134943D01*
X296198Y135023D01*
X296172Y135040D01*
X296151Y135062D01*
X296062Y135113D01*
X295977Y135170D01*
X295953Y135176D01*
X295921Y135194D01*
X295661Y135252D01*
X295623Y135249D01*
X295600Y135254D01*
X177678Y135254D01*
X177627Y135247D01*
X177575Y135248D01*
X177496Y135227D01*
X177415Y135214D01*
X177368Y135192D01*
X177318Y135178D01*
X177249Y135134D01*
X177175Y135099D01*
X177138Y135064D01*
X177094Y135036D01*
X177041Y134973D01*
X176981Y134917D01*
X176956Y134873D01*
X176922Y134833D01*
X176890Y134758D01*
X176849Y134687D01*
X176838Y134636D01*
X176818Y134589D01*
X176809Y134507D01*
X176791Y134427D01*
X176796Y134376D01*
X176790Y134324D01*
X176806Y134244D01*
X176813Y134162D01*
X176832Y134114D01*
X176842Y134064D01*
X176870Y134020D01*
X176912Y133915D01*
X177025Y133776D01*
X177049Y133738D01*
X181103Y129685D01*
X181103Y121267D01*
X175151Y115315D01*
X166733Y115315D01*
X160781Y121267D01*
X160781Y129685D01*
X164835Y133738D01*
X164865Y133779D01*
X164903Y133815D01*
X164944Y133886D01*
X164992Y133952D01*
X165009Y134001D01*
X165035Y134045D01*
X165053Y134125D01*
X165080Y134203D01*
X165081Y134255D01*
X165093Y134305D01*
X165086Y134387D01*
X165089Y134469D01*
X165075Y134518D01*
X165071Y134570D01*
X165040Y134646D01*
X165019Y134725D01*
X164991Y134769D01*
X164972Y134817D01*
X164920Y134880D01*
X164876Y134949D01*
X164837Y134983D01*
X164804Y135023D01*
X164736Y135068D01*
X164674Y135121D01*
X164626Y135142D01*
X164583Y135170D01*
X164533Y135182D01*
X164429Y135226D01*
X164251Y135244D01*
X164206Y135254D01*
X60000Y135254D01*
X59898Y135239D01*
X59796Y135231D01*
X59768Y135219D01*
X59737Y135214D01*
X59645Y135170D01*
X59549Y135132D01*
X59526Y135112D01*
X59498Y135099D01*
X59423Y135029D01*
X59343Y134964D01*
X59326Y134938D01*
X59304Y134917D01*
X59253Y134828D01*
X59196Y134743D01*
X59190Y134719D01*
X59172Y134687D01*
X59114Y134427D01*
X59117Y134389D01*
X59112Y134366D01*
X59112Y6096D01*
X59127Y5994D01*
X59135Y5892D01*
X59147Y5864D01*
X59152Y5833D01*
X59196Y5741D01*
X59234Y5645D01*
X59254Y5622D01*
X59267Y5594D01*
X59337Y5519D01*
X59402Y5439D01*
X59428Y5422D01*
X59449Y5400D01*
X59538Y5349D01*
X59623Y5292D01*
X59647Y5286D01*
X59679Y5268D01*
X59939Y5210D01*
X59977Y5213D01*
X60000Y5208D01*
X234385Y5208D01*
X234487Y5223D01*
G37*
%LPC*%
G36*
X133383Y26161D02*
X133383Y26161D01*
X130555Y28989D01*
X130555Y32987D01*
X131819Y34251D01*
X131832Y34268D01*
X131848Y34281D01*
X131910Y34375D01*
X131977Y34465D01*
X131984Y34485D01*
X131995Y34502D01*
X132005Y34547D01*
X132064Y34716D01*
X132068Y34829D01*
X132079Y34879D01*
X132079Y50334D01*
X132076Y50355D01*
X132078Y50376D01*
X132056Y50486D01*
X132039Y50597D01*
X132030Y50616D01*
X132026Y50636D01*
X132002Y50675D01*
X131924Y50836D01*
X131847Y50919D01*
X131819Y50962D01*
X131226Y51555D01*
X131209Y51568D01*
X131196Y51584D01*
X131102Y51646D01*
X131012Y51713D01*
X130992Y51720D01*
X130975Y51731D01*
X130930Y51741D01*
X130761Y51800D01*
X130648Y51804D01*
X130598Y51815D01*
X100232Y51815D01*
X85760Y66287D01*
X85743Y66300D01*
X85730Y66316D01*
X85636Y66378D01*
X85546Y66445D01*
X85526Y66452D01*
X85509Y66463D01*
X85464Y66473D01*
X85295Y66532D01*
X85182Y66536D01*
X85132Y66547D01*
X83345Y66547D01*
X80517Y69375D01*
X80517Y73373D01*
X83345Y76201D01*
X87343Y76201D01*
X90171Y73373D01*
X90171Y71586D01*
X90174Y71565D01*
X90172Y71544D01*
X90194Y71434D01*
X90211Y71323D01*
X90220Y71304D01*
X90224Y71284D01*
X90248Y71245D01*
X90326Y71084D01*
X90403Y71001D01*
X90431Y70958D01*
X102708Y58681D01*
X102725Y58668D01*
X102738Y58652D01*
X102832Y58590D01*
X102922Y58523D01*
X102942Y58516D01*
X102959Y58505D01*
X103004Y58495D01*
X103173Y58436D01*
X103286Y58432D01*
X103336Y58421D01*
X120061Y58421D01*
X120112Y58428D01*
X120163Y58427D01*
X120243Y58448D01*
X120324Y58461D01*
X120370Y58483D01*
X120420Y58497D01*
X120489Y58541D01*
X120563Y58576D01*
X120601Y58612D01*
X120644Y58639D01*
X120697Y58702D01*
X120757Y58758D01*
X120783Y58802D01*
X120816Y58842D01*
X120849Y58917D01*
X120889Y58988D01*
X120900Y59039D01*
X120921Y59086D01*
X120929Y59168D01*
X120947Y59248D01*
X120943Y59299D01*
X120948Y59351D01*
X120932Y59431D01*
X120925Y59513D01*
X120906Y59561D01*
X120896Y59611D01*
X120868Y59655D01*
X120826Y59760D01*
X120713Y59899D01*
X120689Y59937D01*
X120649Y59977D01*
X120649Y63975D01*
X122421Y65747D01*
X122434Y65764D01*
X122450Y65777D01*
X122512Y65871D01*
X122579Y65961D01*
X122586Y65981D01*
X122597Y65998D01*
X122607Y66043D01*
X122666Y66212D01*
X122670Y66325D01*
X122681Y66375D01*
X122681Y66792D01*
X122678Y66813D01*
X122680Y66834D01*
X122658Y66944D01*
X122641Y67055D01*
X122632Y67074D01*
X122628Y67095D01*
X122604Y67133D01*
X122526Y67295D01*
X122449Y67377D01*
X122421Y67421D01*
X116955Y72887D01*
X116938Y72900D01*
X116924Y72916D01*
X116831Y72978D01*
X116741Y73045D01*
X116721Y73052D01*
X116703Y73063D01*
X116659Y73073D01*
X116490Y73132D01*
X116377Y73136D01*
X116326Y73147D01*
X115401Y73147D01*
X115350Y73140D01*
X115299Y73141D01*
X115219Y73120D01*
X115138Y73107D01*
X115092Y73085D01*
X115042Y73071D01*
X114973Y73027D01*
X114899Y72992D01*
X114861Y72956D01*
X114818Y72929D01*
X114765Y72866D01*
X114705Y72810D01*
X114679Y72765D01*
X114646Y72726D01*
X114613Y72651D01*
X114573Y72580D01*
X114562Y72529D01*
X114541Y72482D01*
X114533Y72400D01*
X114515Y72320D01*
X114519Y72269D01*
X114514Y72217D01*
X114530Y72137D01*
X114537Y72055D01*
X114556Y72007D01*
X114566Y71957D01*
X114594Y71913D01*
X114636Y71808D01*
X114749Y71669D01*
X114773Y71631D01*
X115063Y71341D01*
X115063Y67343D01*
X112235Y64515D01*
X108237Y64515D01*
X105409Y67343D01*
X105409Y69848D01*
X105406Y69869D01*
X105408Y69890D01*
X105386Y70000D01*
X105369Y70111D01*
X105360Y70130D01*
X105356Y70151D01*
X105332Y70189D01*
X105254Y70351D01*
X105177Y70433D01*
X105149Y70477D01*
X95249Y80376D01*
X95249Y83271D01*
X95246Y83291D01*
X95248Y83312D01*
X95226Y83423D01*
X95209Y83534D01*
X95200Y83552D01*
X95196Y83573D01*
X95172Y83612D01*
X95094Y83773D01*
X95017Y83855D01*
X94989Y83899D01*
X93217Y85671D01*
X93217Y89669D01*
X96045Y92497D01*
X100043Y92497D01*
X102871Y89669D01*
X102871Y85671D01*
X101099Y83899D01*
X101086Y83882D01*
X101070Y83869D01*
X101008Y83775D01*
X100941Y83685D01*
X100934Y83665D01*
X100923Y83648D01*
X100913Y83603D01*
X100854Y83434D01*
X100850Y83321D01*
X100839Y83271D01*
X100839Y83060D01*
X100842Y83039D01*
X100840Y83018D01*
X100862Y82908D01*
X100879Y82797D01*
X100888Y82778D01*
X100892Y82757D01*
X100916Y82719D01*
X100994Y82557D01*
X101071Y82475D01*
X101099Y82431D01*
X109101Y74429D01*
X109118Y74416D01*
X109132Y74400D01*
X109225Y74338D01*
X109315Y74271D01*
X109335Y74264D01*
X109353Y74253D01*
X109397Y74243D01*
X109566Y74184D01*
X109679Y74180D01*
X109730Y74169D01*
X110655Y74169D01*
X110706Y74176D01*
X110757Y74175D01*
X110837Y74196D01*
X110918Y74209D01*
X110964Y74231D01*
X111014Y74245D01*
X111083Y74289D01*
X111157Y74324D01*
X111195Y74360D01*
X111238Y74387D01*
X111291Y74450D01*
X111351Y74506D01*
X111377Y74551D01*
X111410Y74590D01*
X111443Y74665D01*
X111483Y74736D01*
X111494Y74787D01*
X111515Y74834D01*
X111523Y74916D01*
X111541Y74996D01*
X111537Y75047D01*
X111542Y75099D01*
X111526Y75179D01*
X111519Y75261D01*
X111500Y75309D01*
X111490Y75359D01*
X111462Y75403D01*
X111420Y75508D01*
X111307Y75647D01*
X111283Y75685D01*
X110993Y75975D01*
X110993Y79973D01*
X113821Y82801D01*
X117819Y82801D01*
X120647Y79973D01*
X120647Y77468D01*
X120650Y77447D01*
X120648Y77426D01*
X120670Y77316D01*
X120687Y77205D01*
X120696Y77186D01*
X120700Y77165D01*
X120724Y77127D01*
X120802Y76965D01*
X120879Y76883D01*
X120907Y76839D01*
X128271Y69476D01*
X128271Y66375D01*
X128274Y66355D01*
X128272Y66334D01*
X128294Y66223D01*
X128311Y66112D01*
X128320Y66094D01*
X128324Y66073D01*
X128348Y66034D01*
X128426Y65873D01*
X128503Y65791D01*
X128531Y65747D01*
X130303Y63975D01*
X130303Y59902D01*
X130312Y59842D01*
X130311Y59780D01*
X130332Y59711D01*
X130343Y59639D01*
X130369Y59584D01*
X130386Y59526D01*
X130427Y59465D01*
X130458Y59400D01*
X130500Y59355D01*
X130534Y59304D01*
X130590Y59259D01*
X130640Y59205D01*
X130693Y59175D01*
X130740Y59137D01*
X130807Y59110D01*
X130870Y59074D01*
X130930Y59060D01*
X130987Y59037D01*
X131059Y59032D01*
X131130Y59016D01*
X131191Y59021D01*
X131252Y59016D01*
X131323Y59031D01*
X131395Y59037D01*
X131451Y59060D01*
X131511Y59073D01*
X131574Y59109D01*
X131642Y59136D01*
X131689Y59175D01*
X131742Y59205D01*
X131772Y59243D01*
X131848Y59304D01*
X131965Y59479D01*
X131985Y59505D01*
X131989Y59516D01*
X131995Y59525D01*
X132003Y59557D01*
X132067Y59758D01*
X132069Y59855D01*
X132079Y59902D01*
X132079Y89450D01*
X132076Y89471D01*
X132078Y89492D01*
X132056Y89602D01*
X132039Y89713D01*
X132030Y89732D01*
X132026Y89752D01*
X132002Y89791D01*
X131924Y89952D01*
X131847Y90035D01*
X131819Y90078D01*
X126146Y95751D01*
X126129Y95764D01*
X126116Y95780D01*
X126022Y95842D01*
X125932Y95909D01*
X125912Y95916D01*
X125895Y95927D01*
X125850Y95937D01*
X125681Y95996D01*
X125568Y96000D01*
X125518Y96011D01*
X123731Y96011D01*
X120903Y98839D01*
X120903Y102837D01*
X123731Y105665D01*
X127729Y105665D01*
X130557Y102837D01*
X130557Y101050D01*
X130560Y101029D01*
X130558Y101008D01*
X130580Y100898D01*
X130597Y100787D01*
X130606Y100768D01*
X130610Y100748D01*
X130634Y100709D01*
X130712Y100548D01*
X130789Y100465D01*
X130817Y100422D01*
X138685Y92554D01*
X138685Y34879D01*
X138688Y34859D01*
X138686Y34838D01*
X138708Y34727D01*
X138725Y34616D01*
X138734Y34598D01*
X138738Y34577D01*
X138762Y34538D01*
X138840Y34377D01*
X138917Y34295D01*
X138945Y34251D01*
X140209Y32987D01*
X140209Y28989D01*
X137381Y26161D01*
X133383Y26161D01*
G37*
%LPD*%
D10*
X243656Y12700D03*
D11*
X263976Y12700D03*
D12*
X170942Y125476D03*
D13*
X206756Y96012D03*
X207010Y84074D03*
X95250Y72644D03*
X144018Y101092D03*
X134620Y124460D03*
X107188Y123952D03*
X162814Y12446D03*
X188214Y122936D03*
X185420Y34290D03*
X110236Y69342D03*
D14*
X98044Y81534D01*
X98044Y87670D01*
D13*
X98044Y87670D03*
X125476Y61976D03*
D14*
X125476Y68318D01*
X115820Y77974D01*
D13*
X115820Y77974D03*
X135382Y30988D03*
D15*
X135382Y52070D01*
X135382Y58166D01*
X135382Y91186D01*
X125730Y100838D01*
D13*
X125730Y100838D03*
X85344Y71374D03*
D15*
X101600Y55118D01*
X132334Y55118D02*
X135382Y58166D01*
X132334Y55118D02*
X101600Y55118D01*
X132334Y55118D02*
X135382Y52070D01*
M02*
