G04 EAGLE Gerber RS-274X export*
G75*
%MOMM*%
%FSLAX34Y34*%
%LPD*%
%AMOC8*
5,1,8,0,0,1.08239X$1,22.5*%
G01*
%ADD10C,0.025400*%
%ADD11C,0.000000*%


D10*
X0Y0D02*
X357200Y0D01*
X357200Y140462D01*
X0Y140462D01*
X0Y0D01*
D11*
X10400Y70231D02*
X10405Y70599D01*
X10418Y70967D01*
X10441Y71334D01*
X10472Y71701D01*
X10513Y72067D01*
X10562Y72432D01*
X10621Y72795D01*
X10688Y73157D01*
X10764Y73518D01*
X10850Y73876D01*
X10943Y74232D01*
X11046Y74585D01*
X11157Y74936D01*
X11277Y75284D01*
X11405Y75629D01*
X11542Y75971D01*
X11687Y76310D01*
X11840Y76644D01*
X12002Y76975D01*
X12171Y77302D01*
X12349Y77624D01*
X12534Y77943D01*
X12727Y78256D01*
X12928Y78565D01*
X13136Y78868D01*
X13352Y79166D01*
X13575Y79459D01*
X13805Y79747D01*
X14042Y80029D01*
X14286Y80304D01*
X14536Y80574D01*
X14793Y80838D01*
X15057Y81095D01*
X15327Y81345D01*
X15602Y81589D01*
X15884Y81826D01*
X16172Y82056D01*
X16465Y82279D01*
X16763Y82495D01*
X17066Y82703D01*
X17375Y82904D01*
X17688Y83097D01*
X18007Y83282D01*
X18329Y83460D01*
X18656Y83629D01*
X18987Y83791D01*
X19321Y83944D01*
X19660Y84089D01*
X20002Y84226D01*
X20347Y84354D01*
X20695Y84474D01*
X21046Y84585D01*
X21399Y84688D01*
X21755Y84781D01*
X22113Y84867D01*
X22474Y84943D01*
X22836Y85010D01*
X23199Y85069D01*
X23564Y85118D01*
X23930Y85159D01*
X24297Y85190D01*
X24664Y85213D01*
X25032Y85226D01*
X25400Y85231D01*
X25768Y85226D01*
X26136Y85213D01*
X26503Y85190D01*
X26870Y85159D01*
X27236Y85118D01*
X27601Y85069D01*
X27964Y85010D01*
X28326Y84943D01*
X28687Y84867D01*
X29045Y84781D01*
X29401Y84688D01*
X29754Y84585D01*
X30105Y84474D01*
X30453Y84354D01*
X30798Y84226D01*
X31140Y84089D01*
X31479Y83944D01*
X31813Y83791D01*
X32144Y83629D01*
X32471Y83460D01*
X32793Y83282D01*
X33112Y83097D01*
X33425Y82904D01*
X33734Y82703D01*
X34037Y82495D01*
X34335Y82279D01*
X34628Y82056D01*
X34916Y81826D01*
X35198Y81589D01*
X35473Y81345D01*
X35743Y81095D01*
X36007Y80838D01*
X36264Y80574D01*
X36514Y80304D01*
X36758Y80029D01*
X36995Y79747D01*
X37225Y79459D01*
X37448Y79166D01*
X37664Y78868D01*
X37872Y78565D01*
X38073Y78256D01*
X38266Y77943D01*
X38451Y77624D01*
X38629Y77302D01*
X38798Y76975D01*
X38960Y76644D01*
X39113Y76310D01*
X39258Y75971D01*
X39395Y75629D01*
X39523Y75284D01*
X39643Y74936D01*
X39754Y74585D01*
X39857Y74232D01*
X39950Y73876D01*
X40036Y73518D01*
X40112Y73157D01*
X40179Y72795D01*
X40238Y72432D01*
X40287Y72067D01*
X40328Y71701D01*
X40359Y71334D01*
X40382Y70967D01*
X40395Y70599D01*
X40400Y70231D01*
X40395Y69863D01*
X40382Y69495D01*
X40359Y69128D01*
X40328Y68761D01*
X40287Y68395D01*
X40238Y68030D01*
X40179Y67667D01*
X40112Y67305D01*
X40036Y66944D01*
X39950Y66586D01*
X39857Y66230D01*
X39754Y65877D01*
X39643Y65526D01*
X39523Y65178D01*
X39395Y64833D01*
X39258Y64491D01*
X39113Y64152D01*
X38960Y63818D01*
X38798Y63487D01*
X38629Y63160D01*
X38451Y62838D01*
X38266Y62519D01*
X38073Y62206D01*
X37872Y61897D01*
X37664Y61594D01*
X37448Y61296D01*
X37225Y61003D01*
X36995Y60715D01*
X36758Y60433D01*
X36514Y60158D01*
X36264Y59888D01*
X36007Y59624D01*
X35743Y59367D01*
X35473Y59117D01*
X35198Y58873D01*
X34916Y58636D01*
X34628Y58406D01*
X34335Y58183D01*
X34037Y57967D01*
X33734Y57759D01*
X33425Y57558D01*
X33112Y57365D01*
X32793Y57180D01*
X32471Y57002D01*
X32144Y56833D01*
X31813Y56671D01*
X31479Y56518D01*
X31140Y56373D01*
X30798Y56236D01*
X30453Y56108D01*
X30105Y55988D01*
X29754Y55877D01*
X29401Y55774D01*
X29045Y55681D01*
X28687Y55595D01*
X28326Y55519D01*
X27964Y55452D01*
X27601Y55393D01*
X27236Y55344D01*
X26870Y55303D01*
X26503Y55272D01*
X26136Y55249D01*
X25768Y55236D01*
X25400Y55231D01*
X25032Y55236D01*
X24664Y55249D01*
X24297Y55272D01*
X23930Y55303D01*
X23564Y55344D01*
X23199Y55393D01*
X22836Y55452D01*
X22474Y55519D01*
X22113Y55595D01*
X21755Y55681D01*
X21399Y55774D01*
X21046Y55877D01*
X20695Y55988D01*
X20347Y56108D01*
X20002Y56236D01*
X19660Y56373D01*
X19321Y56518D01*
X18987Y56671D01*
X18656Y56833D01*
X18329Y57002D01*
X18007Y57180D01*
X17688Y57365D01*
X17375Y57558D01*
X17066Y57759D01*
X16763Y57967D01*
X16465Y58183D01*
X16172Y58406D01*
X15884Y58636D01*
X15602Y58873D01*
X15327Y59117D01*
X15057Y59367D01*
X14793Y59624D01*
X14536Y59888D01*
X14286Y60158D01*
X14042Y60433D01*
X13805Y60715D01*
X13575Y61003D01*
X13352Y61296D01*
X13136Y61594D01*
X12928Y61897D01*
X12727Y62206D01*
X12534Y62519D01*
X12349Y62838D01*
X12171Y63160D01*
X12002Y63487D01*
X11840Y63818D01*
X11687Y64152D01*
X11542Y64491D01*
X11405Y64833D01*
X11277Y65178D01*
X11157Y65526D01*
X11046Y65877D01*
X10943Y66230D01*
X10850Y66586D01*
X10764Y66944D01*
X10688Y67305D01*
X10621Y67667D01*
X10562Y68030D01*
X10513Y68395D01*
X10472Y68761D01*
X10441Y69128D01*
X10418Y69495D01*
X10405Y69863D01*
X10400Y70231D01*
X315200Y70231D02*
X315205Y70599D01*
X315218Y70967D01*
X315241Y71334D01*
X315272Y71701D01*
X315313Y72067D01*
X315362Y72432D01*
X315421Y72795D01*
X315488Y73157D01*
X315564Y73518D01*
X315650Y73876D01*
X315743Y74232D01*
X315846Y74585D01*
X315957Y74936D01*
X316077Y75284D01*
X316205Y75629D01*
X316342Y75971D01*
X316487Y76310D01*
X316640Y76644D01*
X316802Y76975D01*
X316971Y77302D01*
X317149Y77624D01*
X317334Y77943D01*
X317527Y78256D01*
X317728Y78565D01*
X317936Y78868D01*
X318152Y79166D01*
X318375Y79459D01*
X318605Y79747D01*
X318842Y80029D01*
X319086Y80304D01*
X319336Y80574D01*
X319593Y80838D01*
X319857Y81095D01*
X320127Y81345D01*
X320402Y81589D01*
X320684Y81826D01*
X320972Y82056D01*
X321265Y82279D01*
X321563Y82495D01*
X321866Y82703D01*
X322175Y82904D01*
X322488Y83097D01*
X322807Y83282D01*
X323129Y83460D01*
X323456Y83629D01*
X323787Y83791D01*
X324121Y83944D01*
X324460Y84089D01*
X324802Y84226D01*
X325147Y84354D01*
X325495Y84474D01*
X325846Y84585D01*
X326199Y84688D01*
X326555Y84781D01*
X326913Y84867D01*
X327274Y84943D01*
X327636Y85010D01*
X327999Y85069D01*
X328364Y85118D01*
X328730Y85159D01*
X329097Y85190D01*
X329464Y85213D01*
X329832Y85226D01*
X330200Y85231D01*
X330568Y85226D01*
X330936Y85213D01*
X331303Y85190D01*
X331670Y85159D01*
X332036Y85118D01*
X332401Y85069D01*
X332764Y85010D01*
X333126Y84943D01*
X333487Y84867D01*
X333845Y84781D01*
X334201Y84688D01*
X334554Y84585D01*
X334905Y84474D01*
X335253Y84354D01*
X335598Y84226D01*
X335940Y84089D01*
X336279Y83944D01*
X336613Y83791D01*
X336944Y83629D01*
X337271Y83460D01*
X337593Y83282D01*
X337912Y83097D01*
X338225Y82904D01*
X338534Y82703D01*
X338837Y82495D01*
X339135Y82279D01*
X339428Y82056D01*
X339716Y81826D01*
X339998Y81589D01*
X340273Y81345D01*
X340543Y81095D01*
X340807Y80838D01*
X341064Y80574D01*
X341314Y80304D01*
X341558Y80029D01*
X341795Y79747D01*
X342025Y79459D01*
X342248Y79166D01*
X342464Y78868D01*
X342672Y78565D01*
X342873Y78256D01*
X343066Y77943D01*
X343251Y77624D01*
X343429Y77302D01*
X343598Y76975D01*
X343760Y76644D01*
X343913Y76310D01*
X344058Y75971D01*
X344195Y75629D01*
X344323Y75284D01*
X344443Y74936D01*
X344554Y74585D01*
X344657Y74232D01*
X344750Y73876D01*
X344836Y73518D01*
X344912Y73157D01*
X344979Y72795D01*
X345038Y72432D01*
X345087Y72067D01*
X345128Y71701D01*
X345159Y71334D01*
X345182Y70967D01*
X345195Y70599D01*
X345200Y70231D01*
X345195Y69863D01*
X345182Y69495D01*
X345159Y69128D01*
X345128Y68761D01*
X345087Y68395D01*
X345038Y68030D01*
X344979Y67667D01*
X344912Y67305D01*
X344836Y66944D01*
X344750Y66586D01*
X344657Y66230D01*
X344554Y65877D01*
X344443Y65526D01*
X344323Y65178D01*
X344195Y64833D01*
X344058Y64491D01*
X343913Y64152D01*
X343760Y63818D01*
X343598Y63487D01*
X343429Y63160D01*
X343251Y62838D01*
X343066Y62519D01*
X342873Y62206D01*
X342672Y61897D01*
X342464Y61594D01*
X342248Y61296D01*
X342025Y61003D01*
X341795Y60715D01*
X341558Y60433D01*
X341314Y60158D01*
X341064Y59888D01*
X340807Y59624D01*
X340543Y59367D01*
X340273Y59117D01*
X339998Y58873D01*
X339716Y58636D01*
X339428Y58406D01*
X339135Y58183D01*
X338837Y57967D01*
X338534Y57759D01*
X338225Y57558D01*
X337912Y57365D01*
X337593Y57180D01*
X337271Y57002D01*
X336944Y56833D01*
X336613Y56671D01*
X336279Y56518D01*
X335940Y56373D01*
X335598Y56236D01*
X335253Y56108D01*
X334905Y55988D01*
X334554Y55877D01*
X334201Y55774D01*
X333845Y55681D01*
X333487Y55595D01*
X333126Y55519D01*
X332764Y55452D01*
X332401Y55393D01*
X332036Y55344D01*
X331670Y55303D01*
X331303Y55272D01*
X330936Y55249D01*
X330568Y55236D01*
X330200Y55231D01*
X329832Y55236D01*
X329464Y55249D01*
X329097Y55272D01*
X328730Y55303D01*
X328364Y55344D01*
X327999Y55393D01*
X327636Y55452D01*
X327274Y55519D01*
X326913Y55595D01*
X326555Y55681D01*
X326199Y55774D01*
X325846Y55877D01*
X325495Y55988D01*
X325147Y56108D01*
X324802Y56236D01*
X324460Y56373D01*
X324121Y56518D01*
X323787Y56671D01*
X323456Y56833D01*
X323129Y57002D01*
X322807Y57180D01*
X322488Y57365D01*
X322175Y57558D01*
X321866Y57759D01*
X321563Y57967D01*
X321265Y58183D01*
X320972Y58406D01*
X320684Y58636D01*
X320402Y58873D01*
X320127Y59117D01*
X319857Y59367D01*
X319593Y59624D01*
X319336Y59888D01*
X319086Y60158D01*
X318842Y60433D01*
X318605Y60715D01*
X318375Y61003D01*
X318152Y61296D01*
X317936Y61594D01*
X317728Y61897D01*
X317527Y62206D01*
X317334Y62519D01*
X317149Y62838D01*
X316971Y63160D01*
X316802Y63487D01*
X316640Y63818D01*
X316487Y64152D01*
X316342Y64491D01*
X316205Y64833D01*
X316077Y65178D01*
X315957Y65526D01*
X315846Y65877D01*
X315743Y66230D01*
X315650Y66586D01*
X315564Y66944D01*
X315488Y67305D01*
X315421Y67667D01*
X315362Y68030D01*
X315313Y68395D01*
X315272Y68761D01*
X315241Y69128D01*
X315218Y69495D01*
X315205Y69863D01*
X315200Y70231D01*
X48000Y70231D02*
X48002Y70340D01*
X48008Y70449D01*
X48018Y70557D01*
X48032Y70665D01*
X48049Y70773D01*
X48071Y70880D01*
X48096Y70986D01*
X48126Y71090D01*
X48159Y71194D01*
X48196Y71297D01*
X48236Y71398D01*
X48280Y71497D01*
X48328Y71595D01*
X48380Y71692D01*
X48434Y71786D01*
X48492Y71878D01*
X48554Y71968D01*
X48619Y72055D01*
X48686Y72141D01*
X48757Y72224D01*
X48831Y72304D01*
X48908Y72381D01*
X48987Y72456D01*
X49069Y72527D01*
X49154Y72596D01*
X49241Y72661D01*
X49330Y72724D01*
X49422Y72782D01*
X49516Y72838D01*
X49611Y72890D01*
X49709Y72939D01*
X49808Y72984D01*
X49909Y73026D01*
X50011Y73063D01*
X50114Y73097D01*
X50219Y73128D01*
X50325Y73154D01*
X50431Y73177D01*
X50539Y73195D01*
X50647Y73210D01*
X50755Y73221D01*
X50864Y73228D01*
X50973Y73231D01*
X51082Y73230D01*
X51191Y73225D01*
X51299Y73216D01*
X51407Y73203D01*
X51515Y73186D01*
X51622Y73166D01*
X51728Y73141D01*
X51833Y73113D01*
X51937Y73081D01*
X52040Y73045D01*
X52142Y73005D01*
X52242Y72962D01*
X52340Y72915D01*
X52437Y72865D01*
X52531Y72811D01*
X52624Y72753D01*
X52715Y72693D01*
X52803Y72629D01*
X52889Y72562D01*
X52972Y72492D01*
X53053Y72419D01*
X53131Y72343D01*
X53206Y72264D01*
X53279Y72182D01*
X53348Y72098D01*
X53414Y72012D01*
X53477Y71923D01*
X53537Y71832D01*
X53594Y71739D01*
X53647Y71644D01*
X53696Y71547D01*
X53742Y71448D01*
X53784Y71348D01*
X53823Y71246D01*
X53858Y71142D01*
X53889Y71038D01*
X53917Y70933D01*
X53940Y70826D01*
X53960Y70719D01*
X53976Y70611D01*
X53988Y70503D01*
X53996Y70394D01*
X54000Y70285D01*
X54000Y70177D01*
X53996Y70068D01*
X53988Y69959D01*
X53976Y69851D01*
X53960Y69743D01*
X53940Y69636D01*
X53917Y69529D01*
X53889Y69424D01*
X53858Y69320D01*
X53823Y69216D01*
X53784Y69114D01*
X53742Y69014D01*
X53696Y68915D01*
X53647Y68818D01*
X53594Y68723D01*
X53537Y68630D01*
X53477Y68539D01*
X53414Y68450D01*
X53348Y68364D01*
X53279Y68280D01*
X53206Y68198D01*
X53131Y68119D01*
X53053Y68043D01*
X52972Y67970D01*
X52889Y67900D01*
X52803Y67833D01*
X52715Y67769D01*
X52624Y67709D01*
X52531Y67651D01*
X52437Y67597D01*
X52340Y67547D01*
X52242Y67500D01*
X52142Y67457D01*
X52040Y67417D01*
X51937Y67381D01*
X51833Y67349D01*
X51728Y67321D01*
X51622Y67296D01*
X51515Y67276D01*
X51407Y67259D01*
X51299Y67246D01*
X51191Y67237D01*
X51082Y67232D01*
X50973Y67231D01*
X50864Y67234D01*
X50755Y67241D01*
X50647Y67252D01*
X50539Y67267D01*
X50431Y67285D01*
X50325Y67308D01*
X50219Y67334D01*
X50114Y67365D01*
X50011Y67399D01*
X49909Y67436D01*
X49808Y67478D01*
X49709Y67523D01*
X49611Y67572D01*
X49516Y67624D01*
X49422Y67680D01*
X49330Y67738D01*
X49241Y67801D01*
X49154Y67866D01*
X49069Y67935D01*
X48987Y68006D01*
X48908Y68081D01*
X48831Y68158D01*
X48757Y68238D01*
X48686Y68321D01*
X48619Y68407D01*
X48554Y68494D01*
X48492Y68584D01*
X48434Y68676D01*
X48380Y68770D01*
X48328Y68867D01*
X48280Y68965D01*
X48236Y69064D01*
X48196Y69165D01*
X48159Y69268D01*
X48126Y69372D01*
X48096Y69476D01*
X48071Y69582D01*
X48049Y69689D01*
X48032Y69797D01*
X48018Y69905D01*
X48008Y70013D01*
X48002Y70122D01*
X48000Y70231D01*
X48000Y80231D02*
X48002Y80340D01*
X48008Y80449D01*
X48018Y80557D01*
X48032Y80665D01*
X48049Y80773D01*
X48071Y80880D01*
X48096Y80986D01*
X48126Y81090D01*
X48159Y81194D01*
X48196Y81297D01*
X48236Y81398D01*
X48280Y81497D01*
X48328Y81595D01*
X48380Y81692D01*
X48434Y81786D01*
X48492Y81878D01*
X48554Y81968D01*
X48619Y82055D01*
X48686Y82141D01*
X48757Y82224D01*
X48831Y82304D01*
X48908Y82381D01*
X48987Y82456D01*
X49069Y82527D01*
X49154Y82596D01*
X49241Y82661D01*
X49330Y82724D01*
X49422Y82782D01*
X49516Y82838D01*
X49611Y82890D01*
X49709Y82939D01*
X49808Y82984D01*
X49909Y83026D01*
X50011Y83063D01*
X50114Y83097D01*
X50219Y83128D01*
X50325Y83154D01*
X50431Y83177D01*
X50539Y83195D01*
X50647Y83210D01*
X50755Y83221D01*
X50864Y83228D01*
X50973Y83231D01*
X51082Y83230D01*
X51191Y83225D01*
X51299Y83216D01*
X51407Y83203D01*
X51515Y83186D01*
X51622Y83166D01*
X51728Y83141D01*
X51833Y83113D01*
X51937Y83081D01*
X52040Y83045D01*
X52142Y83005D01*
X52242Y82962D01*
X52340Y82915D01*
X52437Y82865D01*
X52531Y82811D01*
X52624Y82753D01*
X52715Y82693D01*
X52803Y82629D01*
X52889Y82562D01*
X52972Y82492D01*
X53053Y82419D01*
X53131Y82343D01*
X53206Y82264D01*
X53279Y82182D01*
X53348Y82098D01*
X53414Y82012D01*
X53477Y81923D01*
X53537Y81832D01*
X53594Y81739D01*
X53647Y81644D01*
X53696Y81547D01*
X53742Y81448D01*
X53784Y81348D01*
X53823Y81246D01*
X53858Y81142D01*
X53889Y81038D01*
X53917Y80933D01*
X53940Y80826D01*
X53960Y80719D01*
X53976Y80611D01*
X53988Y80503D01*
X53996Y80394D01*
X54000Y80285D01*
X54000Y80177D01*
X53996Y80068D01*
X53988Y79959D01*
X53976Y79851D01*
X53960Y79743D01*
X53940Y79636D01*
X53917Y79529D01*
X53889Y79424D01*
X53858Y79320D01*
X53823Y79216D01*
X53784Y79114D01*
X53742Y79014D01*
X53696Y78915D01*
X53647Y78818D01*
X53594Y78723D01*
X53537Y78630D01*
X53477Y78539D01*
X53414Y78450D01*
X53348Y78364D01*
X53279Y78280D01*
X53206Y78198D01*
X53131Y78119D01*
X53053Y78043D01*
X52972Y77970D01*
X52889Y77900D01*
X52803Y77833D01*
X52715Y77769D01*
X52624Y77709D01*
X52531Y77651D01*
X52437Y77597D01*
X52340Y77547D01*
X52242Y77500D01*
X52142Y77457D01*
X52040Y77417D01*
X51937Y77381D01*
X51833Y77349D01*
X51728Y77321D01*
X51622Y77296D01*
X51515Y77276D01*
X51407Y77259D01*
X51299Y77246D01*
X51191Y77237D01*
X51082Y77232D01*
X50973Y77231D01*
X50864Y77234D01*
X50755Y77241D01*
X50647Y77252D01*
X50539Y77267D01*
X50431Y77285D01*
X50325Y77308D01*
X50219Y77334D01*
X50114Y77365D01*
X50011Y77399D01*
X49909Y77436D01*
X49808Y77478D01*
X49709Y77523D01*
X49611Y77572D01*
X49516Y77624D01*
X49422Y77680D01*
X49330Y77738D01*
X49241Y77801D01*
X49154Y77866D01*
X49069Y77935D01*
X48987Y78006D01*
X48908Y78081D01*
X48831Y78158D01*
X48757Y78238D01*
X48686Y78321D01*
X48619Y78407D01*
X48554Y78494D01*
X48492Y78584D01*
X48434Y78676D01*
X48380Y78770D01*
X48328Y78867D01*
X48280Y78965D01*
X48236Y79064D01*
X48196Y79165D01*
X48159Y79268D01*
X48126Y79372D01*
X48096Y79476D01*
X48071Y79582D01*
X48049Y79689D01*
X48032Y79797D01*
X48018Y79905D01*
X48008Y80013D01*
X48002Y80122D01*
X48000Y80231D01*
X48000Y90231D02*
X48002Y90340D01*
X48008Y90449D01*
X48018Y90557D01*
X48032Y90665D01*
X48049Y90773D01*
X48071Y90880D01*
X48096Y90986D01*
X48126Y91090D01*
X48159Y91194D01*
X48196Y91297D01*
X48236Y91398D01*
X48280Y91497D01*
X48328Y91595D01*
X48380Y91692D01*
X48434Y91786D01*
X48492Y91878D01*
X48554Y91968D01*
X48619Y92055D01*
X48686Y92141D01*
X48757Y92224D01*
X48831Y92304D01*
X48908Y92381D01*
X48987Y92456D01*
X49069Y92527D01*
X49154Y92596D01*
X49241Y92661D01*
X49330Y92724D01*
X49422Y92782D01*
X49516Y92838D01*
X49611Y92890D01*
X49709Y92939D01*
X49808Y92984D01*
X49909Y93026D01*
X50011Y93063D01*
X50114Y93097D01*
X50219Y93128D01*
X50325Y93154D01*
X50431Y93177D01*
X50539Y93195D01*
X50647Y93210D01*
X50755Y93221D01*
X50864Y93228D01*
X50973Y93231D01*
X51082Y93230D01*
X51191Y93225D01*
X51299Y93216D01*
X51407Y93203D01*
X51515Y93186D01*
X51622Y93166D01*
X51728Y93141D01*
X51833Y93113D01*
X51937Y93081D01*
X52040Y93045D01*
X52142Y93005D01*
X52242Y92962D01*
X52340Y92915D01*
X52437Y92865D01*
X52531Y92811D01*
X52624Y92753D01*
X52715Y92693D01*
X52803Y92629D01*
X52889Y92562D01*
X52972Y92492D01*
X53053Y92419D01*
X53131Y92343D01*
X53206Y92264D01*
X53279Y92182D01*
X53348Y92098D01*
X53414Y92012D01*
X53477Y91923D01*
X53537Y91832D01*
X53594Y91739D01*
X53647Y91644D01*
X53696Y91547D01*
X53742Y91448D01*
X53784Y91348D01*
X53823Y91246D01*
X53858Y91142D01*
X53889Y91038D01*
X53917Y90933D01*
X53940Y90826D01*
X53960Y90719D01*
X53976Y90611D01*
X53988Y90503D01*
X53996Y90394D01*
X54000Y90285D01*
X54000Y90177D01*
X53996Y90068D01*
X53988Y89959D01*
X53976Y89851D01*
X53960Y89743D01*
X53940Y89636D01*
X53917Y89529D01*
X53889Y89424D01*
X53858Y89320D01*
X53823Y89216D01*
X53784Y89114D01*
X53742Y89014D01*
X53696Y88915D01*
X53647Y88818D01*
X53594Y88723D01*
X53537Y88630D01*
X53477Y88539D01*
X53414Y88450D01*
X53348Y88364D01*
X53279Y88280D01*
X53206Y88198D01*
X53131Y88119D01*
X53053Y88043D01*
X52972Y87970D01*
X52889Y87900D01*
X52803Y87833D01*
X52715Y87769D01*
X52624Y87709D01*
X52531Y87651D01*
X52437Y87597D01*
X52340Y87547D01*
X52242Y87500D01*
X52142Y87457D01*
X52040Y87417D01*
X51937Y87381D01*
X51833Y87349D01*
X51728Y87321D01*
X51622Y87296D01*
X51515Y87276D01*
X51407Y87259D01*
X51299Y87246D01*
X51191Y87237D01*
X51082Y87232D01*
X50973Y87231D01*
X50864Y87234D01*
X50755Y87241D01*
X50647Y87252D01*
X50539Y87267D01*
X50431Y87285D01*
X50325Y87308D01*
X50219Y87334D01*
X50114Y87365D01*
X50011Y87399D01*
X49909Y87436D01*
X49808Y87478D01*
X49709Y87523D01*
X49611Y87572D01*
X49516Y87624D01*
X49422Y87680D01*
X49330Y87738D01*
X49241Y87801D01*
X49154Y87866D01*
X49069Y87935D01*
X48987Y88006D01*
X48908Y88081D01*
X48831Y88158D01*
X48757Y88238D01*
X48686Y88321D01*
X48619Y88407D01*
X48554Y88494D01*
X48492Y88584D01*
X48434Y88676D01*
X48380Y88770D01*
X48328Y88867D01*
X48280Y88965D01*
X48236Y89064D01*
X48196Y89165D01*
X48159Y89268D01*
X48126Y89372D01*
X48096Y89476D01*
X48071Y89582D01*
X48049Y89689D01*
X48032Y89797D01*
X48018Y89905D01*
X48008Y90013D01*
X48002Y90122D01*
X48000Y90231D01*
X48000Y100231D02*
X48002Y100340D01*
X48008Y100449D01*
X48018Y100557D01*
X48032Y100665D01*
X48049Y100773D01*
X48071Y100880D01*
X48096Y100986D01*
X48126Y101090D01*
X48159Y101194D01*
X48196Y101297D01*
X48236Y101398D01*
X48280Y101497D01*
X48328Y101595D01*
X48380Y101692D01*
X48434Y101786D01*
X48492Y101878D01*
X48554Y101968D01*
X48619Y102055D01*
X48686Y102141D01*
X48757Y102224D01*
X48831Y102304D01*
X48908Y102381D01*
X48987Y102456D01*
X49069Y102527D01*
X49154Y102596D01*
X49241Y102661D01*
X49330Y102724D01*
X49422Y102782D01*
X49516Y102838D01*
X49611Y102890D01*
X49709Y102939D01*
X49808Y102984D01*
X49909Y103026D01*
X50011Y103063D01*
X50114Y103097D01*
X50219Y103128D01*
X50325Y103154D01*
X50431Y103177D01*
X50539Y103195D01*
X50647Y103210D01*
X50755Y103221D01*
X50864Y103228D01*
X50973Y103231D01*
X51082Y103230D01*
X51191Y103225D01*
X51299Y103216D01*
X51407Y103203D01*
X51515Y103186D01*
X51622Y103166D01*
X51728Y103141D01*
X51833Y103113D01*
X51937Y103081D01*
X52040Y103045D01*
X52142Y103005D01*
X52242Y102962D01*
X52340Y102915D01*
X52437Y102865D01*
X52531Y102811D01*
X52624Y102753D01*
X52715Y102693D01*
X52803Y102629D01*
X52889Y102562D01*
X52972Y102492D01*
X53053Y102419D01*
X53131Y102343D01*
X53206Y102264D01*
X53279Y102182D01*
X53348Y102098D01*
X53414Y102012D01*
X53477Y101923D01*
X53537Y101832D01*
X53594Y101739D01*
X53647Y101644D01*
X53696Y101547D01*
X53742Y101448D01*
X53784Y101348D01*
X53823Y101246D01*
X53858Y101142D01*
X53889Y101038D01*
X53917Y100933D01*
X53940Y100826D01*
X53960Y100719D01*
X53976Y100611D01*
X53988Y100503D01*
X53996Y100394D01*
X54000Y100285D01*
X54000Y100177D01*
X53996Y100068D01*
X53988Y99959D01*
X53976Y99851D01*
X53960Y99743D01*
X53940Y99636D01*
X53917Y99529D01*
X53889Y99424D01*
X53858Y99320D01*
X53823Y99216D01*
X53784Y99114D01*
X53742Y99014D01*
X53696Y98915D01*
X53647Y98818D01*
X53594Y98723D01*
X53537Y98630D01*
X53477Y98539D01*
X53414Y98450D01*
X53348Y98364D01*
X53279Y98280D01*
X53206Y98198D01*
X53131Y98119D01*
X53053Y98043D01*
X52972Y97970D01*
X52889Y97900D01*
X52803Y97833D01*
X52715Y97769D01*
X52624Y97709D01*
X52531Y97651D01*
X52437Y97597D01*
X52340Y97547D01*
X52242Y97500D01*
X52142Y97457D01*
X52040Y97417D01*
X51937Y97381D01*
X51833Y97349D01*
X51728Y97321D01*
X51622Y97296D01*
X51515Y97276D01*
X51407Y97259D01*
X51299Y97246D01*
X51191Y97237D01*
X51082Y97232D01*
X50973Y97231D01*
X50864Y97234D01*
X50755Y97241D01*
X50647Y97252D01*
X50539Y97267D01*
X50431Y97285D01*
X50325Y97308D01*
X50219Y97334D01*
X50114Y97365D01*
X50011Y97399D01*
X49909Y97436D01*
X49808Y97478D01*
X49709Y97523D01*
X49611Y97572D01*
X49516Y97624D01*
X49422Y97680D01*
X49330Y97738D01*
X49241Y97801D01*
X49154Y97866D01*
X49069Y97935D01*
X48987Y98006D01*
X48908Y98081D01*
X48831Y98158D01*
X48757Y98238D01*
X48686Y98321D01*
X48619Y98407D01*
X48554Y98494D01*
X48492Y98584D01*
X48434Y98676D01*
X48380Y98770D01*
X48328Y98867D01*
X48280Y98965D01*
X48236Y99064D01*
X48196Y99165D01*
X48159Y99268D01*
X48126Y99372D01*
X48096Y99476D01*
X48071Y99582D01*
X48049Y99689D01*
X48032Y99797D01*
X48018Y99905D01*
X48008Y100013D01*
X48002Y100122D01*
X48000Y100231D01*
X48000Y110231D02*
X48002Y110340D01*
X48008Y110449D01*
X48018Y110557D01*
X48032Y110665D01*
X48049Y110773D01*
X48071Y110880D01*
X48096Y110986D01*
X48126Y111090D01*
X48159Y111194D01*
X48196Y111297D01*
X48236Y111398D01*
X48280Y111497D01*
X48328Y111595D01*
X48380Y111692D01*
X48434Y111786D01*
X48492Y111878D01*
X48554Y111968D01*
X48619Y112055D01*
X48686Y112141D01*
X48757Y112224D01*
X48831Y112304D01*
X48908Y112381D01*
X48987Y112456D01*
X49069Y112527D01*
X49154Y112596D01*
X49241Y112661D01*
X49330Y112724D01*
X49422Y112782D01*
X49516Y112838D01*
X49611Y112890D01*
X49709Y112939D01*
X49808Y112984D01*
X49909Y113026D01*
X50011Y113063D01*
X50114Y113097D01*
X50219Y113128D01*
X50325Y113154D01*
X50431Y113177D01*
X50539Y113195D01*
X50647Y113210D01*
X50755Y113221D01*
X50864Y113228D01*
X50973Y113231D01*
X51082Y113230D01*
X51191Y113225D01*
X51299Y113216D01*
X51407Y113203D01*
X51515Y113186D01*
X51622Y113166D01*
X51728Y113141D01*
X51833Y113113D01*
X51937Y113081D01*
X52040Y113045D01*
X52142Y113005D01*
X52242Y112962D01*
X52340Y112915D01*
X52437Y112865D01*
X52531Y112811D01*
X52624Y112753D01*
X52715Y112693D01*
X52803Y112629D01*
X52889Y112562D01*
X52972Y112492D01*
X53053Y112419D01*
X53131Y112343D01*
X53206Y112264D01*
X53279Y112182D01*
X53348Y112098D01*
X53414Y112012D01*
X53477Y111923D01*
X53537Y111832D01*
X53594Y111739D01*
X53647Y111644D01*
X53696Y111547D01*
X53742Y111448D01*
X53784Y111348D01*
X53823Y111246D01*
X53858Y111142D01*
X53889Y111038D01*
X53917Y110933D01*
X53940Y110826D01*
X53960Y110719D01*
X53976Y110611D01*
X53988Y110503D01*
X53996Y110394D01*
X54000Y110285D01*
X54000Y110177D01*
X53996Y110068D01*
X53988Y109959D01*
X53976Y109851D01*
X53960Y109743D01*
X53940Y109636D01*
X53917Y109529D01*
X53889Y109424D01*
X53858Y109320D01*
X53823Y109216D01*
X53784Y109114D01*
X53742Y109014D01*
X53696Y108915D01*
X53647Y108818D01*
X53594Y108723D01*
X53537Y108630D01*
X53477Y108539D01*
X53414Y108450D01*
X53348Y108364D01*
X53279Y108280D01*
X53206Y108198D01*
X53131Y108119D01*
X53053Y108043D01*
X52972Y107970D01*
X52889Y107900D01*
X52803Y107833D01*
X52715Y107769D01*
X52624Y107709D01*
X52531Y107651D01*
X52437Y107597D01*
X52340Y107547D01*
X52242Y107500D01*
X52142Y107457D01*
X52040Y107417D01*
X51937Y107381D01*
X51833Y107349D01*
X51728Y107321D01*
X51622Y107296D01*
X51515Y107276D01*
X51407Y107259D01*
X51299Y107246D01*
X51191Y107237D01*
X51082Y107232D01*
X50973Y107231D01*
X50864Y107234D01*
X50755Y107241D01*
X50647Y107252D01*
X50539Y107267D01*
X50431Y107285D01*
X50325Y107308D01*
X50219Y107334D01*
X50114Y107365D01*
X50011Y107399D01*
X49909Y107436D01*
X49808Y107478D01*
X49709Y107523D01*
X49611Y107572D01*
X49516Y107624D01*
X49422Y107680D01*
X49330Y107738D01*
X49241Y107801D01*
X49154Y107866D01*
X49069Y107935D01*
X48987Y108006D01*
X48908Y108081D01*
X48831Y108158D01*
X48757Y108238D01*
X48686Y108321D01*
X48619Y108407D01*
X48554Y108494D01*
X48492Y108584D01*
X48434Y108676D01*
X48380Y108770D01*
X48328Y108867D01*
X48280Y108965D01*
X48236Y109064D01*
X48196Y109165D01*
X48159Y109268D01*
X48126Y109372D01*
X48096Y109476D01*
X48071Y109582D01*
X48049Y109689D01*
X48032Y109797D01*
X48018Y109905D01*
X48008Y110013D01*
X48002Y110122D01*
X48000Y110231D01*
X48000Y120231D02*
X48002Y120340D01*
X48008Y120449D01*
X48018Y120557D01*
X48032Y120665D01*
X48049Y120773D01*
X48071Y120880D01*
X48096Y120986D01*
X48126Y121090D01*
X48159Y121194D01*
X48196Y121297D01*
X48236Y121398D01*
X48280Y121497D01*
X48328Y121595D01*
X48380Y121692D01*
X48434Y121786D01*
X48492Y121878D01*
X48554Y121968D01*
X48619Y122055D01*
X48686Y122141D01*
X48757Y122224D01*
X48831Y122304D01*
X48908Y122381D01*
X48987Y122456D01*
X49069Y122527D01*
X49154Y122596D01*
X49241Y122661D01*
X49330Y122724D01*
X49422Y122782D01*
X49516Y122838D01*
X49611Y122890D01*
X49709Y122939D01*
X49808Y122984D01*
X49909Y123026D01*
X50011Y123063D01*
X50114Y123097D01*
X50219Y123128D01*
X50325Y123154D01*
X50431Y123177D01*
X50539Y123195D01*
X50647Y123210D01*
X50755Y123221D01*
X50864Y123228D01*
X50973Y123231D01*
X51082Y123230D01*
X51191Y123225D01*
X51299Y123216D01*
X51407Y123203D01*
X51515Y123186D01*
X51622Y123166D01*
X51728Y123141D01*
X51833Y123113D01*
X51937Y123081D01*
X52040Y123045D01*
X52142Y123005D01*
X52242Y122962D01*
X52340Y122915D01*
X52437Y122865D01*
X52531Y122811D01*
X52624Y122753D01*
X52715Y122693D01*
X52803Y122629D01*
X52889Y122562D01*
X52972Y122492D01*
X53053Y122419D01*
X53131Y122343D01*
X53206Y122264D01*
X53279Y122182D01*
X53348Y122098D01*
X53414Y122012D01*
X53477Y121923D01*
X53537Y121832D01*
X53594Y121739D01*
X53647Y121644D01*
X53696Y121547D01*
X53742Y121448D01*
X53784Y121348D01*
X53823Y121246D01*
X53858Y121142D01*
X53889Y121038D01*
X53917Y120933D01*
X53940Y120826D01*
X53960Y120719D01*
X53976Y120611D01*
X53988Y120503D01*
X53996Y120394D01*
X54000Y120285D01*
X54000Y120177D01*
X53996Y120068D01*
X53988Y119959D01*
X53976Y119851D01*
X53960Y119743D01*
X53940Y119636D01*
X53917Y119529D01*
X53889Y119424D01*
X53858Y119320D01*
X53823Y119216D01*
X53784Y119114D01*
X53742Y119014D01*
X53696Y118915D01*
X53647Y118818D01*
X53594Y118723D01*
X53537Y118630D01*
X53477Y118539D01*
X53414Y118450D01*
X53348Y118364D01*
X53279Y118280D01*
X53206Y118198D01*
X53131Y118119D01*
X53053Y118043D01*
X52972Y117970D01*
X52889Y117900D01*
X52803Y117833D01*
X52715Y117769D01*
X52624Y117709D01*
X52531Y117651D01*
X52437Y117597D01*
X52340Y117547D01*
X52242Y117500D01*
X52142Y117457D01*
X52040Y117417D01*
X51937Y117381D01*
X51833Y117349D01*
X51728Y117321D01*
X51622Y117296D01*
X51515Y117276D01*
X51407Y117259D01*
X51299Y117246D01*
X51191Y117237D01*
X51082Y117232D01*
X50973Y117231D01*
X50864Y117234D01*
X50755Y117241D01*
X50647Y117252D01*
X50539Y117267D01*
X50431Y117285D01*
X50325Y117308D01*
X50219Y117334D01*
X50114Y117365D01*
X50011Y117399D01*
X49909Y117436D01*
X49808Y117478D01*
X49709Y117523D01*
X49611Y117572D01*
X49516Y117624D01*
X49422Y117680D01*
X49330Y117738D01*
X49241Y117801D01*
X49154Y117866D01*
X49069Y117935D01*
X48987Y118006D01*
X48908Y118081D01*
X48831Y118158D01*
X48757Y118238D01*
X48686Y118321D01*
X48619Y118407D01*
X48554Y118494D01*
X48492Y118584D01*
X48434Y118676D01*
X48380Y118770D01*
X48328Y118867D01*
X48280Y118965D01*
X48236Y119064D01*
X48196Y119165D01*
X48159Y119268D01*
X48126Y119372D01*
X48096Y119476D01*
X48071Y119582D01*
X48049Y119689D01*
X48032Y119797D01*
X48018Y119905D01*
X48008Y120013D01*
X48002Y120122D01*
X48000Y120231D01*
X48000Y130231D02*
X48002Y130340D01*
X48008Y130449D01*
X48018Y130557D01*
X48032Y130665D01*
X48049Y130773D01*
X48071Y130880D01*
X48096Y130986D01*
X48126Y131090D01*
X48159Y131194D01*
X48196Y131297D01*
X48236Y131398D01*
X48280Y131497D01*
X48328Y131595D01*
X48380Y131692D01*
X48434Y131786D01*
X48492Y131878D01*
X48554Y131968D01*
X48619Y132055D01*
X48686Y132141D01*
X48757Y132224D01*
X48831Y132304D01*
X48908Y132381D01*
X48987Y132456D01*
X49069Y132527D01*
X49154Y132596D01*
X49241Y132661D01*
X49330Y132724D01*
X49422Y132782D01*
X49516Y132838D01*
X49611Y132890D01*
X49709Y132939D01*
X49808Y132984D01*
X49909Y133026D01*
X50011Y133063D01*
X50114Y133097D01*
X50219Y133128D01*
X50325Y133154D01*
X50431Y133177D01*
X50539Y133195D01*
X50647Y133210D01*
X50755Y133221D01*
X50864Y133228D01*
X50973Y133231D01*
X51082Y133230D01*
X51191Y133225D01*
X51299Y133216D01*
X51407Y133203D01*
X51515Y133186D01*
X51622Y133166D01*
X51728Y133141D01*
X51833Y133113D01*
X51937Y133081D01*
X52040Y133045D01*
X52142Y133005D01*
X52242Y132962D01*
X52340Y132915D01*
X52437Y132865D01*
X52531Y132811D01*
X52624Y132753D01*
X52715Y132693D01*
X52803Y132629D01*
X52889Y132562D01*
X52972Y132492D01*
X53053Y132419D01*
X53131Y132343D01*
X53206Y132264D01*
X53279Y132182D01*
X53348Y132098D01*
X53414Y132012D01*
X53477Y131923D01*
X53537Y131832D01*
X53594Y131739D01*
X53647Y131644D01*
X53696Y131547D01*
X53742Y131448D01*
X53784Y131348D01*
X53823Y131246D01*
X53858Y131142D01*
X53889Y131038D01*
X53917Y130933D01*
X53940Y130826D01*
X53960Y130719D01*
X53976Y130611D01*
X53988Y130503D01*
X53996Y130394D01*
X54000Y130285D01*
X54000Y130177D01*
X53996Y130068D01*
X53988Y129959D01*
X53976Y129851D01*
X53960Y129743D01*
X53940Y129636D01*
X53917Y129529D01*
X53889Y129424D01*
X53858Y129320D01*
X53823Y129216D01*
X53784Y129114D01*
X53742Y129014D01*
X53696Y128915D01*
X53647Y128818D01*
X53594Y128723D01*
X53537Y128630D01*
X53477Y128539D01*
X53414Y128450D01*
X53348Y128364D01*
X53279Y128280D01*
X53206Y128198D01*
X53131Y128119D01*
X53053Y128043D01*
X52972Y127970D01*
X52889Y127900D01*
X52803Y127833D01*
X52715Y127769D01*
X52624Y127709D01*
X52531Y127651D01*
X52437Y127597D01*
X52340Y127547D01*
X52242Y127500D01*
X52142Y127457D01*
X52040Y127417D01*
X51937Y127381D01*
X51833Y127349D01*
X51728Y127321D01*
X51622Y127296D01*
X51515Y127276D01*
X51407Y127259D01*
X51299Y127246D01*
X51191Y127237D01*
X51082Y127232D01*
X50973Y127231D01*
X50864Y127234D01*
X50755Y127241D01*
X50647Y127252D01*
X50539Y127267D01*
X50431Y127285D01*
X50325Y127308D01*
X50219Y127334D01*
X50114Y127365D01*
X50011Y127399D01*
X49909Y127436D01*
X49808Y127478D01*
X49709Y127523D01*
X49611Y127572D01*
X49516Y127624D01*
X49422Y127680D01*
X49330Y127738D01*
X49241Y127801D01*
X49154Y127866D01*
X49069Y127935D01*
X48987Y128006D01*
X48908Y128081D01*
X48831Y128158D01*
X48757Y128238D01*
X48686Y128321D01*
X48619Y128407D01*
X48554Y128494D01*
X48492Y128584D01*
X48434Y128676D01*
X48380Y128770D01*
X48328Y128867D01*
X48280Y128965D01*
X48236Y129064D01*
X48196Y129165D01*
X48159Y129268D01*
X48126Y129372D01*
X48096Y129476D01*
X48071Y129582D01*
X48049Y129689D01*
X48032Y129797D01*
X48018Y129905D01*
X48008Y130013D01*
X48002Y130122D01*
X48000Y130231D01*
X48000Y140462D02*
X48002Y140571D01*
X48008Y140680D01*
X48018Y140788D01*
X48032Y140896D01*
X48049Y141004D01*
X48071Y141111D01*
X48096Y141217D01*
X48126Y141321D01*
X48159Y141425D01*
X48196Y141528D01*
X48236Y141629D01*
X48280Y141728D01*
X48328Y141826D01*
X48380Y141923D01*
X48434Y142017D01*
X48492Y142109D01*
X48554Y142199D01*
X48619Y142286D01*
X48686Y142372D01*
X48757Y142455D01*
X48831Y142535D01*
X48908Y142612D01*
X48987Y142687D01*
X49069Y142758D01*
X49154Y142827D01*
X49241Y142892D01*
X49330Y142955D01*
X49422Y143013D01*
X49516Y143069D01*
X49611Y143121D01*
X49709Y143170D01*
X49808Y143215D01*
X49909Y143257D01*
X50011Y143294D01*
X50114Y143328D01*
X50219Y143359D01*
X50325Y143385D01*
X50431Y143408D01*
X50539Y143426D01*
X50647Y143441D01*
X50755Y143452D01*
X50864Y143459D01*
X50973Y143462D01*
X51082Y143461D01*
X51191Y143456D01*
X51299Y143447D01*
X51407Y143434D01*
X51515Y143417D01*
X51622Y143397D01*
X51728Y143372D01*
X51833Y143344D01*
X51937Y143312D01*
X52040Y143276D01*
X52142Y143236D01*
X52242Y143193D01*
X52340Y143146D01*
X52437Y143096D01*
X52531Y143042D01*
X52624Y142984D01*
X52715Y142924D01*
X52803Y142860D01*
X52889Y142793D01*
X52972Y142723D01*
X53053Y142650D01*
X53131Y142574D01*
X53206Y142495D01*
X53279Y142413D01*
X53348Y142329D01*
X53414Y142243D01*
X53477Y142154D01*
X53537Y142063D01*
X53594Y141970D01*
X53647Y141875D01*
X53696Y141778D01*
X53742Y141679D01*
X53784Y141579D01*
X53823Y141477D01*
X53858Y141373D01*
X53889Y141269D01*
X53917Y141164D01*
X53940Y141057D01*
X53960Y140950D01*
X53976Y140842D01*
X53988Y140734D01*
X53996Y140625D01*
X54000Y140516D01*
X54000Y140408D01*
X53996Y140299D01*
X53988Y140190D01*
X53976Y140082D01*
X53960Y139974D01*
X53940Y139867D01*
X53917Y139760D01*
X53889Y139655D01*
X53858Y139551D01*
X53823Y139447D01*
X53784Y139345D01*
X53742Y139245D01*
X53696Y139146D01*
X53647Y139049D01*
X53594Y138954D01*
X53537Y138861D01*
X53477Y138770D01*
X53414Y138681D01*
X53348Y138595D01*
X53279Y138511D01*
X53206Y138429D01*
X53131Y138350D01*
X53053Y138274D01*
X52972Y138201D01*
X52889Y138131D01*
X52803Y138064D01*
X52715Y138000D01*
X52624Y137940D01*
X52531Y137882D01*
X52437Y137828D01*
X52340Y137778D01*
X52242Y137731D01*
X52142Y137688D01*
X52040Y137648D01*
X51937Y137612D01*
X51833Y137580D01*
X51728Y137552D01*
X51622Y137527D01*
X51515Y137507D01*
X51407Y137490D01*
X51299Y137477D01*
X51191Y137468D01*
X51082Y137463D01*
X50973Y137462D01*
X50864Y137465D01*
X50755Y137472D01*
X50647Y137483D01*
X50539Y137498D01*
X50431Y137516D01*
X50325Y137539D01*
X50219Y137565D01*
X50114Y137596D01*
X50011Y137630D01*
X49909Y137667D01*
X49808Y137709D01*
X49709Y137754D01*
X49611Y137803D01*
X49516Y137855D01*
X49422Y137911D01*
X49330Y137969D01*
X49241Y138032D01*
X49154Y138097D01*
X49069Y138166D01*
X48987Y138237D01*
X48908Y138312D01*
X48831Y138389D01*
X48757Y138469D01*
X48686Y138552D01*
X48619Y138638D01*
X48554Y138725D01*
X48492Y138815D01*
X48434Y138907D01*
X48380Y139001D01*
X48328Y139098D01*
X48280Y139196D01*
X48236Y139295D01*
X48196Y139396D01*
X48159Y139499D01*
X48126Y139603D01*
X48096Y139707D01*
X48071Y139813D01*
X48049Y139920D01*
X48032Y140028D01*
X48018Y140136D01*
X48008Y140244D01*
X48002Y140353D01*
X48000Y140462D01*
X48000Y60231D02*
X48002Y60340D01*
X48008Y60449D01*
X48018Y60557D01*
X48032Y60665D01*
X48049Y60773D01*
X48071Y60880D01*
X48096Y60986D01*
X48126Y61090D01*
X48159Y61194D01*
X48196Y61297D01*
X48236Y61398D01*
X48280Y61497D01*
X48328Y61595D01*
X48380Y61692D01*
X48434Y61786D01*
X48492Y61878D01*
X48554Y61968D01*
X48619Y62055D01*
X48686Y62141D01*
X48757Y62224D01*
X48831Y62304D01*
X48908Y62381D01*
X48987Y62456D01*
X49069Y62527D01*
X49154Y62596D01*
X49241Y62661D01*
X49330Y62724D01*
X49422Y62782D01*
X49516Y62838D01*
X49611Y62890D01*
X49709Y62939D01*
X49808Y62984D01*
X49909Y63026D01*
X50011Y63063D01*
X50114Y63097D01*
X50219Y63128D01*
X50325Y63154D01*
X50431Y63177D01*
X50539Y63195D01*
X50647Y63210D01*
X50755Y63221D01*
X50864Y63228D01*
X50973Y63231D01*
X51082Y63230D01*
X51191Y63225D01*
X51299Y63216D01*
X51407Y63203D01*
X51515Y63186D01*
X51622Y63166D01*
X51728Y63141D01*
X51833Y63113D01*
X51937Y63081D01*
X52040Y63045D01*
X52142Y63005D01*
X52242Y62962D01*
X52340Y62915D01*
X52437Y62865D01*
X52531Y62811D01*
X52624Y62753D01*
X52715Y62693D01*
X52803Y62629D01*
X52889Y62562D01*
X52972Y62492D01*
X53053Y62419D01*
X53131Y62343D01*
X53206Y62264D01*
X53279Y62182D01*
X53348Y62098D01*
X53414Y62012D01*
X53477Y61923D01*
X53537Y61832D01*
X53594Y61739D01*
X53647Y61644D01*
X53696Y61547D01*
X53742Y61448D01*
X53784Y61348D01*
X53823Y61246D01*
X53858Y61142D01*
X53889Y61038D01*
X53917Y60933D01*
X53940Y60826D01*
X53960Y60719D01*
X53976Y60611D01*
X53988Y60503D01*
X53996Y60394D01*
X54000Y60285D01*
X54000Y60177D01*
X53996Y60068D01*
X53988Y59959D01*
X53976Y59851D01*
X53960Y59743D01*
X53940Y59636D01*
X53917Y59529D01*
X53889Y59424D01*
X53858Y59320D01*
X53823Y59216D01*
X53784Y59114D01*
X53742Y59014D01*
X53696Y58915D01*
X53647Y58818D01*
X53594Y58723D01*
X53537Y58630D01*
X53477Y58539D01*
X53414Y58450D01*
X53348Y58364D01*
X53279Y58280D01*
X53206Y58198D01*
X53131Y58119D01*
X53053Y58043D01*
X52972Y57970D01*
X52889Y57900D01*
X52803Y57833D01*
X52715Y57769D01*
X52624Y57709D01*
X52531Y57651D01*
X52437Y57597D01*
X52340Y57547D01*
X52242Y57500D01*
X52142Y57457D01*
X52040Y57417D01*
X51937Y57381D01*
X51833Y57349D01*
X51728Y57321D01*
X51622Y57296D01*
X51515Y57276D01*
X51407Y57259D01*
X51299Y57246D01*
X51191Y57237D01*
X51082Y57232D01*
X50973Y57231D01*
X50864Y57234D01*
X50755Y57241D01*
X50647Y57252D01*
X50539Y57267D01*
X50431Y57285D01*
X50325Y57308D01*
X50219Y57334D01*
X50114Y57365D01*
X50011Y57399D01*
X49909Y57436D01*
X49808Y57478D01*
X49709Y57523D01*
X49611Y57572D01*
X49516Y57624D01*
X49422Y57680D01*
X49330Y57738D01*
X49241Y57801D01*
X49154Y57866D01*
X49069Y57935D01*
X48987Y58006D01*
X48908Y58081D01*
X48831Y58158D01*
X48757Y58238D01*
X48686Y58321D01*
X48619Y58407D01*
X48554Y58494D01*
X48492Y58584D01*
X48434Y58676D01*
X48380Y58770D01*
X48328Y58867D01*
X48280Y58965D01*
X48236Y59064D01*
X48196Y59165D01*
X48159Y59268D01*
X48126Y59372D01*
X48096Y59476D01*
X48071Y59582D01*
X48049Y59689D01*
X48032Y59797D01*
X48018Y59905D01*
X48008Y60013D01*
X48002Y60122D01*
X48000Y60231D01*
X48000Y50231D02*
X48002Y50340D01*
X48008Y50449D01*
X48018Y50557D01*
X48032Y50665D01*
X48049Y50773D01*
X48071Y50880D01*
X48096Y50986D01*
X48126Y51090D01*
X48159Y51194D01*
X48196Y51297D01*
X48236Y51398D01*
X48280Y51497D01*
X48328Y51595D01*
X48380Y51692D01*
X48434Y51786D01*
X48492Y51878D01*
X48554Y51968D01*
X48619Y52055D01*
X48686Y52141D01*
X48757Y52224D01*
X48831Y52304D01*
X48908Y52381D01*
X48987Y52456D01*
X49069Y52527D01*
X49154Y52596D01*
X49241Y52661D01*
X49330Y52724D01*
X49422Y52782D01*
X49516Y52838D01*
X49611Y52890D01*
X49709Y52939D01*
X49808Y52984D01*
X49909Y53026D01*
X50011Y53063D01*
X50114Y53097D01*
X50219Y53128D01*
X50325Y53154D01*
X50431Y53177D01*
X50539Y53195D01*
X50647Y53210D01*
X50755Y53221D01*
X50864Y53228D01*
X50973Y53231D01*
X51082Y53230D01*
X51191Y53225D01*
X51299Y53216D01*
X51407Y53203D01*
X51515Y53186D01*
X51622Y53166D01*
X51728Y53141D01*
X51833Y53113D01*
X51937Y53081D01*
X52040Y53045D01*
X52142Y53005D01*
X52242Y52962D01*
X52340Y52915D01*
X52437Y52865D01*
X52531Y52811D01*
X52624Y52753D01*
X52715Y52693D01*
X52803Y52629D01*
X52889Y52562D01*
X52972Y52492D01*
X53053Y52419D01*
X53131Y52343D01*
X53206Y52264D01*
X53279Y52182D01*
X53348Y52098D01*
X53414Y52012D01*
X53477Y51923D01*
X53537Y51832D01*
X53594Y51739D01*
X53647Y51644D01*
X53696Y51547D01*
X53742Y51448D01*
X53784Y51348D01*
X53823Y51246D01*
X53858Y51142D01*
X53889Y51038D01*
X53917Y50933D01*
X53940Y50826D01*
X53960Y50719D01*
X53976Y50611D01*
X53988Y50503D01*
X53996Y50394D01*
X54000Y50285D01*
X54000Y50177D01*
X53996Y50068D01*
X53988Y49959D01*
X53976Y49851D01*
X53960Y49743D01*
X53940Y49636D01*
X53917Y49529D01*
X53889Y49424D01*
X53858Y49320D01*
X53823Y49216D01*
X53784Y49114D01*
X53742Y49014D01*
X53696Y48915D01*
X53647Y48818D01*
X53594Y48723D01*
X53537Y48630D01*
X53477Y48539D01*
X53414Y48450D01*
X53348Y48364D01*
X53279Y48280D01*
X53206Y48198D01*
X53131Y48119D01*
X53053Y48043D01*
X52972Y47970D01*
X52889Y47900D01*
X52803Y47833D01*
X52715Y47769D01*
X52624Y47709D01*
X52531Y47651D01*
X52437Y47597D01*
X52340Y47547D01*
X52242Y47500D01*
X52142Y47457D01*
X52040Y47417D01*
X51937Y47381D01*
X51833Y47349D01*
X51728Y47321D01*
X51622Y47296D01*
X51515Y47276D01*
X51407Y47259D01*
X51299Y47246D01*
X51191Y47237D01*
X51082Y47232D01*
X50973Y47231D01*
X50864Y47234D01*
X50755Y47241D01*
X50647Y47252D01*
X50539Y47267D01*
X50431Y47285D01*
X50325Y47308D01*
X50219Y47334D01*
X50114Y47365D01*
X50011Y47399D01*
X49909Y47436D01*
X49808Y47478D01*
X49709Y47523D01*
X49611Y47572D01*
X49516Y47624D01*
X49422Y47680D01*
X49330Y47738D01*
X49241Y47801D01*
X49154Y47866D01*
X49069Y47935D01*
X48987Y48006D01*
X48908Y48081D01*
X48831Y48158D01*
X48757Y48238D01*
X48686Y48321D01*
X48619Y48407D01*
X48554Y48494D01*
X48492Y48584D01*
X48434Y48676D01*
X48380Y48770D01*
X48328Y48867D01*
X48280Y48965D01*
X48236Y49064D01*
X48196Y49165D01*
X48159Y49268D01*
X48126Y49372D01*
X48096Y49476D01*
X48071Y49582D01*
X48049Y49689D01*
X48032Y49797D01*
X48018Y49905D01*
X48008Y50013D01*
X48002Y50122D01*
X48000Y50231D01*
X48000Y40231D02*
X48002Y40340D01*
X48008Y40449D01*
X48018Y40557D01*
X48032Y40665D01*
X48049Y40773D01*
X48071Y40880D01*
X48096Y40986D01*
X48126Y41090D01*
X48159Y41194D01*
X48196Y41297D01*
X48236Y41398D01*
X48280Y41497D01*
X48328Y41595D01*
X48380Y41692D01*
X48434Y41786D01*
X48492Y41878D01*
X48554Y41968D01*
X48619Y42055D01*
X48686Y42141D01*
X48757Y42224D01*
X48831Y42304D01*
X48908Y42381D01*
X48987Y42456D01*
X49069Y42527D01*
X49154Y42596D01*
X49241Y42661D01*
X49330Y42724D01*
X49422Y42782D01*
X49516Y42838D01*
X49611Y42890D01*
X49709Y42939D01*
X49808Y42984D01*
X49909Y43026D01*
X50011Y43063D01*
X50114Y43097D01*
X50219Y43128D01*
X50325Y43154D01*
X50431Y43177D01*
X50539Y43195D01*
X50647Y43210D01*
X50755Y43221D01*
X50864Y43228D01*
X50973Y43231D01*
X51082Y43230D01*
X51191Y43225D01*
X51299Y43216D01*
X51407Y43203D01*
X51515Y43186D01*
X51622Y43166D01*
X51728Y43141D01*
X51833Y43113D01*
X51937Y43081D01*
X52040Y43045D01*
X52142Y43005D01*
X52242Y42962D01*
X52340Y42915D01*
X52437Y42865D01*
X52531Y42811D01*
X52624Y42753D01*
X52715Y42693D01*
X52803Y42629D01*
X52889Y42562D01*
X52972Y42492D01*
X53053Y42419D01*
X53131Y42343D01*
X53206Y42264D01*
X53279Y42182D01*
X53348Y42098D01*
X53414Y42012D01*
X53477Y41923D01*
X53537Y41832D01*
X53594Y41739D01*
X53647Y41644D01*
X53696Y41547D01*
X53742Y41448D01*
X53784Y41348D01*
X53823Y41246D01*
X53858Y41142D01*
X53889Y41038D01*
X53917Y40933D01*
X53940Y40826D01*
X53960Y40719D01*
X53976Y40611D01*
X53988Y40503D01*
X53996Y40394D01*
X54000Y40285D01*
X54000Y40177D01*
X53996Y40068D01*
X53988Y39959D01*
X53976Y39851D01*
X53960Y39743D01*
X53940Y39636D01*
X53917Y39529D01*
X53889Y39424D01*
X53858Y39320D01*
X53823Y39216D01*
X53784Y39114D01*
X53742Y39014D01*
X53696Y38915D01*
X53647Y38818D01*
X53594Y38723D01*
X53537Y38630D01*
X53477Y38539D01*
X53414Y38450D01*
X53348Y38364D01*
X53279Y38280D01*
X53206Y38198D01*
X53131Y38119D01*
X53053Y38043D01*
X52972Y37970D01*
X52889Y37900D01*
X52803Y37833D01*
X52715Y37769D01*
X52624Y37709D01*
X52531Y37651D01*
X52437Y37597D01*
X52340Y37547D01*
X52242Y37500D01*
X52142Y37457D01*
X52040Y37417D01*
X51937Y37381D01*
X51833Y37349D01*
X51728Y37321D01*
X51622Y37296D01*
X51515Y37276D01*
X51407Y37259D01*
X51299Y37246D01*
X51191Y37237D01*
X51082Y37232D01*
X50973Y37231D01*
X50864Y37234D01*
X50755Y37241D01*
X50647Y37252D01*
X50539Y37267D01*
X50431Y37285D01*
X50325Y37308D01*
X50219Y37334D01*
X50114Y37365D01*
X50011Y37399D01*
X49909Y37436D01*
X49808Y37478D01*
X49709Y37523D01*
X49611Y37572D01*
X49516Y37624D01*
X49422Y37680D01*
X49330Y37738D01*
X49241Y37801D01*
X49154Y37866D01*
X49069Y37935D01*
X48987Y38006D01*
X48908Y38081D01*
X48831Y38158D01*
X48757Y38238D01*
X48686Y38321D01*
X48619Y38407D01*
X48554Y38494D01*
X48492Y38584D01*
X48434Y38676D01*
X48380Y38770D01*
X48328Y38867D01*
X48280Y38965D01*
X48236Y39064D01*
X48196Y39165D01*
X48159Y39268D01*
X48126Y39372D01*
X48096Y39476D01*
X48071Y39582D01*
X48049Y39689D01*
X48032Y39797D01*
X48018Y39905D01*
X48008Y40013D01*
X48002Y40122D01*
X48000Y40231D01*
X48000Y30231D02*
X48002Y30340D01*
X48008Y30449D01*
X48018Y30557D01*
X48032Y30665D01*
X48049Y30773D01*
X48071Y30880D01*
X48096Y30986D01*
X48126Y31090D01*
X48159Y31194D01*
X48196Y31297D01*
X48236Y31398D01*
X48280Y31497D01*
X48328Y31595D01*
X48380Y31692D01*
X48434Y31786D01*
X48492Y31878D01*
X48554Y31968D01*
X48619Y32055D01*
X48686Y32141D01*
X48757Y32224D01*
X48831Y32304D01*
X48908Y32381D01*
X48987Y32456D01*
X49069Y32527D01*
X49154Y32596D01*
X49241Y32661D01*
X49330Y32724D01*
X49422Y32782D01*
X49516Y32838D01*
X49611Y32890D01*
X49709Y32939D01*
X49808Y32984D01*
X49909Y33026D01*
X50011Y33063D01*
X50114Y33097D01*
X50219Y33128D01*
X50325Y33154D01*
X50431Y33177D01*
X50539Y33195D01*
X50647Y33210D01*
X50755Y33221D01*
X50864Y33228D01*
X50973Y33231D01*
X51082Y33230D01*
X51191Y33225D01*
X51299Y33216D01*
X51407Y33203D01*
X51515Y33186D01*
X51622Y33166D01*
X51728Y33141D01*
X51833Y33113D01*
X51937Y33081D01*
X52040Y33045D01*
X52142Y33005D01*
X52242Y32962D01*
X52340Y32915D01*
X52437Y32865D01*
X52531Y32811D01*
X52624Y32753D01*
X52715Y32693D01*
X52803Y32629D01*
X52889Y32562D01*
X52972Y32492D01*
X53053Y32419D01*
X53131Y32343D01*
X53206Y32264D01*
X53279Y32182D01*
X53348Y32098D01*
X53414Y32012D01*
X53477Y31923D01*
X53537Y31832D01*
X53594Y31739D01*
X53647Y31644D01*
X53696Y31547D01*
X53742Y31448D01*
X53784Y31348D01*
X53823Y31246D01*
X53858Y31142D01*
X53889Y31038D01*
X53917Y30933D01*
X53940Y30826D01*
X53960Y30719D01*
X53976Y30611D01*
X53988Y30503D01*
X53996Y30394D01*
X54000Y30285D01*
X54000Y30177D01*
X53996Y30068D01*
X53988Y29959D01*
X53976Y29851D01*
X53960Y29743D01*
X53940Y29636D01*
X53917Y29529D01*
X53889Y29424D01*
X53858Y29320D01*
X53823Y29216D01*
X53784Y29114D01*
X53742Y29014D01*
X53696Y28915D01*
X53647Y28818D01*
X53594Y28723D01*
X53537Y28630D01*
X53477Y28539D01*
X53414Y28450D01*
X53348Y28364D01*
X53279Y28280D01*
X53206Y28198D01*
X53131Y28119D01*
X53053Y28043D01*
X52972Y27970D01*
X52889Y27900D01*
X52803Y27833D01*
X52715Y27769D01*
X52624Y27709D01*
X52531Y27651D01*
X52437Y27597D01*
X52340Y27547D01*
X52242Y27500D01*
X52142Y27457D01*
X52040Y27417D01*
X51937Y27381D01*
X51833Y27349D01*
X51728Y27321D01*
X51622Y27296D01*
X51515Y27276D01*
X51407Y27259D01*
X51299Y27246D01*
X51191Y27237D01*
X51082Y27232D01*
X50973Y27231D01*
X50864Y27234D01*
X50755Y27241D01*
X50647Y27252D01*
X50539Y27267D01*
X50431Y27285D01*
X50325Y27308D01*
X50219Y27334D01*
X50114Y27365D01*
X50011Y27399D01*
X49909Y27436D01*
X49808Y27478D01*
X49709Y27523D01*
X49611Y27572D01*
X49516Y27624D01*
X49422Y27680D01*
X49330Y27738D01*
X49241Y27801D01*
X49154Y27866D01*
X49069Y27935D01*
X48987Y28006D01*
X48908Y28081D01*
X48831Y28158D01*
X48757Y28238D01*
X48686Y28321D01*
X48619Y28407D01*
X48554Y28494D01*
X48492Y28584D01*
X48434Y28676D01*
X48380Y28770D01*
X48328Y28867D01*
X48280Y28965D01*
X48236Y29064D01*
X48196Y29165D01*
X48159Y29268D01*
X48126Y29372D01*
X48096Y29476D01*
X48071Y29582D01*
X48049Y29689D01*
X48032Y29797D01*
X48018Y29905D01*
X48008Y30013D01*
X48002Y30122D01*
X48000Y30231D01*
X48000Y20231D02*
X48002Y20340D01*
X48008Y20449D01*
X48018Y20557D01*
X48032Y20665D01*
X48049Y20773D01*
X48071Y20880D01*
X48096Y20986D01*
X48126Y21090D01*
X48159Y21194D01*
X48196Y21297D01*
X48236Y21398D01*
X48280Y21497D01*
X48328Y21595D01*
X48380Y21692D01*
X48434Y21786D01*
X48492Y21878D01*
X48554Y21968D01*
X48619Y22055D01*
X48686Y22141D01*
X48757Y22224D01*
X48831Y22304D01*
X48908Y22381D01*
X48987Y22456D01*
X49069Y22527D01*
X49154Y22596D01*
X49241Y22661D01*
X49330Y22724D01*
X49422Y22782D01*
X49516Y22838D01*
X49611Y22890D01*
X49709Y22939D01*
X49808Y22984D01*
X49909Y23026D01*
X50011Y23063D01*
X50114Y23097D01*
X50219Y23128D01*
X50325Y23154D01*
X50431Y23177D01*
X50539Y23195D01*
X50647Y23210D01*
X50755Y23221D01*
X50864Y23228D01*
X50973Y23231D01*
X51082Y23230D01*
X51191Y23225D01*
X51299Y23216D01*
X51407Y23203D01*
X51515Y23186D01*
X51622Y23166D01*
X51728Y23141D01*
X51833Y23113D01*
X51937Y23081D01*
X52040Y23045D01*
X52142Y23005D01*
X52242Y22962D01*
X52340Y22915D01*
X52437Y22865D01*
X52531Y22811D01*
X52624Y22753D01*
X52715Y22693D01*
X52803Y22629D01*
X52889Y22562D01*
X52972Y22492D01*
X53053Y22419D01*
X53131Y22343D01*
X53206Y22264D01*
X53279Y22182D01*
X53348Y22098D01*
X53414Y22012D01*
X53477Y21923D01*
X53537Y21832D01*
X53594Y21739D01*
X53647Y21644D01*
X53696Y21547D01*
X53742Y21448D01*
X53784Y21348D01*
X53823Y21246D01*
X53858Y21142D01*
X53889Y21038D01*
X53917Y20933D01*
X53940Y20826D01*
X53960Y20719D01*
X53976Y20611D01*
X53988Y20503D01*
X53996Y20394D01*
X54000Y20285D01*
X54000Y20177D01*
X53996Y20068D01*
X53988Y19959D01*
X53976Y19851D01*
X53960Y19743D01*
X53940Y19636D01*
X53917Y19529D01*
X53889Y19424D01*
X53858Y19320D01*
X53823Y19216D01*
X53784Y19114D01*
X53742Y19014D01*
X53696Y18915D01*
X53647Y18818D01*
X53594Y18723D01*
X53537Y18630D01*
X53477Y18539D01*
X53414Y18450D01*
X53348Y18364D01*
X53279Y18280D01*
X53206Y18198D01*
X53131Y18119D01*
X53053Y18043D01*
X52972Y17970D01*
X52889Y17900D01*
X52803Y17833D01*
X52715Y17769D01*
X52624Y17709D01*
X52531Y17651D01*
X52437Y17597D01*
X52340Y17547D01*
X52242Y17500D01*
X52142Y17457D01*
X52040Y17417D01*
X51937Y17381D01*
X51833Y17349D01*
X51728Y17321D01*
X51622Y17296D01*
X51515Y17276D01*
X51407Y17259D01*
X51299Y17246D01*
X51191Y17237D01*
X51082Y17232D01*
X50973Y17231D01*
X50864Y17234D01*
X50755Y17241D01*
X50647Y17252D01*
X50539Y17267D01*
X50431Y17285D01*
X50325Y17308D01*
X50219Y17334D01*
X50114Y17365D01*
X50011Y17399D01*
X49909Y17436D01*
X49808Y17478D01*
X49709Y17523D01*
X49611Y17572D01*
X49516Y17624D01*
X49422Y17680D01*
X49330Y17738D01*
X49241Y17801D01*
X49154Y17866D01*
X49069Y17935D01*
X48987Y18006D01*
X48908Y18081D01*
X48831Y18158D01*
X48757Y18238D01*
X48686Y18321D01*
X48619Y18407D01*
X48554Y18494D01*
X48492Y18584D01*
X48434Y18676D01*
X48380Y18770D01*
X48328Y18867D01*
X48280Y18965D01*
X48236Y19064D01*
X48196Y19165D01*
X48159Y19268D01*
X48126Y19372D01*
X48096Y19476D01*
X48071Y19582D01*
X48049Y19689D01*
X48032Y19797D01*
X48018Y19905D01*
X48008Y20013D01*
X48002Y20122D01*
X48000Y20231D01*
X48000Y10231D02*
X48002Y10340D01*
X48008Y10449D01*
X48018Y10557D01*
X48032Y10665D01*
X48049Y10773D01*
X48071Y10880D01*
X48096Y10986D01*
X48126Y11090D01*
X48159Y11194D01*
X48196Y11297D01*
X48236Y11398D01*
X48280Y11497D01*
X48328Y11595D01*
X48380Y11692D01*
X48434Y11786D01*
X48492Y11878D01*
X48554Y11968D01*
X48619Y12055D01*
X48686Y12141D01*
X48757Y12224D01*
X48831Y12304D01*
X48908Y12381D01*
X48987Y12456D01*
X49069Y12527D01*
X49154Y12596D01*
X49241Y12661D01*
X49330Y12724D01*
X49422Y12782D01*
X49516Y12838D01*
X49611Y12890D01*
X49709Y12939D01*
X49808Y12984D01*
X49909Y13026D01*
X50011Y13063D01*
X50114Y13097D01*
X50219Y13128D01*
X50325Y13154D01*
X50431Y13177D01*
X50539Y13195D01*
X50647Y13210D01*
X50755Y13221D01*
X50864Y13228D01*
X50973Y13231D01*
X51082Y13230D01*
X51191Y13225D01*
X51299Y13216D01*
X51407Y13203D01*
X51515Y13186D01*
X51622Y13166D01*
X51728Y13141D01*
X51833Y13113D01*
X51937Y13081D01*
X52040Y13045D01*
X52142Y13005D01*
X52242Y12962D01*
X52340Y12915D01*
X52437Y12865D01*
X52531Y12811D01*
X52624Y12753D01*
X52715Y12693D01*
X52803Y12629D01*
X52889Y12562D01*
X52972Y12492D01*
X53053Y12419D01*
X53131Y12343D01*
X53206Y12264D01*
X53279Y12182D01*
X53348Y12098D01*
X53414Y12012D01*
X53477Y11923D01*
X53537Y11832D01*
X53594Y11739D01*
X53647Y11644D01*
X53696Y11547D01*
X53742Y11448D01*
X53784Y11348D01*
X53823Y11246D01*
X53858Y11142D01*
X53889Y11038D01*
X53917Y10933D01*
X53940Y10826D01*
X53960Y10719D01*
X53976Y10611D01*
X53988Y10503D01*
X53996Y10394D01*
X54000Y10285D01*
X54000Y10177D01*
X53996Y10068D01*
X53988Y9959D01*
X53976Y9851D01*
X53960Y9743D01*
X53940Y9636D01*
X53917Y9529D01*
X53889Y9424D01*
X53858Y9320D01*
X53823Y9216D01*
X53784Y9114D01*
X53742Y9014D01*
X53696Y8915D01*
X53647Y8818D01*
X53594Y8723D01*
X53537Y8630D01*
X53477Y8539D01*
X53414Y8450D01*
X53348Y8364D01*
X53279Y8280D01*
X53206Y8198D01*
X53131Y8119D01*
X53053Y8043D01*
X52972Y7970D01*
X52889Y7900D01*
X52803Y7833D01*
X52715Y7769D01*
X52624Y7709D01*
X52531Y7651D01*
X52437Y7597D01*
X52340Y7547D01*
X52242Y7500D01*
X52142Y7457D01*
X52040Y7417D01*
X51937Y7381D01*
X51833Y7349D01*
X51728Y7321D01*
X51622Y7296D01*
X51515Y7276D01*
X51407Y7259D01*
X51299Y7246D01*
X51191Y7237D01*
X51082Y7232D01*
X50973Y7231D01*
X50864Y7234D01*
X50755Y7241D01*
X50647Y7252D01*
X50539Y7267D01*
X50431Y7285D01*
X50325Y7308D01*
X50219Y7334D01*
X50114Y7365D01*
X50011Y7399D01*
X49909Y7436D01*
X49808Y7478D01*
X49709Y7523D01*
X49611Y7572D01*
X49516Y7624D01*
X49422Y7680D01*
X49330Y7738D01*
X49241Y7801D01*
X49154Y7866D01*
X49069Y7935D01*
X48987Y8006D01*
X48908Y8081D01*
X48831Y8158D01*
X48757Y8238D01*
X48686Y8321D01*
X48619Y8407D01*
X48554Y8494D01*
X48492Y8584D01*
X48434Y8676D01*
X48380Y8770D01*
X48328Y8867D01*
X48280Y8965D01*
X48236Y9064D01*
X48196Y9165D01*
X48159Y9268D01*
X48126Y9372D01*
X48096Y9476D01*
X48071Y9582D01*
X48049Y9689D01*
X48032Y9797D01*
X48018Y9905D01*
X48008Y10013D01*
X48002Y10122D01*
X48000Y10231D01*
X48000Y0D02*
X48002Y109D01*
X48008Y218D01*
X48018Y326D01*
X48032Y434D01*
X48049Y542D01*
X48071Y649D01*
X48096Y755D01*
X48126Y859D01*
X48159Y963D01*
X48196Y1066D01*
X48236Y1167D01*
X48280Y1266D01*
X48328Y1364D01*
X48380Y1461D01*
X48434Y1555D01*
X48492Y1647D01*
X48554Y1737D01*
X48619Y1824D01*
X48686Y1910D01*
X48757Y1993D01*
X48831Y2073D01*
X48908Y2150D01*
X48987Y2225D01*
X49069Y2296D01*
X49154Y2365D01*
X49241Y2430D01*
X49330Y2493D01*
X49422Y2551D01*
X49516Y2607D01*
X49611Y2659D01*
X49709Y2708D01*
X49808Y2753D01*
X49909Y2795D01*
X50011Y2832D01*
X50114Y2866D01*
X50219Y2897D01*
X50325Y2923D01*
X50431Y2946D01*
X50539Y2964D01*
X50647Y2979D01*
X50755Y2990D01*
X50864Y2997D01*
X50973Y3000D01*
X51082Y2999D01*
X51191Y2994D01*
X51299Y2985D01*
X51407Y2972D01*
X51515Y2955D01*
X51622Y2935D01*
X51728Y2910D01*
X51833Y2882D01*
X51937Y2850D01*
X52040Y2814D01*
X52142Y2774D01*
X52242Y2731D01*
X52340Y2684D01*
X52437Y2634D01*
X52531Y2580D01*
X52624Y2522D01*
X52715Y2462D01*
X52803Y2398D01*
X52889Y2331D01*
X52972Y2261D01*
X53053Y2188D01*
X53131Y2112D01*
X53206Y2033D01*
X53279Y1951D01*
X53348Y1867D01*
X53414Y1781D01*
X53477Y1692D01*
X53537Y1601D01*
X53594Y1508D01*
X53647Y1413D01*
X53696Y1316D01*
X53742Y1217D01*
X53784Y1117D01*
X53823Y1015D01*
X53858Y911D01*
X53889Y807D01*
X53917Y702D01*
X53940Y595D01*
X53960Y488D01*
X53976Y380D01*
X53988Y272D01*
X53996Y163D01*
X54000Y54D01*
X54000Y-54D01*
X53996Y-163D01*
X53988Y-272D01*
X53976Y-380D01*
X53960Y-488D01*
X53940Y-595D01*
X53917Y-702D01*
X53889Y-807D01*
X53858Y-911D01*
X53823Y-1015D01*
X53784Y-1117D01*
X53742Y-1217D01*
X53696Y-1316D01*
X53647Y-1413D01*
X53594Y-1508D01*
X53537Y-1601D01*
X53477Y-1692D01*
X53414Y-1781D01*
X53348Y-1867D01*
X53279Y-1951D01*
X53206Y-2033D01*
X53131Y-2112D01*
X53053Y-2188D01*
X52972Y-2261D01*
X52889Y-2331D01*
X52803Y-2398D01*
X52715Y-2462D01*
X52624Y-2522D01*
X52531Y-2580D01*
X52437Y-2634D01*
X52340Y-2684D01*
X52242Y-2731D01*
X52142Y-2774D01*
X52040Y-2814D01*
X51937Y-2850D01*
X51833Y-2882D01*
X51728Y-2910D01*
X51622Y-2935D01*
X51515Y-2955D01*
X51407Y-2972D01*
X51299Y-2985D01*
X51191Y-2994D01*
X51082Y-2999D01*
X50973Y-3000D01*
X50864Y-2997D01*
X50755Y-2990D01*
X50647Y-2979D01*
X50539Y-2964D01*
X50431Y-2946D01*
X50325Y-2923D01*
X50219Y-2897D01*
X50114Y-2866D01*
X50011Y-2832D01*
X49909Y-2795D01*
X49808Y-2753D01*
X49709Y-2708D01*
X49611Y-2659D01*
X49516Y-2607D01*
X49422Y-2551D01*
X49330Y-2493D01*
X49241Y-2430D01*
X49154Y-2365D01*
X49069Y-2296D01*
X48987Y-2225D01*
X48908Y-2150D01*
X48831Y-2073D01*
X48757Y-1993D01*
X48686Y-1910D01*
X48619Y-1824D01*
X48554Y-1737D01*
X48492Y-1647D01*
X48434Y-1555D01*
X48380Y-1461D01*
X48328Y-1364D01*
X48280Y-1266D01*
X48236Y-1167D01*
X48196Y-1066D01*
X48159Y-963D01*
X48126Y-859D01*
X48096Y-755D01*
X48071Y-649D01*
X48049Y-542D01*
X48032Y-434D01*
X48018Y-326D01*
X48008Y-218D01*
X48002Y-109D01*
X48000Y0D01*
X301600Y70231D02*
X301602Y70340D01*
X301608Y70449D01*
X301618Y70557D01*
X301632Y70665D01*
X301649Y70773D01*
X301671Y70880D01*
X301696Y70986D01*
X301726Y71090D01*
X301759Y71194D01*
X301796Y71297D01*
X301836Y71398D01*
X301880Y71497D01*
X301928Y71595D01*
X301980Y71692D01*
X302034Y71786D01*
X302092Y71878D01*
X302154Y71968D01*
X302219Y72055D01*
X302286Y72141D01*
X302357Y72224D01*
X302431Y72304D01*
X302508Y72381D01*
X302587Y72456D01*
X302669Y72527D01*
X302754Y72596D01*
X302841Y72661D01*
X302930Y72724D01*
X303022Y72782D01*
X303116Y72838D01*
X303211Y72890D01*
X303309Y72939D01*
X303408Y72984D01*
X303509Y73026D01*
X303611Y73063D01*
X303714Y73097D01*
X303819Y73128D01*
X303925Y73154D01*
X304031Y73177D01*
X304139Y73195D01*
X304247Y73210D01*
X304355Y73221D01*
X304464Y73228D01*
X304573Y73231D01*
X304682Y73230D01*
X304791Y73225D01*
X304899Y73216D01*
X305007Y73203D01*
X305115Y73186D01*
X305222Y73166D01*
X305328Y73141D01*
X305433Y73113D01*
X305537Y73081D01*
X305640Y73045D01*
X305742Y73005D01*
X305842Y72962D01*
X305940Y72915D01*
X306037Y72865D01*
X306131Y72811D01*
X306224Y72753D01*
X306315Y72693D01*
X306403Y72629D01*
X306489Y72562D01*
X306572Y72492D01*
X306653Y72419D01*
X306731Y72343D01*
X306806Y72264D01*
X306879Y72182D01*
X306948Y72098D01*
X307014Y72012D01*
X307077Y71923D01*
X307137Y71832D01*
X307194Y71739D01*
X307247Y71644D01*
X307296Y71547D01*
X307342Y71448D01*
X307384Y71348D01*
X307423Y71246D01*
X307458Y71142D01*
X307489Y71038D01*
X307517Y70933D01*
X307540Y70826D01*
X307560Y70719D01*
X307576Y70611D01*
X307588Y70503D01*
X307596Y70394D01*
X307600Y70285D01*
X307600Y70177D01*
X307596Y70068D01*
X307588Y69959D01*
X307576Y69851D01*
X307560Y69743D01*
X307540Y69636D01*
X307517Y69529D01*
X307489Y69424D01*
X307458Y69320D01*
X307423Y69216D01*
X307384Y69114D01*
X307342Y69014D01*
X307296Y68915D01*
X307247Y68818D01*
X307194Y68723D01*
X307137Y68630D01*
X307077Y68539D01*
X307014Y68450D01*
X306948Y68364D01*
X306879Y68280D01*
X306806Y68198D01*
X306731Y68119D01*
X306653Y68043D01*
X306572Y67970D01*
X306489Y67900D01*
X306403Y67833D01*
X306315Y67769D01*
X306224Y67709D01*
X306131Y67651D01*
X306037Y67597D01*
X305940Y67547D01*
X305842Y67500D01*
X305742Y67457D01*
X305640Y67417D01*
X305537Y67381D01*
X305433Y67349D01*
X305328Y67321D01*
X305222Y67296D01*
X305115Y67276D01*
X305007Y67259D01*
X304899Y67246D01*
X304791Y67237D01*
X304682Y67232D01*
X304573Y67231D01*
X304464Y67234D01*
X304355Y67241D01*
X304247Y67252D01*
X304139Y67267D01*
X304031Y67285D01*
X303925Y67308D01*
X303819Y67334D01*
X303714Y67365D01*
X303611Y67399D01*
X303509Y67436D01*
X303408Y67478D01*
X303309Y67523D01*
X303211Y67572D01*
X303116Y67624D01*
X303022Y67680D01*
X302930Y67738D01*
X302841Y67801D01*
X302754Y67866D01*
X302669Y67935D01*
X302587Y68006D01*
X302508Y68081D01*
X302431Y68158D01*
X302357Y68238D01*
X302286Y68321D01*
X302219Y68407D01*
X302154Y68494D01*
X302092Y68584D01*
X302034Y68676D01*
X301980Y68770D01*
X301928Y68867D01*
X301880Y68965D01*
X301836Y69064D01*
X301796Y69165D01*
X301759Y69268D01*
X301726Y69372D01*
X301696Y69476D01*
X301671Y69582D01*
X301649Y69689D01*
X301632Y69797D01*
X301618Y69905D01*
X301608Y70013D01*
X301602Y70122D01*
X301600Y70231D01*
X301600Y80231D02*
X301602Y80340D01*
X301608Y80449D01*
X301618Y80557D01*
X301632Y80665D01*
X301649Y80773D01*
X301671Y80880D01*
X301696Y80986D01*
X301726Y81090D01*
X301759Y81194D01*
X301796Y81297D01*
X301836Y81398D01*
X301880Y81497D01*
X301928Y81595D01*
X301980Y81692D01*
X302034Y81786D01*
X302092Y81878D01*
X302154Y81968D01*
X302219Y82055D01*
X302286Y82141D01*
X302357Y82224D01*
X302431Y82304D01*
X302508Y82381D01*
X302587Y82456D01*
X302669Y82527D01*
X302754Y82596D01*
X302841Y82661D01*
X302930Y82724D01*
X303022Y82782D01*
X303116Y82838D01*
X303211Y82890D01*
X303309Y82939D01*
X303408Y82984D01*
X303509Y83026D01*
X303611Y83063D01*
X303714Y83097D01*
X303819Y83128D01*
X303925Y83154D01*
X304031Y83177D01*
X304139Y83195D01*
X304247Y83210D01*
X304355Y83221D01*
X304464Y83228D01*
X304573Y83231D01*
X304682Y83230D01*
X304791Y83225D01*
X304899Y83216D01*
X305007Y83203D01*
X305115Y83186D01*
X305222Y83166D01*
X305328Y83141D01*
X305433Y83113D01*
X305537Y83081D01*
X305640Y83045D01*
X305742Y83005D01*
X305842Y82962D01*
X305940Y82915D01*
X306037Y82865D01*
X306131Y82811D01*
X306224Y82753D01*
X306315Y82693D01*
X306403Y82629D01*
X306489Y82562D01*
X306572Y82492D01*
X306653Y82419D01*
X306731Y82343D01*
X306806Y82264D01*
X306879Y82182D01*
X306948Y82098D01*
X307014Y82012D01*
X307077Y81923D01*
X307137Y81832D01*
X307194Y81739D01*
X307247Y81644D01*
X307296Y81547D01*
X307342Y81448D01*
X307384Y81348D01*
X307423Y81246D01*
X307458Y81142D01*
X307489Y81038D01*
X307517Y80933D01*
X307540Y80826D01*
X307560Y80719D01*
X307576Y80611D01*
X307588Y80503D01*
X307596Y80394D01*
X307600Y80285D01*
X307600Y80177D01*
X307596Y80068D01*
X307588Y79959D01*
X307576Y79851D01*
X307560Y79743D01*
X307540Y79636D01*
X307517Y79529D01*
X307489Y79424D01*
X307458Y79320D01*
X307423Y79216D01*
X307384Y79114D01*
X307342Y79014D01*
X307296Y78915D01*
X307247Y78818D01*
X307194Y78723D01*
X307137Y78630D01*
X307077Y78539D01*
X307014Y78450D01*
X306948Y78364D01*
X306879Y78280D01*
X306806Y78198D01*
X306731Y78119D01*
X306653Y78043D01*
X306572Y77970D01*
X306489Y77900D01*
X306403Y77833D01*
X306315Y77769D01*
X306224Y77709D01*
X306131Y77651D01*
X306037Y77597D01*
X305940Y77547D01*
X305842Y77500D01*
X305742Y77457D01*
X305640Y77417D01*
X305537Y77381D01*
X305433Y77349D01*
X305328Y77321D01*
X305222Y77296D01*
X305115Y77276D01*
X305007Y77259D01*
X304899Y77246D01*
X304791Y77237D01*
X304682Y77232D01*
X304573Y77231D01*
X304464Y77234D01*
X304355Y77241D01*
X304247Y77252D01*
X304139Y77267D01*
X304031Y77285D01*
X303925Y77308D01*
X303819Y77334D01*
X303714Y77365D01*
X303611Y77399D01*
X303509Y77436D01*
X303408Y77478D01*
X303309Y77523D01*
X303211Y77572D01*
X303116Y77624D01*
X303022Y77680D01*
X302930Y77738D01*
X302841Y77801D01*
X302754Y77866D01*
X302669Y77935D01*
X302587Y78006D01*
X302508Y78081D01*
X302431Y78158D01*
X302357Y78238D01*
X302286Y78321D01*
X302219Y78407D01*
X302154Y78494D01*
X302092Y78584D01*
X302034Y78676D01*
X301980Y78770D01*
X301928Y78867D01*
X301880Y78965D01*
X301836Y79064D01*
X301796Y79165D01*
X301759Y79268D01*
X301726Y79372D01*
X301696Y79476D01*
X301671Y79582D01*
X301649Y79689D01*
X301632Y79797D01*
X301618Y79905D01*
X301608Y80013D01*
X301602Y80122D01*
X301600Y80231D01*
X301600Y90231D02*
X301602Y90340D01*
X301608Y90449D01*
X301618Y90557D01*
X301632Y90665D01*
X301649Y90773D01*
X301671Y90880D01*
X301696Y90986D01*
X301726Y91090D01*
X301759Y91194D01*
X301796Y91297D01*
X301836Y91398D01*
X301880Y91497D01*
X301928Y91595D01*
X301980Y91692D01*
X302034Y91786D01*
X302092Y91878D01*
X302154Y91968D01*
X302219Y92055D01*
X302286Y92141D01*
X302357Y92224D01*
X302431Y92304D01*
X302508Y92381D01*
X302587Y92456D01*
X302669Y92527D01*
X302754Y92596D01*
X302841Y92661D01*
X302930Y92724D01*
X303022Y92782D01*
X303116Y92838D01*
X303211Y92890D01*
X303309Y92939D01*
X303408Y92984D01*
X303509Y93026D01*
X303611Y93063D01*
X303714Y93097D01*
X303819Y93128D01*
X303925Y93154D01*
X304031Y93177D01*
X304139Y93195D01*
X304247Y93210D01*
X304355Y93221D01*
X304464Y93228D01*
X304573Y93231D01*
X304682Y93230D01*
X304791Y93225D01*
X304899Y93216D01*
X305007Y93203D01*
X305115Y93186D01*
X305222Y93166D01*
X305328Y93141D01*
X305433Y93113D01*
X305537Y93081D01*
X305640Y93045D01*
X305742Y93005D01*
X305842Y92962D01*
X305940Y92915D01*
X306037Y92865D01*
X306131Y92811D01*
X306224Y92753D01*
X306315Y92693D01*
X306403Y92629D01*
X306489Y92562D01*
X306572Y92492D01*
X306653Y92419D01*
X306731Y92343D01*
X306806Y92264D01*
X306879Y92182D01*
X306948Y92098D01*
X307014Y92012D01*
X307077Y91923D01*
X307137Y91832D01*
X307194Y91739D01*
X307247Y91644D01*
X307296Y91547D01*
X307342Y91448D01*
X307384Y91348D01*
X307423Y91246D01*
X307458Y91142D01*
X307489Y91038D01*
X307517Y90933D01*
X307540Y90826D01*
X307560Y90719D01*
X307576Y90611D01*
X307588Y90503D01*
X307596Y90394D01*
X307600Y90285D01*
X307600Y90177D01*
X307596Y90068D01*
X307588Y89959D01*
X307576Y89851D01*
X307560Y89743D01*
X307540Y89636D01*
X307517Y89529D01*
X307489Y89424D01*
X307458Y89320D01*
X307423Y89216D01*
X307384Y89114D01*
X307342Y89014D01*
X307296Y88915D01*
X307247Y88818D01*
X307194Y88723D01*
X307137Y88630D01*
X307077Y88539D01*
X307014Y88450D01*
X306948Y88364D01*
X306879Y88280D01*
X306806Y88198D01*
X306731Y88119D01*
X306653Y88043D01*
X306572Y87970D01*
X306489Y87900D01*
X306403Y87833D01*
X306315Y87769D01*
X306224Y87709D01*
X306131Y87651D01*
X306037Y87597D01*
X305940Y87547D01*
X305842Y87500D01*
X305742Y87457D01*
X305640Y87417D01*
X305537Y87381D01*
X305433Y87349D01*
X305328Y87321D01*
X305222Y87296D01*
X305115Y87276D01*
X305007Y87259D01*
X304899Y87246D01*
X304791Y87237D01*
X304682Y87232D01*
X304573Y87231D01*
X304464Y87234D01*
X304355Y87241D01*
X304247Y87252D01*
X304139Y87267D01*
X304031Y87285D01*
X303925Y87308D01*
X303819Y87334D01*
X303714Y87365D01*
X303611Y87399D01*
X303509Y87436D01*
X303408Y87478D01*
X303309Y87523D01*
X303211Y87572D01*
X303116Y87624D01*
X303022Y87680D01*
X302930Y87738D01*
X302841Y87801D01*
X302754Y87866D01*
X302669Y87935D01*
X302587Y88006D01*
X302508Y88081D01*
X302431Y88158D01*
X302357Y88238D01*
X302286Y88321D01*
X302219Y88407D01*
X302154Y88494D01*
X302092Y88584D01*
X302034Y88676D01*
X301980Y88770D01*
X301928Y88867D01*
X301880Y88965D01*
X301836Y89064D01*
X301796Y89165D01*
X301759Y89268D01*
X301726Y89372D01*
X301696Y89476D01*
X301671Y89582D01*
X301649Y89689D01*
X301632Y89797D01*
X301618Y89905D01*
X301608Y90013D01*
X301602Y90122D01*
X301600Y90231D01*
X301600Y100231D02*
X301602Y100340D01*
X301608Y100449D01*
X301618Y100557D01*
X301632Y100665D01*
X301649Y100773D01*
X301671Y100880D01*
X301696Y100986D01*
X301726Y101090D01*
X301759Y101194D01*
X301796Y101297D01*
X301836Y101398D01*
X301880Y101497D01*
X301928Y101595D01*
X301980Y101692D01*
X302034Y101786D01*
X302092Y101878D01*
X302154Y101968D01*
X302219Y102055D01*
X302286Y102141D01*
X302357Y102224D01*
X302431Y102304D01*
X302508Y102381D01*
X302587Y102456D01*
X302669Y102527D01*
X302754Y102596D01*
X302841Y102661D01*
X302930Y102724D01*
X303022Y102782D01*
X303116Y102838D01*
X303211Y102890D01*
X303309Y102939D01*
X303408Y102984D01*
X303509Y103026D01*
X303611Y103063D01*
X303714Y103097D01*
X303819Y103128D01*
X303925Y103154D01*
X304031Y103177D01*
X304139Y103195D01*
X304247Y103210D01*
X304355Y103221D01*
X304464Y103228D01*
X304573Y103231D01*
X304682Y103230D01*
X304791Y103225D01*
X304899Y103216D01*
X305007Y103203D01*
X305115Y103186D01*
X305222Y103166D01*
X305328Y103141D01*
X305433Y103113D01*
X305537Y103081D01*
X305640Y103045D01*
X305742Y103005D01*
X305842Y102962D01*
X305940Y102915D01*
X306037Y102865D01*
X306131Y102811D01*
X306224Y102753D01*
X306315Y102693D01*
X306403Y102629D01*
X306489Y102562D01*
X306572Y102492D01*
X306653Y102419D01*
X306731Y102343D01*
X306806Y102264D01*
X306879Y102182D01*
X306948Y102098D01*
X307014Y102012D01*
X307077Y101923D01*
X307137Y101832D01*
X307194Y101739D01*
X307247Y101644D01*
X307296Y101547D01*
X307342Y101448D01*
X307384Y101348D01*
X307423Y101246D01*
X307458Y101142D01*
X307489Y101038D01*
X307517Y100933D01*
X307540Y100826D01*
X307560Y100719D01*
X307576Y100611D01*
X307588Y100503D01*
X307596Y100394D01*
X307600Y100285D01*
X307600Y100177D01*
X307596Y100068D01*
X307588Y99959D01*
X307576Y99851D01*
X307560Y99743D01*
X307540Y99636D01*
X307517Y99529D01*
X307489Y99424D01*
X307458Y99320D01*
X307423Y99216D01*
X307384Y99114D01*
X307342Y99014D01*
X307296Y98915D01*
X307247Y98818D01*
X307194Y98723D01*
X307137Y98630D01*
X307077Y98539D01*
X307014Y98450D01*
X306948Y98364D01*
X306879Y98280D01*
X306806Y98198D01*
X306731Y98119D01*
X306653Y98043D01*
X306572Y97970D01*
X306489Y97900D01*
X306403Y97833D01*
X306315Y97769D01*
X306224Y97709D01*
X306131Y97651D01*
X306037Y97597D01*
X305940Y97547D01*
X305842Y97500D01*
X305742Y97457D01*
X305640Y97417D01*
X305537Y97381D01*
X305433Y97349D01*
X305328Y97321D01*
X305222Y97296D01*
X305115Y97276D01*
X305007Y97259D01*
X304899Y97246D01*
X304791Y97237D01*
X304682Y97232D01*
X304573Y97231D01*
X304464Y97234D01*
X304355Y97241D01*
X304247Y97252D01*
X304139Y97267D01*
X304031Y97285D01*
X303925Y97308D01*
X303819Y97334D01*
X303714Y97365D01*
X303611Y97399D01*
X303509Y97436D01*
X303408Y97478D01*
X303309Y97523D01*
X303211Y97572D01*
X303116Y97624D01*
X303022Y97680D01*
X302930Y97738D01*
X302841Y97801D01*
X302754Y97866D01*
X302669Y97935D01*
X302587Y98006D01*
X302508Y98081D01*
X302431Y98158D01*
X302357Y98238D01*
X302286Y98321D01*
X302219Y98407D01*
X302154Y98494D01*
X302092Y98584D01*
X302034Y98676D01*
X301980Y98770D01*
X301928Y98867D01*
X301880Y98965D01*
X301836Y99064D01*
X301796Y99165D01*
X301759Y99268D01*
X301726Y99372D01*
X301696Y99476D01*
X301671Y99582D01*
X301649Y99689D01*
X301632Y99797D01*
X301618Y99905D01*
X301608Y100013D01*
X301602Y100122D01*
X301600Y100231D01*
X301600Y110231D02*
X301602Y110340D01*
X301608Y110449D01*
X301618Y110557D01*
X301632Y110665D01*
X301649Y110773D01*
X301671Y110880D01*
X301696Y110986D01*
X301726Y111090D01*
X301759Y111194D01*
X301796Y111297D01*
X301836Y111398D01*
X301880Y111497D01*
X301928Y111595D01*
X301980Y111692D01*
X302034Y111786D01*
X302092Y111878D01*
X302154Y111968D01*
X302219Y112055D01*
X302286Y112141D01*
X302357Y112224D01*
X302431Y112304D01*
X302508Y112381D01*
X302587Y112456D01*
X302669Y112527D01*
X302754Y112596D01*
X302841Y112661D01*
X302930Y112724D01*
X303022Y112782D01*
X303116Y112838D01*
X303211Y112890D01*
X303309Y112939D01*
X303408Y112984D01*
X303509Y113026D01*
X303611Y113063D01*
X303714Y113097D01*
X303819Y113128D01*
X303925Y113154D01*
X304031Y113177D01*
X304139Y113195D01*
X304247Y113210D01*
X304355Y113221D01*
X304464Y113228D01*
X304573Y113231D01*
X304682Y113230D01*
X304791Y113225D01*
X304899Y113216D01*
X305007Y113203D01*
X305115Y113186D01*
X305222Y113166D01*
X305328Y113141D01*
X305433Y113113D01*
X305537Y113081D01*
X305640Y113045D01*
X305742Y113005D01*
X305842Y112962D01*
X305940Y112915D01*
X306037Y112865D01*
X306131Y112811D01*
X306224Y112753D01*
X306315Y112693D01*
X306403Y112629D01*
X306489Y112562D01*
X306572Y112492D01*
X306653Y112419D01*
X306731Y112343D01*
X306806Y112264D01*
X306879Y112182D01*
X306948Y112098D01*
X307014Y112012D01*
X307077Y111923D01*
X307137Y111832D01*
X307194Y111739D01*
X307247Y111644D01*
X307296Y111547D01*
X307342Y111448D01*
X307384Y111348D01*
X307423Y111246D01*
X307458Y111142D01*
X307489Y111038D01*
X307517Y110933D01*
X307540Y110826D01*
X307560Y110719D01*
X307576Y110611D01*
X307588Y110503D01*
X307596Y110394D01*
X307600Y110285D01*
X307600Y110177D01*
X307596Y110068D01*
X307588Y109959D01*
X307576Y109851D01*
X307560Y109743D01*
X307540Y109636D01*
X307517Y109529D01*
X307489Y109424D01*
X307458Y109320D01*
X307423Y109216D01*
X307384Y109114D01*
X307342Y109014D01*
X307296Y108915D01*
X307247Y108818D01*
X307194Y108723D01*
X307137Y108630D01*
X307077Y108539D01*
X307014Y108450D01*
X306948Y108364D01*
X306879Y108280D01*
X306806Y108198D01*
X306731Y108119D01*
X306653Y108043D01*
X306572Y107970D01*
X306489Y107900D01*
X306403Y107833D01*
X306315Y107769D01*
X306224Y107709D01*
X306131Y107651D01*
X306037Y107597D01*
X305940Y107547D01*
X305842Y107500D01*
X305742Y107457D01*
X305640Y107417D01*
X305537Y107381D01*
X305433Y107349D01*
X305328Y107321D01*
X305222Y107296D01*
X305115Y107276D01*
X305007Y107259D01*
X304899Y107246D01*
X304791Y107237D01*
X304682Y107232D01*
X304573Y107231D01*
X304464Y107234D01*
X304355Y107241D01*
X304247Y107252D01*
X304139Y107267D01*
X304031Y107285D01*
X303925Y107308D01*
X303819Y107334D01*
X303714Y107365D01*
X303611Y107399D01*
X303509Y107436D01*
X303408Y107478D01*
X303309Y107523D01*
X303211Y107572D01*
X303116Y107624D01*
X303022Y107680D01*
X302930Y107738D01*
X302841Y107801D01*
X302754Y107866D01*
X302669Y107935D01*
X302587Y108006D01*
X302508Y108081D01*
X302431Y108158D01*
X302357Y108238D01*
X302286Y108321D01*
X302219Y108407D01*
X302154Y108494D01*
X302092Y108584D01*
X302034Y108676D01*
X301980Y108770D01*
X301928Y108867D01*
X301880Y108965D01*
X301836Y109064D01*
X301796Y109165D01*
X301759Y109268D01*
X301726Y109372D01*
X301696Y109476D01*
X301671Y109582D01*
X301649Y109689D01*
X301632Y109797D01*
X301618Y109905D01*
X301608Y110013D01*
X301602Y110122D01*
X301600Y110231D01*
X301600Y120231D02*
X301602Y120340D01*
X301608Y120449D01*
X301618Y120557D01*
X301632Y120665D01*
X301649Y120773D01*
X301671Y120880D01*
X301696Y120986D01*
X301726Y121090D01*
X301759Y121194D01*
X301796Y121297D01*
X301836Y121398D01*
X301880Y121497D01*
X301928Y121595D01*
X301980Y121692D01*
X302034Y121786D01*
X302092Y121878D01*
X302154Y121968D01*
X302219Y122055D01*
X302286Y122141D01*
X302357Y122224D01*
X302431Y122304D01*
X302508Y122381D01*
X302587Y122456D01*
X302669Y122527D01*
X302754Y122596D01*
X302841Y122661D01*
X302930Y122724D01*
X303022Y122782D01*
X303116Y122838D01*
X303211Y122890D01*
X303309Y122939D01*
X303408Y122984D01*
X303509Y123026D01*
X303611Y123063D01*
X303714Y123097D01*
X303819Y123128D01*
X303925Y123154D01*
X304031Y123177D01*
X304139Y123195D01*
X304247Y123210D01*
X304355Y123221D01*
X304464Y123228D01*
X304573Y123231D01*
X304682Y123230D01*
X304791Y123225D01*
X304899Y123216D01*
X305007Y123203D01*
X305115Y123186D01*
X305222Y123166D01*
X305328Y123141D01*
X305433Y123113D01*
X305537Y123081D01*
X305640Y123045D01*
X305742Y123005D01*
X305842Y122962D01*
X305940Y122915D01*
X306037Y122865D01*
X306131Y122811D01*
X306224Y122753D01*
X306315Y122693D01*
X306403Y122629D01*
X306489Y122562D01*
X306572Y122492D01*
X306653Y122419D01*
X306731Y122343D01*
X306806Y122264D01*
X306879Y122182D01*
X306948Y122098D01*
X307014Y122012D01*
X307077Y121923D01*
X307137Y121832D01*
X307194Y121739D01*
X307247Y121644D01*
X307296Y121547D01*
X307342Y121448D01*
X307384Y121348D01*
X307423Y121246D01*
X307458Y121142D01*
X307489Y121038D01*
X307517Y120933D01*
X307540Y120826D01*
X307560Y120719D01*
X307576Y120611D01*
X307588Y120503D01*
X307596Y120394D01*
X307600Y120285D01*
X307600Y120177D01*
X307596Y120068D01*
X307588Y119959D01*
X307576Y119851D01*
X307560Y119743D01*
X307540Y119636D01*
X307517Y119529D01*
X307489Y119424D01*
X307458Y119320D01*
X307423Y119216D01*
X307384Y119114D01*
X307342Y119014D01*
X307296Y118915D01*
X307247Y118818D01*
X307194Y118723D01*
X307137Y118630D01*
X307077Y118539D01*
X307014Y118450D01*
X306948Y118364D01*
X306879Y118280D01*
X306806Y118198D01*
X306731Y118119D01*
X306653Y118043D01*
X306572Y117970D01*
X306489Y117900D01*
X306403Y117833D01*
X306315Y117769D01*
X306224Y117709D01*
X306131Y117651D01*
X306037Y117597D01*
X305940Y117547D01*
X305842Y117500D01*
X305742Y117457D01*
X305640Y117417D01*
X305537Y117381D01*
X305433Y117349D01*
X305328Y117321D01*
X305222Y117296D01*
X305115Y117276D01*
X305007Y117259D01*
X304899Y117246D01*
X304791Y117237D01*
X304682Y117232D01*
X304573Y117231D01*
X304464Y117234D01*
X304355Y117241D01*
X304247Y117252D01*
X304139Y117267D01*
X304031Y117285D01*
X303925Y117308D01*
X303819Y117334D01*
X303714Y117365D01*
X303611Y117399D01*
X303509Y117436D01*
X303408Y117478D01*
X303309Y117523D01*
X303211Y117572D01*
X303116Y117624D01*
X303022Y117680D01*
X302930Y117738D01*
X302841Y117801D01*
X302754Y117866D01*
X302669Y117935D01*
X302587Y118006D01*
X302508Y118081D01*
X302431Y118158D01*
X302357Y118238D01*
X302286Y118321D01*
X302219Y118407D01*
X302154Y118494D01*
X302092Y118584D01*
X302034Y118676D01*
X301980Y118770D01*
X301928Y118867D01*
X301880Y118965D01*
X301836Y119064D01*
X301796Y119165D01*
X301759Y119268D01*
X301726Y119372D01*
X301696Y119476D01*
X301671Y119582D01*
X301649Y119689D01*
X301632Y119797D01*
X301618Y119905D01*
X301608Y120013D01*
X301602Y120122D01*
X301600Y120231D01*
X301600Y130231D02*
X301602Y130340D01*
X301608Y130449D01*
X301618Y130557D01*
X301632Y130665D01*
X301649Y130773D01*
X301671Y130880D01*
X301696Y130986D01*
X301726Y131090D01*
X301759Y131194D01*
X301796Y131297D01*
X301836Y131398D01*
X301880Y131497D01*
X301928Y131595D01*
X301980Y131692D01*
X302034Y131786D01*
X302092Y131878D01*
X302154Y131968D01*
X302219Y132055D01*
X302286Y132141D01*
X302357Y132224D01*
X302431Y132304D01*
X302508Y132381D01*
X302587Y132456D01*
X302669Y132527D01*
X302754Y132596D01*
X302841Y132661D01*
X302930Y132724D01*
X303022Y132782D01*
X303116Y132838D01*
X303211Y132890D01*
X303309Y132939D01*
X303408Y132984D01*
X303509Y133026D01*
X303611Y133063D01*
X303714Y133097D01*
X303819Y133128D01*
X303925Y133154D01*
X304031Y133177D01*
X304139Y133195D01*
X304247Y133210D01*
X304355Y133221D01*
X304464Y133228D01*
X304573Y133231D01*
X304682Y133230D01*
X304791Y133225D01*
X304899Y133216D01*
X305007Y133203D01*
X305115Y133186D01*
X305222Y133166D01*
X305328Y133141D01*
X305433Y133113D01*
X305537Y133081D01*
X305640Y133045D01*
X305742Y133005D01*
X305842Y132962D01*
X305940Y132915D01*
X306037Y132865D01*
X306131Y132811D01*
X306224Y132753D01*
X306315Y132693D01*
X306403Y132629D01*
X306489Y132562D01*
X306572Y132492D01*
X306653Y132419D01*
X306731Y132343D01*
X306806Y132264D01*
X306879Y132182D01*
X306948Y132098D01*
X307014Y132012D01*
X307077Y131923D01*
X307137Y131832D01*
X307194Y131739D01*
X307247Y131644D01*
X307296Y131547D01*
X307342Y131448D01*
X307384Y131348D01*
X307423Y131246D01*
X307458Y131142D01*
X307489Y131038D01*
X307517Y130933D01*
X307540Y130826D01*
X307560Y130719D01*
X307576Y130611D01*
X307588Y130503D01*
X307596Y130394D01*
X307600Y130285D01*
X307600Y130177D01*
X307596Y130068D01*
X307588Y129959D01*
X307576Y129851D01*
X307560Y129743D01*
X307540Y129636D01*
X307517Y129529D01*
X307489Y129424D01*
X307458Y129320D01*
X307423Y129216D01*
X307384Y129114D01*
X307342Y129014D01*
X307296Y128915D01*
X307247Y128818D01*
X307194Y128723D01*
X307137Y128630D01*
X307077Y128539D01*
X307014Y128450D01*
X306948Y128364D01*
X306879Y128280D01*
X306806Y128198D01*
X306731Y128119D01*
X306653Y128043D01*
X306572Y127970D01*
X306489Y127900D01*
X306403Y127833D01*
X306315Y127769D01*
X306224Y127709D01*
X306131Y127651D01*
X306037Y127597D01*
X305940Y127547D01*
X305842Y127500D01*
X305742Y127457D01*
X305640Y127417D01*
X305537Y127381D01*
X305433Y127349D01*
X305328Y127321D01*
X305222Y127296D01*
X305115Y127276D01*
X305007Y127259D01*
X304899Y127246D01*
X304791Y127237D01*
X304682Y127232D01*
X304573Y127231D01*
X304464Y127234D01*
X304355Y127241D01*
X304247Y127252D01*
X304139Y127267D01*
X304031Y127285D01*
X303925Y127308D01*
X303819Y127334D01*
X303714Y127365D01*
X303611Y127399D01*
X303509Y127436D01*
X303408Y127478D01*
X303309Y127523D01*
X303211Y127572D01*
X303116Y127624D01*
X303022Y127680D01*
X302930Y127738D01*
X302841Y127801D01*
X302754Y127866D01*
X302669Y127935D01*
X302587Y128006D01*
X302508Y128081D01*
X302431Y128158D01*
X302357Y128238D01*
X302286Y128321D01*
X302219Y128407D01*
X302154Y128494D01*
X302092Y128584D01*
X302034Y128676D01*
X301980Y128770D01*
X301928Y128867D01*
X301880Y128965D01*
X301836Y129064D01*
X301796Y129165D01*
X301759Y129268D01*
X301726Y129372D01*
X301696Y129476D01*
X301671Y129582D01*
X301649Y129689D01*
X301632Y129797D01*
X301618Y129905D01*
X301608Y130013D01*
X301602Y130122D01*
X301600Y130231D01*
X301600Y140462D02*
X301602Y140571D01*
X301608Y140680D01*
X301618Y140788D01*
X301632Y140896D01*
X301649Y141004D01*
X301671Y141111D01*
X301696Y141217D01*
X301726Y141321D01*
X301759Y141425D01*
X301796Y141528D01*
X301836Y141629D01*
X301880Y141728D01*
X301928Y141826D01*
X301980Y141923D01*
X302034Y142017D01*
X302092Y142109D01*
X302154Y142199D01*
X302219Y142286D01*
X302286Y142372D01*
X302357Y142455D01*
X302431Y142535D01*
X302508Y142612D01*
X302587Y142687D01*
X302669Y142758D01*
X302754Y142827D01*
X302841Y142892D01*
X302930Y142955D01*
X303022Y143013D01*
X303116Y143069D01*
X303211Y143121D01*
X303309Y143170D01*
X303408Y143215D01*
X303509Y143257D01*
X303611Y143294D01*
X303714Y143328D01*
X303819Y143359D01*
X303925Y143385D01*
X304031Y143408D01*
X304139Y143426D01*
X304247Y143441D01*
X304355Y143452D01*
X304464Y143459D01*
X304573Y143462D01*
X304682Y143461D01*
X304791Y143456D01*
X304899Y143447D01*
X305007Y143434D01*
X305115Y143417D01*
X305222Y143397D01*
X305328Y143372D01*
X305433Y143344D01*
X305537Y143312D01*
X305640Y143276D01*
X305742Y143236D01*
X305842Y143193D01*
X305940Y143146D01*
X306037Y143096D01*
X306131Y143042D01*
X306224Y142984D01*
X306315Y142924D01*
X306403Y142860D01*
X306489Y142793D01*
X306572Y142723D01*
X306653Y142650D01*
X306731Y142574D01*
X306806Y142495D01*
X306879Y142413D01*
X306948Y142329D01*
X307014Y142243D01*
X307077Y142154D01*
X307137Y142063D01*
X307194Y141970D01*
X307247Y141875D01*
X307296Y141778D01*
X307342Y141679D01*
X307384Y141579D01*
X307423Y141477D01*
X307458Y141373D01*
X307489Y141269D01*
X307517Y141164D01*
X307540Y141057D01*
X307560Y140950D01*
X307576Y140842D01*
X307588Y140734D01*
X307596Y140625D01*
X307600Y140516D01*
X307600Y140408D01*
X307596Y140299D01*
X307588Y140190D01*
X307576Y140082D01*
X307560Y139974D01*
X307540Y139867D01*
X307517Y139760D01*
X307489Y139655D01*
X307458Y139551D01*
X307423Y139447D01*
X307384Y139345D01*
X307342Y139245D01*
X307296Y139146D01*
X307247Y139049D01*
X307194Y138954D01*
X307137Y138861D01*
X307077Y138770D01*
X307014Y138681D01*
X306948Y138595D01*
X306879Y138511D01*
X306806Y138429D01*
X306731Y138350D01*
X306653Y138274D01*
X306572Y138201D01*
X306489Y138131D01*
X306403Y138064D01*
X306315Y138000D01*
X306224Y137940D01*
X306131Y137882D01*
X306037Y137828D01*
X305940Y137778D01*
X305842Y137731D01*
X305742Y137688D01*
X305640Y137648D01*
X305537Y137612D01*
X305433Y137580D01*
X305328Y137552D01*
X305222Y137527D01*
X305115Y137507D01*
X305007Y137490D01*
X304899Y137477D01*
X304791Y137468D01*
X304682Y137463D01*
X304573Y137462D01*
X304464Y137465D01*
X304355Y137472D01*
X304247Y137483D01*
X304139Y137498D01*
X304031Y137516D01*
X303925Y137539D01*
X303819Y137565D01*
X303714Y137596D01*
X303611Y137630D01*
X303509Y137667D01*
X303408Y137709D01*
X303309Y137754D01*
X303211Y137803D01*
X303116Y137855D01*
X303022Y137911D01*
X302930Y137969D01*
X302841Y138032D01*
X302754Y138097D01*
X302669Y138166D01*
X302587Y138237D01*
X302508Y138312D01*
X302431Y138389D01*
X302357Y138469D01*
X302286Y138552D01*
X302219Y138638D01*
X302154Y138725D01*
X302092Y138815D01*
X302034Y138907D01*
X301980Y139001D01*
X301928Y139098D01*
X301880Y139196D01*
X301836Y139295D01*
X301796Y139396D01*
X301759Y139499D01*
X301726Y139603D01*
X301696Y139707D01*
X301671Y139813D01*
X301649Y139920D01*
X301632Y140028D01*
X301618Y140136D01*
X301608Y140244D01*
X301602Y140353D01*
X301600Y140462D01*
X301600Y60231D02*
X301602Y60340D01*
X301608Y60449D01*
X301618Y60557D01*
X301632Y60665D01*
X301649Y60773D01*
X301671Y60880D01*
X301696Y60986D01*
X301726Y61090D01*
X301759Y61194D01*
X301796Y61297D01*
X301836Y61398D01*
X301880Y61497D01*
X301928Y61595D01*
X301980Y61692D01*
X302034Y61786D01*
X302092Y61878D01*
X302154Y61968D01*
X302219Y62055D01*
X302286Y62141D01*
X302357Y62224D01*
X302431Y62304D01*
X302508Y62381D01*
X302587Y62456D01*
X302669Y62527D01*
X302754Y62596D01*
X302841Y62661D01*
X302930Y62724D01*
X303022Y62782D01*
X303116Y62838D01*
X303211Y62890D01*
X303309Y62939D01*
X303408Y62984D01*
X303509Y63026D01*
X303611Y63063D01*
X303714Y63097D01*
X303819Y63128D01*
X303925Y63154D01*
X304031Y63177D01*
X304139Y63195D01*
X304247Y63210D01*
X304355Y63221D01*
X304464Y63228D01*
X304573Y63231D01*
X304682Y63230D01*
X304791Y63225D01*
X304899Y63216D01*
X305007Y63203D01*
X305115Y63186D01*
X305222Y63166D01*
X305328Y63141D01*
X305433Y63113D01*
X305537Y63081D01*
X305640Y63045D01*
X305742Y63005D01*
X305842Y62962D01*
X305940Y62915D01*
X306037Y62865D01*
X306131Y62811D01*
X306224Y62753D01*
X306315Y62693D01*
X306403Y62629D01*
X306489Y62562D01*
X306572Y62492D01*
X306653Y62419D01*
X306731Y62343D01*
X306806Y62264D01*
X306879Y62182D01*
X306948Y62098D01*
X307014Y62012D01*
X307077Y61923D01*
X307137Y61832D01*
X307194Y61739D01*
X307247Y61644D01*
X307296Y61547D01*
X307342Y61448D01*
X307384Y61348D01*
X307423Y61246D01*
X307458Y61142D01*
X307489Y61038D01*
X307517Y60933D01*
X307540Y60826D01*
X307560Y60719D01*
X307576Y60611D01*
X307588Y60503D01*
X307596Y60394D01*
X307600Y60285D01*
X307600Y60177D01*
X307596Y60068D01*
X307588Y59959D01*
X307576Y59851D01*
X307560Y59743D01*
X307540Y59636D01*
X307517Y59529D01*
X307489Y59424D01*
X307458Y59320D01*
X307423Y59216D01*
X307384Y59114D01*
X307342Y59014D01*
X307296Y58915D01*
X307247Y58818D01*
X307194Y58723D01*
X307137Y58630D01*
X307077Y58539D01*
X307014Y58450D01*
X306948Y58364D01*
X306879Y58280D01*
X306806Y58198D01*
X306731Y58119D01*
X306653Y58043D01*
X306572Y57970D01*
X306489Y57900D01*
X306403Y57833D01*
X306315Y57769D01*
X306224Y57709D01*
X306131Y57651D01*
X306037Y57597D01*
X305940Y57547D01*
X305842Y57500D01*
X305742Y57457D01*
X305640Y57417D01*
X305537Y57381D01*
X305433Y57349D01*
X305328Y57321D01*
X305222Y57296D01*
X305115Y57276D01*
X305007Y57259D01*
X304899Y57246D01*
X304791Y57237D01*
X304682Y57232D01*
X304573Y57231D01*
X304464Y57234D01*
X304355Y57241D01*
X304247Y57252D01*
X304139Y57267D01*
X304031Y57285D01*
X303925Y57308D01*
X303819Y57334D01*
X303714Y57365D01*
X303611Y57399D01*
X303509Y57436D01*
X303408Y57478D01*
X303309Y57523D01*
X303211Y57572D01*
X303116Y57624D01*
X303022Y57680D01*
X302930Y57738D01*
X302841Y57801D01*
X302754Y57866D01*
X302669Y57935D01*
X302587Y58006D01*
X302508Y58081D01*
X302431Y58158D01*
X302357Y58238D01*
X302286Y58321D01*
X302219Y58407D01*
X302154Y58494D01*
X302092Y58584D01*
X302034Y58676D01*
X301980Y58770D01*
X301928Y58867D01*
X301880Y58965D01*
X301836Y59064D01*
X301796Y59165D01*
X301759Y59268D01*
X301726Y59372D01*
X301696Y59476D01*
X301671Y59582D01*
X301649Y59689D01*
X301632Y59797D01*
X301618Y59905D01*
X301608Y60013D01*
X301602Y60122D01*
X301600Y60231D01*
X301600Y50231D02*
X301602Y50340D01*
X301608Y50449D01*
X301618Y50557D01*
X301632Y50665D01*
X301649Y50773D01*
X301671Y50880D01*
X301696Y50986D01*
X301726Y51090D01*
X301759Y51194D01*
X301796Y51297D01*
X301836Y51398D01*
X301880Y51497D01*
X301928Y51595D01*
X301980Y51692D01*
X302034Y51786D01*
X302092Y51878D01*
X302154Y51968D01*
X302219Y52055D01*
X302286Y52141D01*
X302357Y52224D01*
X302431Y52304D01*
X302508Y52381D01*
X302587Y52456D01*
X302669Y52527D01*
X302754Y52596D01*
X302841Y52661D01*
X302930Y52724D01*
X303022Y52782D01*
X303116Y52838D01*
X303211Y52890D01*
X303309Y52939D01*
X303408Y52984D01*
X303509Y53026D01*
X303611Y53063D01*
X303714Y53097D01*
X303819Y53128D01*
X303925Y53154D01*
X304031Y53177D01*
X304139Y53195D01*
X304247Y53210D01*
X304355Y53221D01*
X304464Y53228D01*
X304573Y53231D01*
X304682Y53230D01*
X304791Y53225D01*
X304899Y53216D01*
X305007Y53203D01*
X305115Y53186D01*
X305222Y53166D01*
X305328Y53141D01*
X305433Y53113D01*
X305537Y53081D01*
X305640Y53045D01*
X305742Y53005D01*
X305842Y52962D01*
X305940Y52915D01*
X306037Y52865D01*
X306131Y52811D01*
X306224Y52753D01*
X306315Y52693D01*
X306403Y52629D01*
X306489Y52562D01*
X306572Y52492D01*
X306653Y52419D01*
X306731Y52343D01*
X306806Y52264D01*
X306879Y52182D01*
X306948Y52098D01*
X307014Y52012D01*
X307077Y51923D01*
X307137Y51832D01*
X307194Y51739D01*
X307247Y51644D01*
X307296Y51547D01*
X307342Y51448D01*
X307384Y51348D01*
X307423Y51246D01*
X307458Y51142D01*
X307489Y51038D01*
X307517Y50933D01*
X307540Y50826D01*
X307560Y50719D01*
X307576Y50611D01*
X307588Y50503D01*
X307596Y50394D01*
X307600Y50285D01*
X307600Y50177D01*
X307596Y50068D01*
X307588Y49959D01*
X307576Y49851D01*
X307560Y49743D01*
X307540Y49636D01*
X307517Y49529D01*
X307489Y49424D01*
X307458Y49320D01*
X307423Y49216D01*
X307384Y49114D01*
X307342Y49014D01*
X307296Y48915D01*
X307247Y48818D01*
X307194Y48723D01*
X307137Y48630D01*
X307077Y48539D01*
X307014Y48450D01*
X306948Y48364D01*
X306879Y48280D01*
X306806Y48198D01*
X306731Y48119D01*
X306653Y48043D01*
X306572Y47970D01*
X306489Y47900D01*
X306403Y47833D01*
X306315Y47769D01*
X306224Y47709D01*
X306131Y47651D01*
X306037Y47597D01*
X305940Y47547D01*
X305842Y47500D01*
X305742Y47457D01*
X305640Y47417D01*
X305537Y47381D01*
X305433Y47349D01*
X305328Y47321D01*
X305222Y47296D01*
X305115Y47276D01*
X305007Y47259D01*
X304899Y47246D01*
X304791Y47237D01*
X304682Y47232D01*
X304573Y47231D01*
X304464Y47234D01*
X304355Y47241D01*
X304247Y47252D01*
X304139Y47267D01*
X304031Y47285D01*
X303925Y47308D01*
X303819Y47334D01*
X303714Y47365D01*
X303611Y47399D01*
X303509Y47436D01*
X303408Y47478D01*
X303309Y47523D01*
X303211Y47572D01*
X303116Y47624D01*
X303022Y47680D01*
X302930Y47738D01*
X302841Y47801D01*
X302754Y47866D01*
X302669Y47935D01*
X302587Y48006D01*
X302508Y48081D01*
X302431Y48158D01*
X302357Y48238D01*
X302286Y48321D01*
X302219Y48407D01*
X302154Y48494D01*
X302092Y48584D01*
X302034Y48676D01*
X301980Y48770D01*
X301928Y48867D01*
X301880Y48965D01*
X301836Y49064D01*
X301796Y49165D01*
X301759Y49268D01*
X301726Y49372D01*
X301696Y49476D01*
X301671Y49582D01*
X301649Y49689D01*
X301632Y49797D01*
X301618Y49905D01*
X301608Y50013D01*
X301602Y50122D01*
X301600Y50231D01*
X301600Y40231D02*
X301602Y40340D01*
X301608Y40449D01*
X301618Y40557D01*
X301632Y40665D01*
X301649Y40773D01*
X301671Y40880D01*
X301696Y40986D01*
X301726Y41090D01*
X301759Y41194D01*
X301796Y41297D01*
X301836Y41398D01*
X301880Y41497D01*
X301928Y41595D01*
X301980Y41692D01*
X302034Y41786D01*
X302092Y41878D01*
X302154Y41968D01*
X302219Y42055D01*
X302286Y42141D01*
X302357Y42224D01*
X302431Y42304D01*
X302508Y42381D01*
X302587Y42456D01*
X302669Y42527D01*
X302754Y42596D01*
X302841Y42661D01*
X302930Y42724D01*
X303022Y42782D01*
X303116Y42838D01*
X303211Y42890D01*
X303309Y42939D01*
X303408Y42984D01*
X303509Y43026D01*
X303611Y43063D01*
X303714Y43097D01*
X303819Y43128D01*
X303925Y43154D01*
X304031Y43177D01*
X304139Y43195D01*
X304247Y43210D01*
X304355Y43221D01*
X304464Y43228D01*
X304573Y43231D01*
X304682Y43230D01*
X304791Y43225D01*
X304899Y43216D01*
X305007Y43203D01*
X305115Y43186D01*
X305222Y43166D01*
X305328Y43141D01*
X305433Y43113D01*
X305537Y43081D01*
X305640Y43045D01*
X305742Y43005D01*
X305842Y42962D01*
X305940Y42915D01*
X306037Y42865D01*
X306131Y42811D01*
X306224Y42753D01*
X306315Y42693D01*
X306403Y42629D01*
X306489Y42562D01*
X306572Y42492D01*
X306653Y42419D01*
X306731Y42343D01*
X306806Y42264D01*
X306879Y42182D01*
X306948Y42098D01*
X307014Y42012D01*
X307077Y41923D01*
X307137Y41832D01*
X307194Y41739D01*
X307247Y41644D01*
X307296Y41547D01*
X307342Y41448D01*
X307384Y41348D01*
X307423Y41246D01*
X307458Y41142D01*
X307489Y41038D01*
X307517Y40933D01*
X307540Y40826D01*
X307560Y40719D01*
X307576Y40611D01*
X307588Y40503D01*
X307596Y40394D01*
X307600Y40285D01*
X307600Y40177D01*
X307596Y40068D01*
X307588Y39959D01*
X307576Y39851D01*
X307560Y39743D01*
X307540Y39636D01*
X307517Y39529D01*
X307489Y39424D01*
X307458Y39320D01*
X307423Y39216D01*
X307384Y39114D01*
X307342Y39014D01*
X307296Y38915D01*
X307247Y38818D01*
X307194Y38723D01*
X307137Y38630D01*
X307077Y38539D01*
X307014Y38450D01*
X306948Y38364D01*
X306879Y38280D01*
X306806Y38198D01*
X306731Y38119D01*
X306653Y38043D01*
X306572Y37970D01*
X306489Y37900D01*
X306403Y37833D01*
X306315Y37769D01*
X306224Y37709D01*
X306131Y37651D01*
X306037Y37597D01*
X305940Y37547D01*
X305842Y37500D01*
X305742Y37457D01*
X305640Y37417D01*
X305537Y37381D01*
X305433Y37349D01*
X305328Y37321D01*
X305222Y37296D01*
X305115Y37276D01*
X305007Y37259D01*
X304899Y37246D01*
X304791Y37237D01*
X304682Y37232D01*
X304573Y37231D01*
X304464Y37234D01*
X304355Y37241D01*
X304247Y37252D01*
X304139Y37267D01*
X304031Y37285D01*
X303925Y37308D01*
X303819Y37334D01*
X303714Y37365D01*
X303611Y37399D01*
X303509Y37436D01*
X303408Y37478D01*
X303309Y37523D01*
X303211Y37572D01*
X303116Y37624D01*
X303022Y37680D01*
X302930Y37738D01*
X302841Y37801D01*
X302754Y37866D01*
X302669Y37935D01*
X302587Y38006D01*
X302508Y38081D01*
X302431Y38158D01*
X302357Y38238D01*
X302286Y38321D01*
X302219Y38407D01*
X302154Y38494D01*
X302092Y38584D01*
X302034Y38676D01*
X301980Y38770D01*
X301928Y38867D01*
X301880Y38965D01*
X301836Y39064D01*
X301796Y39165D01*
X301759Y39268D01*
X301726Y39372D01*
X301696Y39476D01*
X301671Y39582D01*
X301649Y39689D01*
X301632Y39797D01*
X301618Y39905D01*
X301608Y40013D01*
X301602Y40122D01*
X301600Y40231D01*
X301600Y30231D02*
X301602Y30340D01*
X301608Y30449D01*
X301618Y30557D01*
X301632Y30665D01*
X301649Y30773D01*
X301671Y30880D01*
X301696Y30986D01*
X301726Y31090D01*
X301759Y31194D01*
X301796Y31297D01*
X301836Y31398D01*
X301880Y31497D01*
X301928Y31595D01*
X301980Y31692D01*
X302034Y31786D01*
X302092Y31878D01*
X302154Y31968D01*
X302219Y32055D01*
X302286Y32141D01*
X302357Y32224D01*
X302431Y32304D01*
X302508Y32381D01*
X302587Y32456D01*
X302669Y32527D01*
X302754Y32596D01*
X302841Y32661D01*
X302930Y32724D01*
X303022Y32782D01*
X303116Y32838D01*
X303211Y32890D01*
X303309Y32939D01*
X303408Y32984D01*
X303509Y33026D01*
X303611Y33063D01*
X303714Y33097D01*
X303819Y33128D01*
X303925Y33154D01*
X304031Y33177D01*
X304139Y33195D01*
X304247Y33210D01*
X304355Y33221D01*
X304464Y33228D01*
X304573Y33231D01*
X304682Y33230D01*
X304791Y33225D01*
X304899Y33216D01*
X305007Y33203D01*
X305115Y33186D01*
X305222Y33166D01*
X305328Y33141D01*
X305433Y33113D01*
X305537Y33081D01*
X305640Y33045D01*
X305742Y33005D01*
X305842Y32962D01*
X305940Y32915D01*
X306037Y32865D01*
X306131Y32811D01*
X306224Y32753D01*
X306315Y32693D01*
X306403Y32629D01*
X306489Y32562D01*
X306572Y32492D01*
X306653Y32419D01*
X306731Y32343D01*
X306806Y32264D01*
X306879Y32182D01*
X306948Y32098D01*
X307014Y32012D01*
X307077Y31923D01*
X307137Y31832D01*
X307194Y31739D01*
X307247Y31644D01*
X307296Y31547D01*
X307342Y31448D01*
X307384Y31348D01*
X307423Y31246D01*
X307458Y31142D01*
X307489Y31038D01*
X307517Y30933D01*
X307540Y30826D01*
X307560Y30719D01*
X307576Y30611D01*
X307588Y30503D01*
X307596Y30394D01*
X307600Y30285D01*
X307600Y30177D01*
X307596Y30068D01*
X307588Y29959D01*
X307576Y29851D01*
X307560Y29743D01*
X307540Y29636D01*
X307517Y29529D01*
X307489Y29424D01*
X307458Y29320D01*
X307423Y29216D01*
X307384Y29114D01*
X307342Y29014D01*
X307296Y28915D01*
X307247Y28818D01*
X307194Y28723D01*
X307137Y28630D01*
X307077Y28539D01*
X307014Y28450D01*
X306948Y28364D01*
X306879Y28280D01*
X306806Y28198D01*
X306731Y28119D01*
X306653Y28043D01*
X306572Y27970D01*
X306489Y27900D01*
X306403Y27833D01*
X306315Y27769D01*
X306224Y27709D01*
X306131Y27651D01*
X306037Y27597D01*
X305940Y27547D01*
X305842Y27500D01*
X305742Y27457D01*
X305640Y27417D01*
X305537Y27381D01*
X305433Y27349D01*
X305328Y27321D01*
X305222Y27296D01*
X305115Y27276D01*
X305007Y27259D01*
X304899Y27246D01*
X304791Y27237D01*
X304682Y27232D01*
X304573Y27231D01*
X304464Y27234D01*
X304355Y27241D01*
X304247Y27252D01*
X304139Y27267D01*
X304031Y27285D01*
X303925Y27308D01*
X303819Y27334D01*
X303714Y27365D01*
X303611Y27399D01*
X303509Y27436D01*
X303408Y27478D01*
X303309Y27523D01*
X303211Y27572D01*
X303116Y27624D01*
X303022Y27680D01*
X302930Y27738D01*
X302841Y27801D01*
X302754Y27866D01*
X302669Y27935D01*
X302587Y28006D01*
X302508Y28081D01*
X302431Y28158D01*
X302357Y28238D01*
X302286Y28321D01*
X302219Y28407D01*
X302154Y28494D01*
X302092Y28584D01*
X302034Y28676D01*
X301980Y28770D01*
X301928Y28867D01*
X301880Y28965D01*
X301836Y29064D01*
X301796Y29165D01*
X301759Y29268D01*
X301726Y29372D01*
X301696Y29476D01*
X301671Y29582D01*
X301649Y29689D01*
X301632Y29797D01*
X301618Y29905D01*
X301608Y30013D01*
X301602Y30122D01*
X301600Y30231D01*
X301600Y20231D02*
X301602Y20340D01*
X301608Y20449D01*
X301618Y20557D01*
X301632Y20665D01*
X301649Y20773D01*
X301671Y20880D01*
X301696Y20986D01*
X301726Y21090D01*
X301759Y21194D01*
X301796Y21297D01*
X301836Y21398D01*
X301880Y21497D01*
X301928Y21595D01*
X301980Y21692D01*
X302034Y21786D01*
X302092Y21878D01*
X302154Y21968D01*
X302219Y22055D01*
X302286Y22141D01*
X302357Y22224D01*
X302431Y22304D01*
X302508Y22381D01*
X302587Y22456D01*
X302669Y22527D01*
X302754Y22596D01*
X302841Y22661D01*
X302930Y22724D01*
X303022Y22782D01*
X303116Y22838D01*
X303211Y22890D01*
X303309Y22939D01*
X303408Y22984D01*
X303509Y23026D01*
X303611Y23063D01*
X303714Y23097D01*
X303819Y23128D01*
X303925Y23154D01*
X304031Y23177D01*
X304139Y23195D01*
X304247Y23210D01*
X304355Y23221D01*
X304464Y23228D01*
X304573Y23231D01*
X304682Y23230D01*
X304791Y23225D01*
X304899Y23216D01*
X305007Y23203D01*
X305115Y23186D01*
X305222Y23166D01*
X305328Y23141D01*
X305433Y23113D01*
X305537Y23081D01*
X305640Y23045D01*
X305742Y23005D01*
X305842Y22962D01*
X305940Y22915D01*
X306037Y22865D01*
X306131Y22811D01*
X306224Y22753D01*
X306315Y22693D01*
X306403Y22629D01*
X306489Y22562D01*
X306572Y22492D01*
X306653Y22419D01*
X306731Y22343D01*
X306806Y22264D01*
X306879Y22182D01*
X306948Y22098D01*
X307014Y22012D01*
X307077Y21923D01*
X307137Y21832D01*
X307194Y21739D01*
X307247Y21644D01*
X307296Y21547D01*
X307342Y21448D01*
X307384Y21348D01*
X307423Y21246D01*
X307458Y21142D01*
X307489Y21038D01*
X307517Y20933D01*
X307540Y20826D01*
X307560Y20719D01*
X307576Y20611D01*
X307588Y20503D01*
X307596Y20394D01*
X307600Y20285D01*
X307600Y20177D01*
X307596Y20068D01*
X307588Y19959D01*
X307576Y19851D01*
X307560Y19743D01*
X307540Y19636D01*
X307517Y19529D01*
X307489Y19424D01*
X307458Y19320D01*
X307423Y19216D01*
X307384Y19114D01*
X307342Y19014D01*
X307296Y18915D01*
X307247Y18818D01*
X307194Y18723D01*
X307137Y18630D01*
X307077Y18539D01*
X307014Y18450D01*
X306948Y18364D01*
X306879Y18280D01*
X306806Y18198D01*
X306731Y18119D01*
X306653Y18043D01*
X306572Y17970D01*
X306489Y17900D01*
X306403Y17833D01*
X306315Y17769D01*
X306224Y17709D01*
X306131Y17651D01*
X306037Y17597D01*
X305940Y17547D01*
X305842Y17500D01*
X305742Y17457D01*
X305640Y17417D01*
X305537Y17381D01*
X305433Y17349D01*
X305328Y17321D01*
X305222Y17296D01*
X305115Y17276D01*
X305007Y17259D01*
X304899Y17246D01*
X304791Y17237D01*
X304682Y17232D01*
X304573Y17231D01*
X304464Y17234D01*
X304355Y17241D01*
X304247Y17252D01*
X304139Y17267D01*
X304031Y17285D01*
X303925Y17308D01*
X303819Y17334D01*
X303714Y17365D01*
X303611Y17399D01*
X303509Y17436D01*
X303408Y17478D01*
X303309Y17523D01*
X303211Y17572D01*
X303116Y17624D01*
X303022Y17680D01*
X302930Y17738D01*
X302841Y17801D01*
X302754Y17866D01*
X302669Y17935D01*
X302587Y18006D01*
X302508Y18081D01*
X302431Y18158D01*
X302357Y18238D01*
X302286Y18321D01*
X302219Y18407D01*
X302154Y18494D01*
X302092Y18584D01*
X302034Y18676D01*
X301980Y18770D01*
X301928Y18867D01*
X301880Y18965D01*
X301836Y19064D01*
X301796Y19165D01*
X301759Y19268D01*
X301726Y19372D01*
X301696Y19476D01*
X301671Y19582D01*
X301649Y19689D01*
X301632Y19797D01*
X301618Y19905D01*
X301608Y20013D01*
X301602Y20122D01*
X301600Y20231D01*
X301600Y10231D02*
X301602Y10340D01*
X301608Y10449D01*
X301618Y10557D01*
X301632Y10665D01*
X301649Y10773D01*
X301671Y10880D01*
X301696Y10986D01*
X301726Y11090D01*
X301759Y11194D01*
X301796Y11297D01*
X301836Y11398D01*
X301880Y11497D01*
X301928Y11595D01*
X301980Y11692D01*
X302034Y11786D01*
X302092Y11878D01*
X302154Y11968D01*
X302219Y12055D01*
X302286Y12141D01*
X302357Y12224D01*
X302431Y12304D01*
X302508Y12381D01*
X302587Y12456D01*
X302669Y12527D01*
X302754Y12596D01*
X302841Y12661D01*
X302930Y12724D01*
X303022Y12782D01*
X303116Y12838D01*
X303211Y12890D01*
X303309Y12939D01*
X303408Y12984D01*
X303509Y13026D01*
X303611Y13063D01*
X303714Y13097D01*
X303819Y13128D01*
X303925Y13154D01*
X304031Y13177D01*
X304139Y13195D01*
X304247Y13210D01*
X304355Y13221D01*
X304464Y13228D01*
X304573Y13231D01*
X304682Y13230D01*
X304791Y13225D01*
X304899Y13216D01*
X305007Y13203D01*
X305115Y13186D01*
X305222Y13166D01*
X305328Y13141D01*
X305433Y13113D01*
X305537Y13081D01*
X305640Y13045D01*
X305742Y13005D01*
X305842Y12962D01*
X305940Y12915D01*
X306037Y12865D01*
X306131Y12811D01*
X306224Y12753D01*
X306315Y12693D01*
X306403Y12629D01*
X306489Y12562D01*
X306572Y12492D01*
X306653Y12419D01*
X306731Y12343D01*
X306806Y12264D01*
X306879Y12182D01*
X306948Y12098D01*
X307014Y12012D01*
X307077Y11923D01*
X307137Y11832D01*
X307194Y11739D01*
X307247Y11644D01*
X307296Y11547D01*
X307342Y11448D01*
X307384Y11348D01*
X307423Y11246D01*
X307458Y11142D01*
X307489Y11038D01*
X307517Y10933D01*
X307540Y10826D01*
X307560Y10719D01*
X307576Y10611D01*
X307588Y10503D01*
X307596Y10394D01*
X307600Y10285D01*
X307600Y10177D01*
X307596Y10068D01*
X307588Y9959D01*
X307576Y9851D01*
X307560Y9743D01*
X307540Y9636D01*
X307517Y9529D01*
X307489Y9424D01*
X307458Y9320D01*
X307423Y9216D01*
X307384Y9114D01*
X307342Y9014D01*
X307296Y8915D01*
X307247Y8818D01*
X307194Y8723D01*
X307137Y8630D01*
X307077Y8539D01*
X307014Y8450D01*
X306948Y8364D01*
X306879Y8280D01*
X306806Y8198D01*
X306731Y8119D01*
X306653Y8043D01*
X306572Y7970D01*
X306489Y7900D01*
X306403Y7833D01*
X306315Y7769D01*
X306224Y7709D01*
X306131Y7651D01*
X306037Y7597D01*
X305940Y7547D01*
X305842Y7500D01*
X305742Y7457D01*
X305640Y7417D01*
X305537Y7381D01*
X305433Y7349D01*
X305328Y7321D01*
X305222Y7296D01*
X305115Y7276D01*
X305007Y7259D01*
X304899Y7246D01*
X304791Y7237D01*
X304682Y7232D01*
X304573Y7231D01*
X304464Y7234D01*
X304355Y7241D01*
X304247Y7252D01*
X304139Y7267D01*
X304031Y7285D01*
X303925Y7308D01*
X303819Y7334D01*
X303714Y7365D01*
X303611Y7399D01*
X303509Y7436D01*
X303408Y7478D01*
X303309Y7523D01*
X303211Y7572D01*
X303116Y7624D01*
X303022Y7680D01*
X302930Y7738D01*
X302841Y7801D01*
X302754Y7866D01*
X302669Y7935D01*
X302587Y8006D01*
X302508Y8081D01*
X302431Y8158D01*
X302357Y8238D01*
X302286Y8321D01*
X302219Y8407D01*
X302154Y8494D01*
X302092Y8584D01*
X302034Y8676D01*
X301980Y8770D01*
X301928Y8867D01*
X301880Y8965D01*
X301836Y9064D01*
X301796Y9165D01*
X301759Y9268D01*
X301726Y9372D01*
X301696Y9476D01*
X301671Y9582D01*
X301649Y9689D01*
X301632Y9797D01*
X301618Y9905D01*
X301608Y10013D01*
X301602Y10122D01*
X301600Y10231D01*
X301600Y0D02*
X301602Y109D01*
X301608Y218D01*
X301618Y326D01*
X301632Y434D01*
X301649Y542D01*
X301671Y649D01*
X301696Y755D01*
X301726Y859D01*
X301759Y963D01*
X301796Y1066D01*
X301836Y1167D01*
X301880Y1266D01*
X301928Y1364D01*
X301980Y1461D01*
X302034Y1555D01*
X302092Y1647D01*
X302154Y1737D01*
X302219Y1824D01*
X302286Y1910D01*
X302357Y1993D01*
X302431Y2073D01*
X302508Y2150D01*
X302587Y2225D01*
X302669Y2296D01*
X302754Y2365D01*
X302841Y2430D01*
X302930Y2493D01*
X303022Y2551D01*
X303116Y2607D01*
X303211Y2659D01*
X303309Y2708D01*
X303408Y2753D01*
X303509Y2795D01*
X303611Y2832D01*
X303714Y2866D01*
X303819Y2897D01*
X303925Y2923D01*
X304031Y2946D01*
X304139Y2964D01*
X304247Y2979D01*
X304355Y2990D01*
X304464Y2997D01*
X304573Y3000D01*
X304682Y2999D01*
X304791Y2994D01*
X304899Y2985D01*
X305007Y2972D01*
X305115Y2955D01*
X305222Y2935D01*
X305328Y2910D01*
X305433Y2882D01*
X305537Y2850D01*
X305640Y2814D01*
X305742Y2774D01*
X305842Y2731D01*
X305940Y2684D01*
X306037Y2634D01*
X306131Y2580D01*
X306224Y2522D01*
X306315Y2462D01*
X306403Y2398D01*
X306489Y2331D01*
X306572Y2261D01*
X306653Y2188D01*
X306731Y2112D01*
X306806Y2033D01*
X306879Y1951D01*
X306948Y1867D01*
X307014Y1781D01*
X307077Y1692D01*
X307137Y1601D01*
X307194Y1508D01*
X307247Y1413D01*
X307296Y1316D01*
X307342Y1217D01*
X307384Y1117D01*
X307423Y1015D01*
X307458Y911D01*
X307489Y807D01*
X307517Y702D01*
X307540Y595D01*
X307560Y488D01*
X307576Y380D01*
X307588Y272D01*
X307596Y163D01*
X307600Y54D01*
X307600Y-54D01*
X307596Y-163D01*
X307588Y-272D01*
X307576Y-380D01*
X307560Y-488D01*
X307540Y-595D01*
X307517Y-702D01*
X307489Y-807D01*
X307458Y-911D01*
X307423Y-1015D01*
X307384Y-1117D01*
X307342Y-1217D01*
X307296Y-1316D01*
X307247Y-1413D01*
X307194Y-1508D01*
X307137Y-1601D01*
X307077Y-1692D01*
X307014Y-1781D01*
X306948Y-1867D01*
X306879Y-1951D01*
X306806Y-2033D01*
X306731Y-2112D01*
X306653Y-2188D01*
X306572Y-2261D01*
X306489Y-2331D01*
X306403Y-2398D01*
X306315Y-2462D01*
X306224Y-2522D01*
X306131Y-2580D01*
X306037Y-2634D01*
X305940Y-2684D01*
X305842Y-2731D01*
X305742Y-2774D01*
X305640Y-2814D01*
X305537Y-2850D01*
X305433Y-2882D01*
X305328Y-2910D01*
X305222Y-2935D01*
X305115Y-2955D01*
X305007Y-2972D01*
X304899Y-2985D01*
X304791Y-2994D01*
X304682Y-2999D01*
X304573Y-3000D01*
X304464Y-2997D01*
X304355Y-2990D01*
X304247Y-2979D01*
X304139Y-2964D01*
X304031Y-2946D01*
X303925Y-2923D01*
X303819Y-2897D01*
X303714Y-2866D01*
X303611Y-2832D01*
X303509Y-2795D01*
X303408Y-2753D01*
X303309Y-2708D01*
X303211Y-2659D01*
X303116Y-2607D01*
X303022Y-2551D01*
X302930Y-2493D01*
X302841Y-2430D01*
X302754Y-2365D01*
X302669Y-2296D01*
X302587Y-2225D01*
X302508Y-2150D01*
X302431Y-2073D01*
X302357Y-1993D01*
X302286Y-1910D01*
X302219Y-1824D01*
X302154Y-1737D01*
X302092Y-1647D01*
X302034Y-1555D01*
X301980Y-1461D01*
X301928Y-1364D01*
X301880Y-1266D01*
X301836Y-1167D01*
X301796Y-1066D01*
X301759Y-963D01*
X301726Y-859D01*
X301696Y-755D01*
X301671Y-649D01*
X301649Y-542D01*
X301632Y-434D01*
X301618Y-326D01*
X301608Y-218D01*
X301602Y-109D01*
X301600Y0D01*
M02*
