M48
;GenerationSoftware,Autodesk,EAGLE,9.1.1*%
;CreationDate,2018-09-06T02:22:32Z*%
FMAT,2
ICI,OFF
METRIC,TZ,000.000
T5C0.305
T4C0.600
T3C0.813
T2C1.016
T1C3.000
%
G90
M71
T1
X2540Y7023
X33020Y7023
T2
X17094Y12548
T3
X26398Y1270
X24366Y1270
T4
X30460Y9023
X30460Y10023
X30460Y11023
X30460Y13023
X30460Y14046
X30460Y6023
X5100Y14046
X30460Y5023
X30460Y4023
X30460Y2023
X30460Y1023
X30460Y0
X30460Y3023
X5100Y7023
X5100Y8023
X5100Y9023
X5100Y10023
X5100Y11023
X5100Y12023
X5100Y13023
X30460Y12023
X5100Y6023
X5100Y5023
X5100Y4023
X5100Y3023
X5100Y2023
X5100Y1023
X5100Y0
X30460Y7023
X30460Y8023
T5
X20676Y9601
X20701Y8407
X9525Y7264
X14402Y10109
X13462Y12446
X10719Y12395
X18821Y12294
X18542Y3429
X11024Y6934
X9804Y8767
X12548Y6198
X11582Y7797
X8534Y7137
X12573Y10084
X13538Y3099
X16281Y1245
M30