G04 EAGLE Gerber RS-274X export*
G75*
%MOMM*%
%FSLAX34Y34*%
%LPD*%
%AMOC8*
5,1,8,0,0,1.08239X$1,22.5*%
G01*
%ADD10C,3.101600*%
%ADD11C,0.701600*%
%ADD12C,0.326897*%
%ADD13R,0.701600X1.451600*%
%ADD14R,1.301600X2.101600*%
%ADD15R,1.422400X1.422400*%
%ADD16C,1.422400*%
%ADD17R,1.371600X0.736600*%
%ADD18C,0.203200*%
%ADD19C,0.419859*%
%ADD20C,0.253006*%
%ADD21P,1.924489X8X112.500000*%


D10*
X25400Y70231D03*
X330200Y70231D03*
D11*
X51000Y70231D03*
X51000Y80231D03*
X51000Y90231D03*
X51000Y100231D03*
X51000Y110231D03*
X51000Y120231D03*
X51000Y130231D03*
X51000Y140462D03*
X51000Y60231D03*
X51000Y50231D03*
X51000Y40231D03*
X51000Y30231D03*
X51000Y20231D03*
X51000Y10231D03*
X51000Y0D03*
X304600Y70231D03*
X304600Y80231D03*
X304600Y90231D03*
X304600Y100231D03*
X304600Y110231D03*
X304600Y120231D03*
X304600Y130231D03*
X304600Y140462D03*
X304600Y60231D03*
X304600Y50231D03*
X304600Y40231D03*
X304600Y30231D03*
X304600Y20231D03*
X304600Y10231D03*
X304600Y0D03*
D12*
X178885Y8041D02*
X178885Y14679D01*
X178885Y8041D02*
X172247Y8041D01*
X172247Y14679D01*
X178885Y14679D01*
X178885Y11147D02*
X172247Y11147D01*
X172247Y14253D02*
X178885Y14253D01*
X178885Y23281D02*
X178885Y29919D01*
X178885Y23281D02*
X172247Y23281D01*
X172247Y29919D01*
X178885Y29919D01*
X178885Y26387D02*
X172247Y26387D01*
X172247Y29493D02*
X178885Y29493D01*
X195421Y127285D02*
X195421Y133923D01*
X202059Y133923D01*
X202059Y127285D01*
X195421Y127285D01*
X195421Y130391D02*
X202059Y130391D01*
X202059Y133497D02*
X195421Y133497D01*
X195421Y118683D02*
X195421Y112045D01*
X195421Y118683D02*
X202059Y118683D01*
X202059Y112045D01*
X195421Y112045D01*
X195421Y115151D02*
X202059Y115151D01*
X202059Y118257D02*
X195421Y118257D01*
D13*
X105360Y52000D03*
X115360Y52000D03*
X125360Y52000D03*
X135360Y52000D03*
D14*
X148360Y15250D03*
X92360Y15250D03*
D13*
X135820Y87670D03*
X125820Y87670D03*
X115820Y87670D03*
X105820Y87670D03*
D14*
X92820Y124420D03*
X148820Y124420D03*
D15*
X243656Y12700D03*
D16*
X263976Y12700D03*
D17*
X75430Y63290D03*
X75430Y71418D03*
X75430Y79546D03*
D18*
X75430Y80308D02*
X75430Y62782D01*
D19*
X78291Y94448D02*
X81459Y94448D01*
X81459Y91280D01*
X78291Y91280D01*
X78291Y94448D01*
X72569Y94448D02*
X69401Y94448D01*
X72569Y94448D02*
X72569Y91280D01*
X69401Y91280D01*
X69401Y94448D01*
X78361Y51542D02*
X81529Y51542D01*
X81529Y48374D01*
X78361Y48374D01*
X78361Y51542D01*
X72639Y51542D02*
X69471Y51542D01*
X72639Y51542D02*
X72639Y48374D01*
X69471Y48374D01*
X69471Y51542D01*
D20*
X194813Y85147D02*
X194813Y98133D01*
X196299Y98133D01*
X196299Y85147D01*
X194813Y85147D01*
X194813Y87550D02*
X196299Y87550D01*
X196299Y89953D02*
X194813Y89953D01*
X194813Y92356D02*
X196299Y92356D01*
X196299Y94759D02*
X194813Y94759D01*
X194813Y97162D02*
X196299Y97162D01*
X189813Y98133D02*
X189813Y85147D01*
X189813Y98133D02*
X191299Y98133D01*
X191299Y85147D01*
X189813Y85147D01*
X189813Y87550D02*
X191299Y87550D01*
X191299Y89953D02*
X189813Y89953D01*
X189813Y92356D02*
X191299Y92356D01*
X191299Y94759D02*
X189813Y94759D01*
X189813Y97162D02*
X191299Y97162D01*
X184813Y98133D02*
X184813Y85147D01*
X184813Y98133D02*
X186299Y98133D01*
X186299Y85147D01*
X184813Y85147D01*
X184813Y87550D02*
X186299Y87550D01*
X186299Y89953D02*
X184813Y89953D01*
X184813Y92356D02*
X186299Y92356D01*
X186299Y94759D02*
X184813Y94759D01*
X184813Y97162D02*
X186299Y97162D01*
X179813Y98133D02*
X179813Y85147D01*
X179813Y98133D02*
X181299Y98133D01*
X181299Y85147D01*
X179813Y85147D01*
X179813Y87550D02*
X181299Y87550D01*
X181299Y89953D02*
X179813Y89953D01*
X179813Y92356D02*
X181299Y92356D01*
X181299Y94759D02*
X179813Y94759D01*
X179813Y97162D02*
X181299Y97162D01*
X174813Y98133D02*
X174813Y85147D01*
X174813Y98133D02*
X176299Y98133D01*
X176299Y85147D01*
X174813Y85147D01*
X174813Y87550D02*
X176299Y87550D01*
X176299Y89953D02*
X174813Y89953D01*
X174813Y92356D02*
X176299Y92356D01*
X176299Y94759D02*
X174813Y94759D01*
X174813Y97162D02*
X176299Y97162D01*
X174813Y54133D02*
X174813Y41147D01*
X174813Y54133D02*
X176299Y54133D01*
X176299Y41147D01*
X174813Y41147D01*
X174813Y43550D02*
X176299Y43550D01*
X176299Y45953D02*
X174813Y45953D01*
X174813Y48356D02*
X176299Y48356D01*
X176299Y50759D02*
X174813Y50759D01*
X174813Y53162D02*
X176299Y53162D01*
X179813Y54133D02*
X179813Y41147D01*
X179813Y54133D02*
X181299Y54133D01*
X181299Y41147D01*
X179813Y41147D01*
X179813Y43550D02*
X181299Y43550D01*
X181299Y45953D02*
X179813Y45953D01*
X179813Y48356D02*
X181299Y48356D01*
X181299Y50759D02*
X179813Y50759D01*
X179813Y53162D02*
X181299Y53162D01*
X184813Y54133D02*
X184813Y41147D01*
X184813Y54133D02*
X186299Y54133D01*
X186299Y41147D01*
X184813Y41147D01*
X184813Y43550D02*
X186299Y43550D01*
X186299Y45953D02*
X184813Y45953D01*
X184813Y48356D02*
X186299Y48356D01*
X186299Y50759D02*
X184813Y50759D01*
X184813Y53162D02*
X186299Y53162D01*
X189813Y54133D02*
X189813Y41147D01*
X189813Y54133D02*
X191299Y54133D01*
X191299Y41147D01*
X189813Y41147D01*
X189813Y43550D02*
X191299Y43550D01*
X191299Y45953D02*
X189813Y45953D01*
X189813Y48356D02*
X191299Y48356D01*
X191299Y50759D02*
X189813Y50759D01*
X189813Y53162D02*
X191299Y53162D01*
X194813Y54133D02*
X194813Y41147D01*
X194813Y54133D02*
X196299Y54133D01*
X196299Y41147D01*
X194813Y41147D01*
X194813Y43550D02*
X196299Y43550D01*
X196299Y45953D02*
X194813Y45953D01*
X194813Y48356D02*
X196299Y48356D01*
X196299Y50759D02*
X194813Y50759D01*
X194813Y53162D02*
X196299Y53162D01*
D21*
X170942Y125476D03*
M02*
