G04 EAGLE Gerber RS-274X export*
G75*
%MOMM*%
%FSLAX34Y34*%
%LPD*%
%AMOC8*
5,1,8,0,0,1.08239X$1,22.5*%
G01*
%ADD10C,0.254000*%
%ADD11C,0.101600*%
%ADD12C,0.152400*%
%ADD13C,0.177800*%
%ADD14C,0.076200*%
%ADD15C,0.127000*%
%ADD16C,0.400000*%
%ADD17C,0.200000*%


D10*
X229072Y94384D02*
X229072Y101163D01*
X230767Y101163D01*
X232462Y99468D01*
X232462Y94384D01*
X232462Y99468D02*
X234156Y101163D01*
X235851Y99468D01*
X235851Y94384D01*
X242461Y94384D02*
X245850Y94384D01*
X247545Y96079D01*
X247545Y99468D01*
X245850Y101163D01*
X242461Y101163D01*
X240766Y99468D01*
X240766Y96079D01*
X242461Y94384D01*
X254155Y96079D02*
X254155Y102858D01*
X254155Y96079D02*
X255850Y94384D01*
X255850Y101163D02*
X252460Y101163D01*
X261951Y94384D02*
X265340Y94384D01*
X267035Y96079D01*
X267035Y99468D01*
X265340Y101163D01*
X261951Y101163D01*
X260256Y99468D01*
X260256Y96079D01*
X261951Y94384D01*
X271950Y94384D02*
X271950Y101163D01*
X271950Y97774D02*
X275339Y101163D01*
X277034Y101163D01*
D11*
X102694Y73961D02*
X102694Y67859D01*
X102694Y73961D02*
X104219Y75486D01*
X107270Y75486D01*
X108795Y73961D01*
X108795Y67859D01*
X107270Y66334D01*
X104219Y66334D01*
X102694Y67859D01*
X105745Y69385D02*
X108795Y66334D01*
X112049Y67859D02*
X112049Y72435D01*
X112049Y67859D02*
X113574Y66334D01*
X115100Y67859D01*
X116625Y66334D01*
X118150Y67859D01*
X118150Y72435D01*
X121404Y72435D02*
X122930Y72435D01*
X122930Y66334D01*
X124455Y66334D02*
X121404Y66334D01*
X122930Y75486D02*
X122930Y77011D01*
X127641Y72435D02*
X129166Y72435D01*
X129166Y66334D01*
X127641Y66334D02*
X130692Y66334D01*
X129166Y75486D02*
X129166Y77011D01*
X135403Y72435D02*
X139979Y72435D01*
X135403Y72435D02*
X133878Y70910D01*
X133878Y67859D01*
X135403Y66334D01*
X139979Y66334D01*
D12*
X212800Y98000D02*
X212812Y98982D01*
X212848Y99963D01*
X212908Y100943D01*
X212993Y101921D01*
X213101Y102896D01*
X213233Y103869D01*
X213389Y104838D01*
X213569Y105804D01*
X213772Y106764D01*
X213999Y107719D01*
X214249Y108669D01*
X214522Y109611D01*
X214819Y110547D01*
X215138Y111476D01*
X215480Y112396D01*
X215845Y113307D01*
X216232Y114210D01*
X216640Y115102D01*
X217071Y115984D01*
X217523Y116856D01*
X217997Y117716D01*
X218491Y118564D01*
X219006Y119400D01*
X219541Y120223D01*
X220097Y121032D01*
X220672Y121828D01*
X221266Y122609D01*
X221880Y123376D01*
X222512Y124127D01*
X223162Y124862D01*
X223830Y125582D01*
X224516Y126284D01*
X225218Y126970D01*
X225938Y127638D01*
X226673Y128288D01*
X227424Y128920D01*
X228191Y129534D01*
X228972Y130128D01*
X229768Y130703D01*
X230577Y131259D01*
X231400Y131794D01*
X232236Y132309D01*
X233084Y132803D01*
X233944Y133277D01*
X234816Y133729D01*
X235698Y134160D01*
X236590Y134568D01*
X237493Y134955D01*
X238404Y135320D01*
X239324Y135662D01*
X240253Y135981D01*
X241189Y136278D01*
X242131Y136551D01*
X243081Y136801D01*
X244036Y137028D01*
X244996Y137231D01*
X245962Y137411D01*
X246931Y137567D01*
X247904Y137699D01*
X248879Y137807D01*
X249857Y137892D01*
X250837Y137952D01*
X251818Y137988D01*
X252800Y138000D01*
X253782Y137988D01*
X254763Y137952D01*
X255743Y137892D01*
X256721Y137807D01*
X257696Y137699D01*
X258669Y137567D01*
X259638Y137411D01*
X260604Y137231D01*
X261564Y137028D01*
X262519Y136801D01*
X263469Y136551D01*
X264411Y136278D01*
X265347Y135981D01*
X266276Y135662D01*
X267196Y135320D01*
X268107Y134955D01*
X269010Y134568D01*
X269902Y134160D01*
X270784Y133729D01*
X271656Y133277D01*
X272516Y132803D01*
X273364Y132309D01*
X274200Y131794D01*
X275023Y131259D01*
X275832Y130703D01*
X276628Y130128D01*
X277409Y129534D01*
X278176Y128920D01*
X278927Y128288D01*
X279662Y127638D01*
X280382Y126970D01*
X281084Y126284D01*
X281770Y125582D01*
X282438Y124862D01*
X283088Y124127D01*
X283720Y123376D01*
X284334Y122609D01*
X284928Y121828D01*
X285503Y121032D01*
X286059Y120223D01*
X286594Y119400D01*
X287109Y118564D01*
X287603Y117716D01*
X288077Y116856D01*
X288529Y115984D01*
X288960Y115102D01*
X289368Y114210D01*
X289755Y113307D01*
X290120Y112396D01*
X290462Y111476D01*
X290781Y110547D01*
X291078Y109611D01*
X291351Y108669D01*
X291601Y107719D01*
X291828Y106764D01*
X292031Y105804D01*
X292211Y104838D01*
X292367Y103869D01*
X292499Y102896D01*
X292607Y101921D01*
X292692Y100943D01*
X292752Y99963D01*
X292788Y98982D01*
X292800Y98000D01*
X292788Y97018D01*
X292752Y96037D01*
X292692Y95057D01*
X292607Y94079D01*
X292499Y93104D01*
X292367Y92131D01*
X292211Y91162D01*
X292031Y90196D01*
X291828Y89236D01*
X291601Y88281D01*
X291351Y87331D01*
X291078Y86389D01*
X290781Y85453D01*
X290462Y84524D01*
X290120Y83604D01*
X289755Y82693D01*
X289368Y81790D01*
X288960Y80898D01*
X288529Y80016D01*
X288077Y79144D01*
X287603Y78284D01*
X287109Y77436D01*
X286594Y76600D01*
X286059Y75777D01*
X285503Y74968D01*
X284928Y74172D01*
X284334Y73391D01*
X283720Y72624D01*
X283088Y71873D01*
X282438Y71138D01*
X281770Y70418D01*
X281084Y69716D01*
X280382Y69030D01*
X279662Y68362D01*
X278927Y67712D01*
X278176Y67080D01*
X277409Y66466D01*
X276628Y65872D01*
X275832Y65297D01*
X275023Y64741D01*
X274200Y64206D01*
X273364Y63691D01*
X272516Y63197D01*
X271656Y62723D01*
X270784Y62271D01*
X269902Y61840D01*
X269010Y61432D01*
X268107Y61045D01*
X267196Y60680D01*
X266276Y60338D01*
X265347Y60019D01*
X264411Y59722D01*
X263469Y59449D01*
X262519Y59199D01*
X261564Y58972D01*
X260604Y58769D01*
X259638Y58589D01*
X258669Y58433D01*
X257696Y58301D01*
X256721Y58193D01*
X255743Y58108D01*
X254763Y58048D01*
X253782Y58012D01*
X252800Y58000D01*
X251818Y58012D01*
X250837Y58048D01*
X249857Y58108D01*
X248879Y58193D01*
X247904Y58301D01*
X246931Y58433D01*
X245962Y58589D01*
X244996Y58769D01*
X244036Y58972D01*
X243081Y59199D01*
X242131Y59449D01*
X241189Y59722D01*
X240253Y60019D01*
X239324Y60338D01*
X238404Y60680D01*
X237493Y61045D01*
X236590Y61432D01*
X235698Y61840D01*
X234816Y62271D01*
X233944Y62723D01*
X233084Y63197D01*
X232236Y63691D01*
X231400Y64206D01*
X230577Y64741D01*
X229768Y65297D01*
X228972Y65872D01*
X228191Y66466D01*
X227424Y67080D01*
X226673Y67712D01*
X225938Y68362D01*
X225218Y69030D01*
X224516Y69716D01*
X223830Y70418D01*
X223162Y71138D01*
X222512Y71873D01*
X221880Y72624D01*
X221266Y73391D01*
X220672Y74172D01*
X220097Y74968D01*
X219541Y75777D01*
X219006Y76600D01*
X218491Y77436D01*
X217997Y78284D01*
X217523Y79144D01*
X217071Y80016D01*
X216640Y80898D01*
X216232Y81790D01*
X215845Y82693D01*
X215480Y83604D01*
X215138Y84524D01*
X214819Y85453D01*
X214522Y86389D01*
X214249Y87331D01*
X213999Y88281D01*
X213772Y89236D01*
X213569Y90196D01*
X213389Y91162D01*
X213233Y92131D01*
X213101Y93104D01*
X212993Y94079D01*
X212908Y95057D01*
X212848Y96037D01*
X212812Y97018D01*
X212800Y98000D01*
X240300Y59944D02*
X240300Y40000D01*
X265300Y40000D01*
X265300Y59944D01*
D13*
X269630Y30995D02*
X258953Y30995D01*
X264292Y36333D02*
X264292Y25656D01*
X249310Y30995D02*
X238633Y30995D01*
D14*
X89494Y82169D02*
X88265Y80940D01*
X88265Y79712D01*
X89494Y78483D01*
X95637Y78483D01*
X95637Y79712D02*
X95637Y77254D01*
X95637Y74685D02*
X88265Y74685D01*
X95637Y74685D02*
X95637Y70999D01*
X94409Y69770D01*
X91951Y69770D01*
X90722Y70999D01*
X90722Y74685D01*
X93180Y67201D02*
X95637Y64743D01*
X88265Y64743D01*
X88265Y62286D02*
X88265Y67201D01*
X163449Y102997D02*
X165906Y102997D01*
X164678Y102997D02*
X164678Y110369D01*
X165906Y110369D02*
X163449Y110369D01*
X168438Y110369D02*
X168438Y102997D01*
X173353Y102997D02*
X168438Y110369D01*
X173353Y110369D02*
X173353Y102997D01*
X178380Y102997D02*
X178380Y110369D01*
X175923Y110369D02*
X180837Y110369D01*
D15*
X169216Y32950D02*
X169216Y5010D01*
X169216Y32950D02*
X181916Y32950D01*
X181916Y5010D01*
X169216Y5010D01*
X205090Y109014D02*
X205090Y136954D01*
X205090Y109014D02*
X192390Y109014D01*
X192390Y136954D01*
X205090Y136954D01*
D16*
X93946Y55000D02*
X93948Y55075D01*
X93954Y55149D01*
X93964Y55223D01*
X93977Y55296D01*
X93995Y55369D01*
X94016Y55440D01*
X94041Y55511D01*
X94070Y55580D01*
X94103Y55647D01*
X94139Y55712D01*
X94178Y55776D01*
X94220Y55837D01*
X94266Y55896D01*
X94315Y55953D01*
X94367Y56006D01*
X94421Y56057D01*
X94478Y56106D01*
X94538Y56150D01*
X94600Y56192D01*
X94664Y56231D01*
X94730Y56266D01*
X94797Y56297D01*
X94867Y56325D01*
X94937Y56349D01*
X95009Y56370D01*
X95082Y56386D01*
X95155Y56399D01*
X95230Y56408D01*
X95304Y56413D01*
X95379Y56414D01*
X95453Y56411D01*
X95528Y56404D01*
X95601Y56393D01*
X95675Y56379D01*
X95747Y56360D01*
X95818Y56338D01*
X95888Y56312D01*
X95957Y56282D01*
X96023Y56249D01*
X96088Y56212D01*
X96151Y56172D01*
X96212Y56128D01*
X96270Y56082D01*
X96326Y56032D01*
X96379Y55980D01*
X96430Y55925D01*
X96477Y55867D01*
X96521Y55807D01*
X96562Y55744D01*
X96600Y55680D01*
X96634Y55614D01*
X96665Y55545D01*
X96692Y55476D01*
X96715Y55405D01*
X96734Y55333D01*
X96750Y55260D01*
X96762Y55186D01*
X96770Y55112D01*
X96774Y55037D01*
X96774Y54963D01*
X96770Y54888D01*
X96762Y54814D01*
X96750Y54740D01*
X96734Y54667D01*
X96715Y54595D01*
X96692Y54524D01*
X96665Y54455D01*
X96634Y54386D01*
X96600Y54320D01*
X96562Y54256D01*
X96521Y54193D01*
X96477Y54133D01*
X96430Y54075D01*
X96379Y54020D01*
X96326Y53968D01*
X96270Y53918D01*
X96212Y53872D01*
X96151Y53828D01*
X96088Y53788D01*
X96023Y53751D01*
X95957Y53718D01*
X95888Y53688D01*
X95818Y53662D01*
X95747Y53640D01*
X95675Y53621D01*
X95601Y53607D01*
X95528Y53596D01*
X95453Y53589D01*
X95379Y53586D01*
X95304Y53587D01*
X95230Y53592D01*
X95155Y53601D01*
X95082Y53614D01*
X95009Y53630D01*
X94937Y53651D01*
X94867Y53675D01*
X94797Y53703D01*
X94730Y53734D01*
X94664Y53769D01*
X94600Y53808D01*
X94538Y53850D01*
X94478Y53894D01*
X94421Y53943D01*
X94367Y53994D01*
X94315Y54047D01*
X94266Y54104D01*
X94220Y54163D01*
X94178Y54224D01*
X94139Y54288D01*
X94103Y54353D01*
X94070Y54420D01*
X94041Y54489D01*
X94016Y54560D01*
X93995Y54631D01*
X93977Y54704D01*
X93964Y54777D01*
X93954Y54851D01*
X93948Y54925D01*
X93946Y55000D01*
D10*
X105360Y6000D02*
X135360Y6000D01*
X90360Y32000D02*
X90360Y48500D01*
X142860Y48500D02*
X150360Y48500D01*
X150360Y32000D01*
X97860Y48500D02*
X90360Y48500D01*
D16*
X144406Y84670D02*
X144408Y84745D01*
X144414Y84819D01*
X144424Y84893D01*
X144437Y84966D01*
X144455Y85039D01*
X144476Y85110D01*
X144501Y85181D01*
X144530Y85250D01*
X144563Y85317D01*
X144599Y85382D01*
X144638Y85446D01*
X144680Y85507D01*
X144726Y85566D01*
X144775Y85623D01*
X144827Y85676D01*
X144881Y85727D01*
X144938Y85776D01*
X144998Y85820D01*
X145060Y85862D01*
X145124Y85901D01*
X145190Y85936D01*
X145257Y85967D01*
X145327Y85995D01*
X145397Y86019D01*
X145469Y86040D01*
X145542Y86056D01*
X145615Y86069D01*
X145690Y86078D01*
X145764Y86083D01*
X145839Y86084D01*
X145913Y86081D01*
X145988Y86074D01*
X146061Y86063D01*
X146135Y86049D01*
X146207Y86030D01*
X146278Y86008D01*
X146348Y85982D01*
X146417Y85952D01*
X146483Y85919D01*
X146548Y85882D01*
X146611Y85842D01*
X146672Y85798D01*
X146730Y85752D01*
X146786Y85702D01*
X146839Y85650D01*
X146890Y85595D01*
X146937Y85537D01*
X146981Y85477D01*
X147022Y85414D01*
X147060Y85350D01*
X147094Y85284D01*
X147125Y85215D01*
X147152Y85146D01*
X147175Y85075D01*
X147194Y85003D01*
X147210Y84930D01*
X147222Y84856D01*
X147230Y84782D01*
X147234Y84707D01*
X147234Y84633D01*
X147230Y84558D01*
X147222Y84484D01*
X147210Y84410D01*
X147194Y84337D01*
X147175Y84265D01*
X147152Y84194D01*
X147125Y84125D01*
X147094Y84056D01*
X147060Y83990D01*
X147022Y83926D01*
X146981Y83863D01*
X146937Y83803D01*
X146890Y83745D01*
X146839Y83690D01*
X146786Y83638D01*
X146730Y83588D01*
X146672Y83542D01*
X146611Y83498D01*
X146548Y83458D01*
X146483Y83421D01*
X146417Y83388D01*
X146348Y83358D01*
X146278Y83332D01*
X146207Y83310D01*
X146135Y83291D01*
X146061Y83277D01*
X145988Y83266D01*
X145913Y83259D01*
X145839Y83256D01*
X145764Y83257D01*
X145690Y83262D01*
X145615Y83271D01*
X145542Y83284D01*
X145469Y83300D01*
X145397Y83321D01*
X145327Y83345D01*
X145257Y83373D01*
X145190Y83404D01*
X145124Y83439D01*
X145060Y83478D01*
X144998Y83520D01*
X144938Y83564D01*
X144881Y83613D01*
X144827Y83664D01*
X144775Y83717D01*
X144726Y83774D01*
X144680Y83833D01*
X144638Y83894D01*
X144599Y83958D01*
X144563Y84023D01*
X144530Y84090D01*
X144501Y84159D01*
X144476Y84230D01*
X144455Y84301D01*
X144437Y84374D01*
X144424Y84447D01*
X144414Y84521D01*
X144408Y84595D01*
X144406Y84670D01*
D10*
X135820Y133670D02*
X105820Y133670D01*
X150820Y107670D02*
X150820Y91170D01*
X98320Y91170D02*
X90820Y91170D01*
X90820Y107670D01*
X143320Y91170D02*
X150820Y91170D01*
D15*
X233496Y22860D02*
X274136Y22860D01*
X274136Y2540D01*
X233496Y2540D01*
X233496Y22860D01*
D12*
X85590Y58718D02*
X85590Y84118D01*
X67810Y86658D02*
X67710Y86656D01*
X67611Y86650D01*
X67511Y86640D01*
X67413Y86627D01*
X67314Y86609D01*
X67217Y86588D01*
X67121Y86563D01*
X67025Y86534D01*
X66931Y86501D01*
X66838Y86465D01*
X66747Y86425D01*
X66657Y86381D01*
X66569Y86334D01*
X66483Y86284D01*
X66399Y86230D01*
X66317Y86173D01*
X66238Y86113D01*
X66160Y86049D01*
X66086Y85983D01*
X66014Y85914D01*
X65945Y85842D01*
X65879Y85768D01*
X65815Y85690D01*
X65755Y85611D01*
X65698Y85529D01*
X65644Y85445D01*
X65594Y85359D01*
X65547Y85271D01*
X65503Y85181D01*
X65463Y85090D01*
X65427Y84997D01*
X65394Y84903D01*
X65365Y84807D01*
X65340Y84711D01*
X65319Y84614D01*
X65301Y84515D01*
X65288Y84417D01*
X65278Y84317D01*
X65272Y84218D01*
X65270Y84118D01*
X65270Y58718D02*
X65272Y58618D01*
X65278Y58519D01*
X65288Y58419D01*
X65301Y58321D01*
X65319Y58222D01*
X65340Y58125D01*
X65365Y58029D01*
X65394Y57933D01*
X65427Y57839D01*
X65463Y57746D01*
X65503Y57655D01*
X65547Y57565D01*
X65594Y57477D01*
X65644Y57391D01*
X65698Y57307D01*
X65755Y57225D01*
X65815Y57146D01*
X65879Y57068D01*
X65945Y56994D01*
X66014Y56922D01*
X66086Y56853D01*
X66160Y56787D01*
X66238Y56723D01*
X66317Y56663D01*
X66399Y56606D01*
X66483Y56552D01*
X66569Y56502D01*
X66657Y56455D01*
X66747Y56411D01*
X66838Y56371D01*
X66931Y56335D01*
X67025Y56302D01*
X67121Y56273D01*
X67217Y56248D01*
X67314Y56227D01*
X67413Y56209D01*
X67511Y56196D01*
X67611Y56186D01*
X67710Y56180D01*
X67810Y56178D01*
X83050Y56178D02*
X83150Y56180D01*
X83249Y56186D01*
X83349Y56196D01*
X83447Y56209D01*
X83546Y56227D01*
X83643Y56248D01*
X83739Y56273D01*
X83835Y56302D01*
X83929Y56335D01*
X84022Y56371D01*
X84113Y56411D01*
X84203Y56455D01*
X84291Y56502D01*
X84377Y56552D01*
X84461Y56606D01*
X84543Y56663D01*
X84622Y56723D01*
X84700Y56787D01*
X84774Y56853D01*
X84846Y56922D01*
X84915Y56994D01*
X84981Y57068D01*
X85045Y57146D01*
X85105Y57225D01*
X85162Y57307D01*
X85216Y57391D01*
X85266Y57477D01*
X85313Y57565D01*
X85357Y57655D01*
X85397Y57746D01*
X85433Y57839D01*
X85466Y57933D01*
X85495Y58029D01*
X85520Y58125D01*
X85541Y58222D01*
X85559Y58321D01*
X85572Y58419D01*
X85582Y58519D01*
X85588Y58618D01*
X85590Y58718D01*
X85590Y84118D02*
X85588Y84218D01*
X85582Y84317D01*
X85572Y84417D01*
X85559Y84515D01*
X85541Y84614D01*
X85520Y84711D01*
X85495Y84807D01*
X85466Y84903D01*
X85433Y84997D01*
X85397Y85090D01*
X85357Y85181D01*
X85313Y85271D01*
X85266Y85359D01*
X85216Y85445D01*
X85162Y85529D01*
X85105Y85611D01*
X85045Y85690D01*
X84981Y85768D01*
X84915Y85842D01*
X84846Y85914D01*
X84774Y85983D01*
X84700Y86049D01*
X84622Y86113D01*
X84543Y86173D01*
X84461Y86230D01*
X84377Y86284D01*
X84291Y86334D01*
X84203Y86381D01*
X84113Y86425D01*
X84022Y86465D01*
X83929Y86501D01*
X83835Y86534D01*
X83739Y86563D01*
X83643Y86588D01*
X83546Y86609D01*
X83447Y86627D01*
X83349Y86640D01*
X83249Y86650D01*
X83150Y86656D01*
X83050Y86658D01*
X67810Y86658D01*
X67810Y56178D02*
X83050Y56178D01*
X65270Y58718D02*
X65270Y84118D01*
D14*
X83050Y97309D02*
X83119Y97307D01*
X83187Y97302D01*
X83255Y97292D01*
X83323Y97279D01*
X83390Y97263D01*
X83456Y97243D01*
X83520Y97219D01*
X83583Y97192D01*
X83645Y97161D01*
X83705Y97127D01*
X83763Y97090D01*
X83819Y97050D01*
X83872Y97007D01*
X83923Y96961D01*
X83972Y96912D01*
X84018Y96861D01*
X84061Y96808D01*
X84101Y96752D01*
X84138Y96694D01*
X84172Y96634D01*
X84203Y96572D01*
X84230Y96509D01*
X84254Y96445D01*
X84274Y96379D01*
X84290Y96312D01*
X84303Y96244D01*
X84313Y96176D01*
X84318Y96108D01*
X84320Y96039D01*
X84320Y89689D01*
X84318Y89620D01*
X84313Y89552D01*
X84303Y89484D01*
X84290Y89416D01*
X84274Y89349D01*
X84254Y89283D01*
X84230Y89219D01*
X84203Y89156D01*
X84172Y89094D01*
X84138Y89034D01*
X84101Y88976D01*
X84061Y88920D01*
X84018Y88867D01*
X83972Y88816D01*
X83923Y88767D01*
X83872Y88721D01*
X83819Y88678D01*
X83763Y88638D01*
X83705Y88601D01*
X83645Y88567D01*
X83583Y88536D01*
X83520Y88509D01*
X83456Y88485D01*
X83390Y88465D01*
X83323Y88449D01*
X83255Y88436D01*
X83187Y88426D01*
X83119Y88421D01*
X83050Y88419D01*
X67810Y88419D01*
X67741Y88421D01*
X67673Y88426D01*
X67605Y88436D01*
X67537Y88449D01*
X67470Y88465D01*
X67404Y88485D01*
X67340Y88509D01*
X67277Y88536D01*
X67215Y88567D01*
X67155Y88601D01*
X67097Y88638D01*
X67041Y88678D01*
X66988Y88721D01*
X66937Y88767D01*
X66888Y88816D01*
X66842Y88867D01*
X66799Y88920D01*
X66759Y88976D01*
X66722Y89034D01*
X66688Y89094D01*
X66657Y89156D01*
X66630Y89219D01*
X66606Y89283D01*
X66586Y89349D01*
X66570Y89416D01*
X66557Y89484D01*
X66547Y89552D01*
X66542Y89620D01*
X66540Y89689D01*
X66540Y96039D01*
X66542Y96108D01*
X66547Y96176D01*
X66557Y96244D01*
X66570Y96312D01*
X66586Y96379D01*
X66606Y96445D01*
X66630Y96509D01*
X66657Y96572D01*
X66688Y96634D01*
X66722Y96694D01*
X66759Y96752D01*
X66799Y96808D01*
X66842Y96861D01*
X66888Y96912D01*
X66937Y96961D01*
X66988Y97007D01*
X67041Y97050D01*
X67097Y97090D01*
X67155Y97127D01*
X67215Y97161D01*
X67277Y97192D01*
X67340Y97219D01*
X67404Y97243D01*
X67470Y97263D01*
X67537Y97279D01*
X67605Y97292D01*
X67673Y97302D01*
X67741Y97307D01*
X67810Y97309D01*
X83050Y97309D01*
X83120Y54403D02*
X83189Y54401D01*
X83257Y54396D01*
X83325Y54386D01*
X83393Y54373D01*
X83460Y54357D01*
X83526Y54337D01*
X83590Y54313D01*
X83653Y54286D01*
X83715Y54255D01*
X83775Y54221D01*
X83833Y54184D01*
X83889Y54144D01*
X83942Y54101D01*
X83993Y54055D01*
X84042Y54006D01*
X84088Y53955D01*
X84131Y53902D01*
X84171Y53846D01*
X84208Y53788D01*
X84242Y53728D01*
X84273Y53666D01*
X84300Y53603D01*
X84324Y53539D01*
X84344Y53473D01*
X84360Y53406D01*
X84373Y53338D01*
X84383Y53270D01*
X84388Y53202D01*
X84390Y53133D01*
X84390Y46783D01*
X84388Y46714D01*
X84383Y46646D01*
X84373Y46578D01*
X84360Y46510D01*
X84344Y46443D01*
X84324Y46377D01*
X84300Y46313D01*
X84273Y46250D01*
X84242Y46188D01*
X84208Y46128D01*
X84171Y46070D01*
X84131Y46014D01*
X84088Y45961D01*
X84042Y45910D01*
X83993Y45861D01*
X83942Y45815D01*
X83889Y45772D01*
X83833Y45732D01*
X83775Y45695D01*
X83715Y45661D01*
X83653Y45630D01*
X83590Y45603D01*
X83526Y45579D01*
X83460Y45559D01*
X83393Y45543D01*
X83325Y45530D01*
X83257Y45520D01*
X83189Y45515D01*
X83120Y45513D01*
X67880Y45513D01*
X67811Y45515D01*
X67743Y45520D01*
X67675Y45530D01*
X67607Y45543D01*
X67540Y45559D01*
X67474Y45579D01*
X67410Y45603D01*
X67347Y45630D01*
X67285Y45661D01*
X67225Y45695D01*
X67167Y45732D01*
X67111Y45772D01*
X67058Y45815D01*
X67007Y45861D01*
X66958Y45910D01*
X66912Y45961D01*
X66869Y46014D01*
X66829Y46070D01*
X66792Y46128D01*
X66758Y46188D01*
X66727Y46250D01*
X66700Y46313D01*
X66676Y46377D01*
X66656Y46443D01*
X66640Y46510D01*
X66627Y46578D01*
X66617Y46646D01*
X66612Y46714D01*
X66610Y46783D01*
X66610Y53133D01*
X66612Y53202D01*
X66617Y53270D01*
X66627Y53338D01*
X66640Y53406D01*
X66656Y53473D01*
X66676Y53539D01*
X66700Y53603D01*
X66727Y53666D01*
X66758Y53728D01*
X66792Y53788D01*
X66829Y53846D01*
X66869Y53902D01*
X66912Y53955D01*
X66958Y54006D01*
X67007Y54055D01*
X67058Y54101D01*
X67111Y54144D01*
X67167Y54184D01*
X67225Y54221D01*
X67285Y54255D01*
X67347Y54286D01*
X67410Y54313D01*
X67474Y54337D01*
X67540Y54357D01*
X67607Y54373D01*
X67675Y54386D01*
X67743Y54396D01*
X67811Y54401D01*
X67880Y54403D01*
X83120Y54403D01*
D17*
X170056Y44640D02*
X170056Y94640D01*
X201056Y94640D02*
X201056Y44640D01*
X200556Y59640D02*
X200314Y59826D01*
X200077Y60018D01*
X199845Y60215D01*
X199617Y60419D01*
X199395Y60627D01*
X199177Y60841D01*
X198965Y61060D01*
X198759Y61285D01*
X198558Y61514D01*
X198362Y61748D01*
X198172Y61987D01*
X197989Y62231D01*
X197811Y62479D01*
X197639Y62731D01*
X197474Y62987D01*
X197314Y63247D01*
X197162Y63511D01*
X197015Y63779D01*
X196876Y64050D01*
X196743Y64324D01*
X196616Y64602D01*
X196497Y64883D01*
X196384Y65166D01*
X196278Y65452D01*
X196180Y65741D01*
X196088Y66032D01*
X196004Y66325D01*
X195926Y66620D01*
X195856Y66917D01*
X195793Y67215D01*
X195738Y67515D01*
X195690Y67816D01*
X195649Y68119D01*
X195616Y68422D01*
X195589Y68726D01*
X195571Y69030D01*
X195560Y69335D01*
X195556Y69640D01*
X195560Y69945D01*
X195571Y70250D01*
X195589Y70554D01*
X195616Y70858D01*
X195649Y71161D01*
X195690Y71464D01*
X195738Y71765D01*
X195793Y72065D01*
X195856Y72363D01*
X195926Y72660D01*
X196004Y72955D01*
X196088Y73248D01*
X196180Y73539D01*
X196278Y73828D01*
X196384Y74114D01*
X196497Y74397D01*
X196616Y74678D01*
X196743Y74956D01*
X196876Y75230D01*
X197015Y75501D01*
X197162Y75769D01*
X197314Y76033D01*
X197474Y76293D01*
X197639Y76549D01*
X197811Y76801D01*
X197989Y77049D01*
X198172Y77293D01*
X198362Y77532D01*
X198558Y77766D01*
X198759Y77995D01*
X198965Y78220D01*
X199177Y78439D01*
X199395Y78653D01*
X199617Y78861D01*
X199845Y79065D01*
X200077Y79262D01*
X200314Y79454D01*
X200556Y79640D01*
D12*
X177388Y138214D02*
X164688Y138214D01*
X177388Y138214D02*
X183738Y131864D01*
X183738Y119164D01*
X177388Y112814D01*
X158338Y119164D02*
X158338Y131864D01*
X164688Y138214D01*
X158338Y119164D02*
X164688Y112814D01*
X177388Y112814D01*
M02*
