G04 EAGLE Gerber RS-274X export*
G75*
%MOMM*%
%FSLAX34Y34*%
%LPD*%
%AMOC8*
5,1,8,0,0,1.08239X$1,22.5*%
G01*
%ADD10C,0.222250*%
%ADD11R,0.600000X1.350000*%
%ADD12R,1.200000X2.000000*%
%ADD13R,1.320800X1.320800*%
%ADD14C,1.320800*%
%ADD15R,1.270000X0.635000*%
%ADD16C,0.203200*%
%ADD17C,0.317500*%
%ADD18C,0.150000*%
%ADD19P,1.814519X8X112.500000*%
%ADD20C,0.609600*%
%ADD21C,0.304800*%

G36*
X83033Y5223D02*
X83033Y5223D01*
X83135Y5231D01*
X83163Y5243D01*
X83194Y5248D01*
X83286Y5292D01*
X83382Y5330D01*
X83405Y5350D01*
X83433Y5363D01*
X83508Y5433D01*
X83588Y5498D01*
X83605Y5524D01*
X83627Y5545D01*
X83678Y5634D01*
X83735Y5719D01*
X83741Y5743D01*
X83759Y5775D01*
X83817Y6035D01*
X83814Y6073D01*
X83819Y6096D01*
X83819Y13473D01*
X91471Y13473D01*
X91572Y13488D01*
X91675Y13497D01*
X91703Y13508D01*
X91734Y13513D01*
X91826Y13557D01*
X91921Y13596D01*
X91945Y13615D01*
X91973Y13628D01*
X92048Y13698D01*
X92128Y13763D01*
X92145Y13789D01*
X92167Y13810D01*
X92218Y13899D01*
X92275Y13984D01*
X92280Y14008D01*
X92299Y14040D01*
X92357Y14300D01*
X92354Y14338D01*
X92359Y14361D01*
X92359Y15251D01*
X92361Y15251D01*
X92361Y14361D01*
X92376Y14260D01*
X92385Y14157D01*
X92396Y14129D01*
X92401Y14098D01*
X92445Y14006D01*
X92484Y13911D01*
X92503Y13887D01*
X92516Y13859D01*
X92586Y13784D01*
X92651Y13704D01*
X92677Y13687D01*
X92698Y13665D01*
X92787Y13614D01*
X92872Y13557D01*
X92896Y13551D01*
X92929Y13533D01*
X93188Y13475D01*
X93226Y13478D01*
X93249Y13473D01*
X100901Y13473D01*
X100901Y6096D01*
X100916Y5994D01*
X100924Y5892D01*
X100936Y5864D01*
X100941Y5833D01*
X100985Y5741D01*
X101023Y5645D01*
X101043Y5622D01*
X101056Y5594D01*
X101126Y5519D01*
X101191Y5439D01*
X101217Y5422D01*
X101238Y5400D01*
X101327Y5349D01*
X101412Y5292D01*
X101436Y5286D01*
X101468Y5268D01*
X101728Y5210D01*
X101766Y5213D01*
X101789Y5208D01*
X138931Y5208D01*
X139033Y5223D01*
X139135Y5231D01*
X139163Y5243D01*
X139194Y5248D01*
X139286Y5292D01*
X139382Y5330D01*
X139405Y5350D01*
X139433Y5363D01*
X139508Y5433D01*
X139588Y5498D01*
X139605Y5524D01*
X139627Y5545D01*
X139678Y5634D01*
X139735Y5719D01*
X139741Y5743D01*
X139759Y5775D01*
X139817Y6035D01*
X139814Y6073D01*
X139819Y6096D01*
X139819Y13473D01*
X147471Y13473D01*
X147572Y13488D01*
X147675Y13497D01*
X147703Y13508D01*
X147734Y13513D01*
X147826Y13557D01*
X147921Y13596D01*
X147945Y13615D01*
X147973Y13628D01*
X148048Y13698D01*
X148128Y13763D01*
X148145Y13789D01*
X148167Y13810D01*
X148218Y13899D01*
X148275Y13984D01*
X148280Y14008D01*
X148299Y14040D01*
X148357Y14300D01*
X148354Y14338D01*
X148359Y14361D01*
X148359Y16139D01*
X148344Y16240D01*
X148335Y16343D01*
X148324Y16371D01*
X148319Y16402D01*
X148275Y16494D01*
X148236Y16589D01*
X148217Y16613D01*
X148204Y16641D01*
X148134Y16716D01*
X148069Y16796D01*
X148043Y16813D01*
X148022Y16835D01*
X147933Y16886D01*
X147848Y16943D01*
X147824Y16948D01*
X147791Y16967D01*
X147532Y17025D01*
X147494Y17022D01*
X147471Y17027D01*
X139819Y17027D01*
X139819Y25585D01*
X139992Y26231D01*
X140063Y26353D01*
X140088Y26417D01*
X140122Y26476D01*
X140136Y26540D01*
X140160Y26600D01*
X140165Y26669D01*
X140180Y26736D01*
X140175Y26801D01*
X140179Y26865D01*
X140164Y26932D01*
X140158Y27001D01*
X140134Y27061D01*
X140119Y27124D01*
X140085Y27184D01*
X140059Y27248D01*
X140018Y27298D01*
X139986Y27354D01*
X139935Y27401D01*
X139892Y27454D01*
X139838Y27490D01*
X139790Y27534D01*
X139728Y27563D01*
X139671Y27601D01*
X139626Y27611D01*
X139550Y27648D01*
X139502Y27654D01*
X139496Y27657D01*
X139455Y27661D01*
X139307Y27682D01*
X139294Y27685D01*
X139273Y27685D01*
X139253Y27682D01*
X139232Y27684D01*
X139121Y27662D01*
X139010Y27645D01*
X138992Y27636D01*
X138971Y27632D01*
X138932Y27608D01*
X138771Y27530D01*
X138689Y27453D01*
X138645Y27425D01*
X137381Y26161D01*
X133383Y26161D01*
X132119Y27425D01*
X132102Y27438D01*
X132089Y27454D01*
X131995Y27516D01*
X131905Y27583D01*
X131885Y27590D01*
X131868Y27601D01*
X131823Y27611D01*
X131654Y27670D01*
X131541Y27674D01*
X131491Y27685D01*
X129696Y27685D01*
X114170Y43211D01*
X114153Y43224D01*
X114140Y43240D01*
X114046Y43302D01*
X113956Y43369D01*
X113936Y43376D01*
X113919Y43387D01*
X113874Y43397D01*
X113705Y43456D01*
X113592Y43460D01*
X113542Y43471D01*
X111623Y43471D01*
X111527Y43568D01*
X111444Y43629D01*
X111366Y43695D01*
X111338Y43707D01*
X111313Y43725D01*
X111216Y43759D01*
X111122Y43799D01*
X111091Y43803D01*
X111062Y43813D01*
X110959Y43816D01*
X110857Y43827D01*
X110827Y43821D01*
X110796Y43822D01*
X110697Y43795D01*
X110596Y43775D01*
X110576Y43762D01*
X110540Y43752D01*
X110315Y43609D01*
X110291Y43580D01*
X110271Y43568D01*
X109920Y43217D01*
X109341Y42882D01*
X108695Y42709D01*
X106859Y42709D01*
X106859Y51389D01*
X106844Y51490D01*
X106836Y51593D01*
X106824Y51621D01*
X106819Y51652D01*
X106775Y51744D01*
X106737Y51839D01*
X106717Y51863D01*
X106704Y51891D01*
X106634Y51966D01*
X106608Y51997D01*
X106628Y52013D01*
X106645Y52039D01*
X106667Y52060D01*
X106718Y52149D01*
X106775Y52234D01*
X106781Y52258D01*
X106799Y52291D01*
X106857Y52550D01*
X106854Y52588D01*
X106859Y52611D01*
X106859Y61291D01*
X108695Y61291D01*
X109341Y61118D01*
X109920Y60783D01*
X110271Y60432D01*
X110353Y60372D01*
X110432Y60305D01*
X110460Y60293D01*
X110485Y60275D01*
X110581Y60241D01*
X110676Y60201D01*
X110707Y60197D01*
X110736Y60187D01*
X110838Y60184D01*
X110940Y60173D01*
X110971Y60179D01*
X111001Y60178D01*
X111100Y60205D01*
X111201Y60225D01*
X111221Y60238D01*
X111258Y60248D01*
X111482Y60391D01*
X111507Y60420D01*
X111527Y60432D01*
X111623Y60529D01*
X119097Y60529D01*
X119133Y60493D01*
X119174Y60462D01*
X119210Y60424D01*
X119281Y60383D01*
X119347Y60335D01*
X119396Y60318D01*
X119440Y60292D01*
X119520Y60274D01*
X119598Y60247D01*
X119650Y60246D01*
X119700Y60234D01*
X119782Y60241D01*
X119864Y60238D01*
X119913Y60252D01*
X119965Y60256D01*
X120041Y60287D01*
X120120Y60308D01*
X120164Y60336D01*
X120212Y60355D01*
X120275Y60407D01*
X120344Y60451D01*
X120378Y60490D01*
X120418Y60523D01*
X120463Y60591D01*
X120516Y60653D01*
X120537Y60701D01*
X120565Y60744D01*
X120577Y60794D01*
X120621Y60898D01*
X120638Y61067D01*
X120647Y61106D01*
X120647Y61110D01*
X120649Y61121D01*
X120649Y63975D01*
X123477Y66803D01*
X127475Y66803D01*
X130303Y63975D01*
X130303Y61353D01*
X130310Y61302D01*
X130309Y61250D01*
X130330Y61171D01*
X130343Y61090D01*
X130365Y61043D01*
X130379Y60993D01*
X130423Y60924D01*
X130458Y60851D01*
X130494Y60813D01*
X130521Y60769D01*
X130584Y60716D01*
X130640Y60656D01*
X130685Y60630D01*
X130724Y60597D01*
X130799Y60565D01*
X130870Y60524D01*
X130921Y60513D01*
X130968Y60493D01*
X131050Y60484D01*
X131130Y60466D01*
X131181Y60471D01*
X131233Y60465D01*
X131313Y60481D01*
X131395Y60488D01*
X131443Y60507D01*
X131494Y60518D01*
X131511Y60529D01*
X131677Y60529D01*
X131779Y60544D01*
X131881Y60552D01*
X131909Y60564D01*
X131940Y60569D01*
X132032Y60613D01*
X132128Y60651D01*
X132151Y60671D01*
X132179Y60684D01*
X132254Y60754D01*
X132334Y60819D01*
X132351Y60845D01*
X132373Y60866D01*
X132424Y60955D01*
X132481Y61040D01*
X132487Y61064D01*
X132505Y61096D01*
X132563Y61356D01*
X132560Y61394D01*
X132565Y61417D01*
X132565Y67945D01*
X132550Y68047D01*
X132542Y68149D01*
X132530Y68177D01*
X132525Y68208D01*
X132481Y68300D01*
X132443Y68396D01*
X132423Y68419D01*
X132410Y68447D01*
X132340Y68522D01*
X132275Y68602D01*
X132249Y68619D01*
X132228Y68641D01*
X132139Y68692D01*
X132054Y68749D01*
X132030Y68755D01*
X131998Y68773D01*
X131738Y68831D01*
X131700Y68828D01*
X131677Y68833D01*
X115951Y68833D01*
X115849Y68818D01*
X115747Y68810D01*
X115719Y68798D01*
X115688Y68793D01*
X115596Y68749D01*
X115500Y68711D01*
X115477Y68691D01*
X115449Y68678D01*
X115374Y68608D01*
X115294Y68543D01*
X115277Y68517D01*
X115255Y68496D01*
X115204Y68407D01*
X115147Y68322D01*
X115141Y68298D01*
X115123Y68266D01*
X115065Y68006D01*
X115068Y67968D01*
X115063Y67945D01*
X115063Y67343D01*
X112235Y64515D01*
X108237Y64515D01*
X105236Y67516D01*
X105154Y67577D01*
X105075Y67643D01*
X105047Y67655D01*
X105022Y67673D01*
X104925Y67707D01*
X104831Y67748D01*
X104800Y67751D01*
X104771Y67761D01*
X104669Y67764D01*
X104567Y67775D01*
X104536Y67769D01*
X104506Y67770D01*
X104407Y67743D01*
X104306Y67723D01*
X104286Y67710D01*
X104249Y67700D01*
X104025Y67557D01*
X104000Y67529D01*
X103980Y67516D01*
X85159Y48695D01*
X85146Y48678D01*
X85130Y48664D01*
X85068Y48571D01*
X85001Y48481D01*
X84994Y48461D01*
X84983Y48443D01*
X84973Y48399D01*
X84914Y48230D01*
X84910Y48117D01*
X84899Y48066D01*
X84899Y46976D01*
X82927Y45004D01*
X76963Y45004D01*
X76128Y45839D01*
X76045Y45900D01*
X75967Y45967D01*
X75939Y45979D01*
X75914Y45997D01*
X75817Y46031D01*
X75723Y46071D01*
X75692Y46074D01*
X75663Y46084D01*
X75561Y46088D01*
X75458Y46099D01*
X75428Y46093D01*
X75397Y46094D01*
X75298Y46067D01*
X75198Y46046D01*
X75178Y46034D01*
X75141Y46024D01*
X74917Y45881D01*
X74892Y45852D01*
X74872Y45839D01*
X74037Y45004D01*
X68073Y45004D01*
X66101Y46976D01*
X66101Y52940D01*
X68073Y54912D01*
X71688Y54912D01*
X71709Y54915D01*
X71730Y54913D01*
X71840Y54935D01*
X71951Y54952D01*
X71970Y54961D01*
X71991Y54965D01*
X72029Y54989D01*
X72191Y55067D01*
X72273Y55144D01*
X72317Y55172D01*
X72375Y55230D01*
X72388Y55247D01*
X72404Y55261D01*
X72419Y55283D01*
X72423Y55287D01*
X72433Y55304D01*
X72466Y55354D01*
X72533Y55444D01*
X72540Y55464D01*
X72551Y55482D01*
X72561Y55526D01*
X72620Y55695D01*
X72624Y55808D01*
X72635Y55859D01*
X72635Y57448D01*
X72620Y57550D01*
X72612Y57652D01*
X72600Y57680D01*
X72595Y57711D01*
X72551Y57803D01*
X72513Y57899D01*
X72493Y57922D01*
X72480Y57950D01*
X72410Y58025D01*
X72345Y58105D01*
X72319Y58122D01*
X72298Y58144D01*
X72209Y58195D01*
X72124Y58252D01*
X72100Y58258D01*
X72068Y58276D01*
X71808Y58334D01*
X71770Y58331D01*
X71747Y58336D01*
X68343Y58336D01*
X67301Y59378D01*
X67301Y83458D01*
X68343Y84500D01*
X71747Y84500D01*
X71849Y84515D01*
X71951Y84523D01*
X71979Y84535D01*
X72010Y84540D01*
X72102Y84584D01*
X72198Y84622D01*
X72221Y84642D01*
X72249Y84655D01*
X72324Y84725D01*
X72404Y84790D01*
X72421Y84816D01*
X72443Y84837D01*
X72494Y84926D01*
X72551Y85011D01*
X72557Y85035D01*
X72575Y85067D01*
X72633Y85327D01*
X72630Y85365D01*
X72635Y85388D01*
X72635Y86893D01*
X72632Y86914D01*
X72634Y86935D01*
X72612Y87045D01*
X72595Y87156D01*
X72586Y87175D01*
X72582Y87196D01*
X72558Y87234D01*
X72480Y87396D01*
X72403Y87478D01*
X72375Y87522D01*
X72247Y87650D01*
X72230Y87663D01*
X72216Y87679D01*
X72123Y87741D01*
X72033Y87808D01*
X72013Y87815D01*
X71995Y87826D01*
X71951Y87836D01*
X71782Y87895D01*
X71669Y87899D01*
X71618Y87910D01*
X68003Y87910D01*
X66031Y89882D01*
X66031Y95846D01*
X68003Y97818D01*
X73967Y97818D01*
X74802Y96983D01*
X74885Y96922D01*
X74963Y96855D01*
X74991Y96843D01*
X75016Y96825D01*
X75113Y96791D01*
X75207Y96751D01*
X75238Y96748D01*
X75267Y96738D01*
X75370Y96734D01*
X75472Y96723D01*
X75502Y96729D01*
X75533Y96728D01*
X75632Y96755D01*
X75732Y96776D01*
X75753Y96788D01*
X75789Y96798D01*
X76013Y96941D01*
X76038Y96970D01*
X76058Y96983D01*
X76893Y97818D01*
X82857Y97818D01*
X84829Y95846D01*
X84829Y92231D01*
X84832Y92210D01*
X84830Y92189D01*
X84849Y92091D01*
X84852Y92052D01*
X84858Y92039D01*
X84869Y91968D01*
X84878Y91949D01*
X84882Y91928D01*
X84906Y91890D01*
X84984Y91728D01*
X85061Y91646D01*
X85089Y91602D01*
X85966Y90725D01*
X85976Y90718D01*
X85982Y90711D01*
X85988Y90707D01*
X85997Y90696D01*
X86090Y90634D01*
X86180Y90567D01*
X86200Y90560D01*
X86218Y90549D01*
X86262Y90539D01*
X86431Y90480D01*
X86544Y90476D01*
X86595Y90465D01*
X93645Y90465D01*
X93665Y90468D01*
X93686Y90466D01*
X93797Y90488D01*
X93908Y90505D01*
X93926Y90514D01*
X93947Y90518D01*
X93986Y90542D01*
X94147Y90620D01*
X94229Y90697D01*
X94273Y90725D01*
X96045Y92497D01*
X100153Y92497D01*
X100255Y92512D01*
X100357Y92520D01*
X100385Y92532D01*
X100416Y92537D01*
X100508Y92581D01*
X100604Y92619D01*
X100627Y92639D01*
X100655Y92652D01*
X100730Y92722D01*
X100810Y92787D01*
X100827Y92813D01*
X100849Y92834D01*
X100900Y92923D01*
X100957Y93008D01*
X100963Y93032D01*
X100981Y93064D01*
X101039Y93324D01*
X101036Y93362D01*
X101041Y93385D01*
X101041Y95157D01*
X102083Y96199D01*
X109557Y96199D01*
X110192Y95564D01*
X110274Y95503D01*
X110353Y95436D01*
X110381Y95424D01*
X110406Y95406D01*
X110503Y95372D01*
X110597Y95332D01*
X110628Y95329D01*
X110657Y95319D01*
X110759Y95315D01*
X110862Y95304D01*
X110892Y95310D01*
X110923Y95309D01*
X111022Y95336D01*
X111122Y95356D01*
X111142Y95369D01*
X111179Y95379D01*
X111403Y95522D01*
X111428Y95551D01*
X111448Y95564D01*
X112083Y96199D01*
X119557Y96199D01*
X120192Y95564D01*
X120275Y95503D01*
X120353Y95436D01*
X120381Y95424D01*
X120406Y95406D01*
X120503Y95372D01*
X120597Y95332D01*
X120628Y95329D01*
X120657Y95319D01*
X120759Y95315D01*
X120862Y95304D01*
X120892Y95310D01*
X120923Y95309D01*
X121022Y95336D01*
X121122Y95356D01*
X121143Y95369D01*
X121179Y95379D01*
X121403Y95522D01*
X121428Y95551D01*
X121448Y95564D01*
X122185Y96301D01*
X122246Y96383D01*
X122313Y96462D01*
X122325Y96490D01*
X122343Y96515D01*
X122377Y96612D01*
X122417Y96706D01*
X122420Y96737D01*
X122430Y96766D01*
X122434Y96868D01*
X122444Y96970D01*
X122438Y97001D01*
X122439Y97031D01*
X122412Y97130D01*
X122392Y97231D01*
X122379Y97251D01*
X122370Y97288D01*
X122227Y97512D01*
X122198Y97537D01*
X122185Y97557D01*
X120903Y98839D01*
X120903Y102837D01*
X123731Y105665D01*
X125518Y105665D01*
X125539Y105668D01*
X125560Y105666D01*
X125670Y105688D01*
X125781Y105705D01*
X125800Y105714D01*
X125820Y105718D01*
X125859Y105742D01*
X126020Y105820D01*
X126103Y105897D01*
X126146Y105925D01*
X131982Y111761D01*
X139883Y111761D01*
X139951Y111771D01*
X140020Y111771D01*
X140082Y111791D01*
X140146Y111801D01*
X140208Y111830D01*
X140273Y111851D01*
X140327Y111888D01*
X140385Y111916D01*
X140435Y111963D01*
X140492Y112002D01*
X140532Y112053D01*
X140580Y112098D01*
X140614Y112157D01*
X140656Y112211D01*
X140679Y112272D01*
X140711Y112328D01*
X140726Y112395D01*
X140751Y112460D01*
X140755Y112524D01*
X140769Y112588D01*
X140764Y112656D01*
X140768Y112725D01*
X140755Y112768D01*
X140748Y112853D01*
X140656Y113080D01*
X140652Y113093D01*
X140452Y113439D01*
X140279Y114085D01*
X140279Y122643D01*
X147931Y122643D01*
X148032Y122658D01*
X148135Y122667D01*
X148163Y122678D01*
X148194Y122683D01*
X148286Y122727D01*
X148381Y122766D01*
X148405Y122785D01*
X148433Y122798D01*
X148508Y122868D01*
X148588Y122933D01*
X148605Y122959D01*
X148627Y122980D01*
X148678Y123069D01*
X148735Y123154D01*
X148740Y123178D01*
X148759Y123210D01*
X148817Y123470D01*
X148814Y123508D01*
X148819Y123531D01*
X148819Y125309D01*
X148804Y125410D01*
X148795Y125513D01*
X148784Y125541D01*
X148779Y125572D01*
X148735Y125664D01*
X148696Y125759D01*
X148677Y125783D01*
X148664Y125811D01*
X148594Y125886D01*
X148529Y125966D01*
X148503Y125983D01*
X148482Y126005D01*
X148393Y126056D01*
X148308Y126113D01*
X148284Y126118D01*
X148251Y126137D01*
X147992Y126195D01*
X147954Y126192D01*
X147931Y126197D01*
X140279Y126197D01*
X140279Y134366D01*
X140264Y134468D01*
X140256Y134570D01*
X140244Y134598D01*
X140239Y134629D01*
X140195Y134721D01*
X140157Y134817D01*
X140137Y134840D01*
X140124Y134868D01*
X140054Y134943D01*
X139989Y135023D01*
X139963Y135040D01*
X139942Y135062D01*
X139853Y135113D01*
X139768Y135170D01*
X139744Y135176D01*
X139712Y135194D01*
X139452Y135252D01*
X139414Y135249D01*
X139391Y135254D01*
X102249Y135254D01*
X102147Y135239D01*
X102045Y135231D01*
X102017Y135219D01*
X101986Y135214D01*
X101894Y135170D01*
X101798Y135132D01*
X101775Y135112D01*
X101747Y135099D01*
X101672Y135029D01*
X101592Y134964D01*
X101575Y134938D01*
X101553Y134917D01*
X101502Y134828D01*
X101445Y134743D01*
X101439Y134719D01*
X101421Y134687D01*
X101363Y134427D01*
X101366Y134389D01*
X101361Y134366D01*
X101361Y126197D01*
X93709Y126197D01*
X93608Y126182D01*
X93505Y126173D01*
X93477Y126162D01*
X93446Y126157D01*
X93354Y126113D01*
X93259Y126074D01*
X93235Y126055D01*
X93207Y126042D01*
X93132Y125972D01*
X93052Y125907D01*
X93035Y125881D01*
X93013Y125860D01*
X92962Y125771D01*
X92905Y125686D01*
X92900Y125662D01*
X92881Y125629D01*
X92823Y125370D01*
X92826Y125332D01*
X92821Y125309D01*
X92821Y124419D01*
X92819Y124419D01*
X92819Y125309D01*
X92804Y125410D01*
X92795Y125513D01*
X92784Y125541D01*
X92779Y125572D01*
X92735Y125664D01*
X92696Y125759D01*
X92677Y125783D01*
X92664Y125811D01*
X92594Y125886D01*
X92529Y125966D01*
X92503Y125983D01*
X92482Y126005D01*
X92393Y126056D01*
X92308Y126113D01*
X92284Y126118D01*
X92251Y126137D01*
X91992Y126195D01*
X91954Y126192D01*
X91931Y126197D01*
X84279Y126197D01*
X84279Y134366D01*
X84264Y134468D01*
X84256Y134570D01*
X84244Y134598D01*
X84239Y134629D01*
X84195Y134721D01*
X84157Y134817D01*
X84137Y134840D01*
X84124Y134868D01*
X84054Y134943D01*
X83989Y135023D01*
X83963Y135040D01*
X83942Y135062D01*
X83853Y135113D01*
X83768Y135170D01*
X83744Y135176D01*
X83712Y135194D01*
X83452Y135252D01*
X83414Y135249D01*
X83391Y135254D01*
X60000Y135254D01*
X59898Y135239D01*
X59796Y135231D01*
X59768Y135219D01*
X59737Y135214D01*
X59645Y135170D01*
X59549Y135132D01*
X59526Y135112D01*
X59498Y135099D01*
X59423Y135029D01*
X59343Y134964D01*
X59326Y134938D01*
X59304Y134917D01*
X59253Y134828D01*
X59196Y134743D01*
X59190Y134719D01*
X59172Y134687D01*
X59114Y134427D01*
X59117Y134389D01*
X59112Y134366D01*
X59112Y6096D01*
X59127Y5994D01*
X59135Y5892D01*
X59147Y5864D01*
X59152Y5833D01*
X59196Y5741D01*
X59234Y5645D01*
X59254Y5622D01*
X59267Y5594D01*
X59337Y5519D01*
X59402Y5439D01*
X59428Y5422D01*
X59449Y5400D01*
X59538Y5349D01*
X59623Y5292D01*
X59647Y5286D01*
X59679Y5268D01*
X59939Y5210D01*
X59977Y5213D01*
X60000Y5208D01*
X82931Y5208D01*
X83033Y5223D01*
G37*
G36*
X168556Y29918D02*
X168556Y29918D01*
X168658Y29926D01*
X168686Y29938D01*
X168717Y29943D01*
X168809Y29987D01*
X168905Y30025D01*
X168928Y30045D01*
X168956Y30058D01*
X169031Y30128D01*
X169111Y30193D01*
X169128Y30219D01*
X169150Y30240D01*
X169201Y30329D01*
X169258Y30414D01*
X169264Y30438D01*
X169282Y30470D01*
X169340Y30730D01*
X169337Y30768D01*
X169342Y30791D01*
X169342Y31131D01*
X171035Y32824D01*
X171375Y32824D01*
X171477Y32839D01*
X171579Y32847D01*
X171607Y32859D01*
X171638Y32864D01*
X171730Y32908D01*
X171826Y32946D01*
X171849Y32966D01*
X171877Y32979D01*
X171952Y33049D01*
X172032Y33114D01*
X172049Y33140D01*
X172071Y33161D01*
X172122Y33250D01*
X172179Y33335D01*
X172185Y33359D01*
X172203Y33391D01*
X172261Y33651D01*
X172258Y33689D01*
X172263Y33712D01*
X172263Y45894D01*
X172260Y45915D01*
X172262Y45936D01*
X172253Y45981D01*
X172253Y49211D01*
X172262Y49237D01*
X172266Y49350D01*
X172277Y49400D01*
X172277Y55187D01*
X173759Y56669D01*
X176365Y56669D01*
X176467Y56684D01*
X176569Y56692D01*
X176597Y56704D01*
X176628Y56709D01*
X176720Y56753D01*
X176816Y56791D01*
X176839Y56811D01*
X176867Y56824D01*
X176942Y56894D01*
X177022Y56959D01*
X177039Y56985D01*
X177061Y57006D01*
X177112Y57095D01*
X177169Y57180D01*
X177175Y57204D01*
X177193Y57236D01*
X177251Y57496D01*
X177248Y57534D01*
X177253Y57557D01*
X177253Y57972D01*
X187100Y67819D01*
X210000Y67819D01*
X210102Y67834D01*
X210204Y67842D01*
X210232Y67854D01*
X210263Y67859D01*
X210355Y67903D01*
X210451Y67941D01*
X210474Y67961D01*
X210502Y67974D01*
X210577Y68044D01*
X210657Y68109D01*
X210674Y68135D01*
X210696Y68156D01*
X210747Y68245D01*
X210804Y68330D01*
X210810Y68354D01*
X210828Y68386D01*
X210886Y68646D01*
X210883Y68684D01*
X210888Y68707D01*
X210888Y134366D01*
X210873Y134468D01*
X210865Y134570D01*
X210853Y134598D01*
X210848Y134629D01*
X210804Y134721D01*
X210766Y134817D01*
X210746Y134840D01*
X210733Y134868D01*
X210663Y134943D01*
X210598Y135023D01*
X210572Y135040D01*
X210551Y135062D01*
X210462Y135113D01*
X210377Y135170D01*
X210353Y135176D01*
X210321Y135194D01*
X210061Y135252D01*
X210023Y135249D01*
X210000Y135254D01*
X206614Y135254D01*
X206512Y135239D01*
X206410Y135231D01*
X206382Y135219D01*
X206351Y135214D01*
X206259Y135170D01*
X206163Y135132D01*
X206140Y135112D01*
X206112Y135099D01*
X206037Y135029D01*
X205957Y134964D01*
X205940Y134938D01*
X205918Y134917D01*
X205867Y134828D01*
X205810Y134743D01*
X205804Y134719D01*
X205786Y134687D01*
X205728Y134427D01*
X205731Y134389D01*
X205726Y134366D01*
X205726Y132381D01*
X199629Y132381D01*
X199528Y132366D01*
X199425Y132357D01*
X199397Y132346D01*
X199366Y132341D01*
X199274Y132297D01*
X199179Y132258D01*
X199155Y132239D01*
X199127Y132226D01*
X199052Y132156D01*
X198972Y132091D01*
X198955Y132065D01*
X198933Y132044D01*
X198882Y131955D01*
X198825Y131870D01*
X198820Y131846D01*
X198801Y131813D01*
X198743Y131554D01*
X198746Y131516D01*
X198741Y131493D01*
X198741Y130603D01*
X198739Y130603D01*
X198739Y131493D01*
X198724Y131594D01*
X198715Y131697D01*
X198704Y131725D01*
X198699Y131756D01*
X198655Y131848D01*
X198616Y131943D01*
X198597Y131967D01*
X198584Y131995D01*
X198514Y132070D01*
X198449Y132150D01*
X198423Y132167D01*
X198402Y132189D01*
X198313Y132240D01*
X198228Y132297D01*
X198204Y132302D01*
X198171Y132321D01*
X197912Y132379D01*
X197874Y132376D01*
X197851Y132381D01*
X191754Y132381D01*
X191754Y134366D01*
X191739Y134468D01*
X191731Y134570D01*
X191719Y134598D01*
X191714Y134629D01*
X191670Y134721D01*
X191632Y134817D01*
X191612Y134840D01*
X191599Y134868D01*
X191529Y134943D01*
X191464Y135023D01*
X191438Y135040D01*
X191417Y135062D01*
X191328Y135113D01*
X191243Y135170D01*
X191219Y135176D01*
X191187Y135194D01*
X190927Y135252D01*
X190889Y135249D01*
X190866Y135254D01*
X177678Y135254D01*
X177627Y135247D01*
X177575Y135248D01*
X177496Y135227D01*
X177415Y135214D01*
X177368Y135192D01*
X177318Y135178D01*
X177249Y135134D01*
X177175Y135099D01*
X177138Y135064D01*
X177094Y135036D01*
X177041Y134973D01*
X176981Y134917D01*
X176956Y134873D01*
X176922Y134833D01*
X176890Y134758D01*
X176849Y134687D01*
X176838Y134636D01*
X176818Y134589D01*
X176809Y134507D01*
X176791Y134427D01*
X176796Y134376D01*
X176790Y134324D01*
X176806Y134244D01*
X176813Y134162D01*
X176832Y134114D01*
X176842Y134064D01*
X176870Y134020D01*
X176912Y133915D01*
X177025Y133776D01*
X177049Y133738D01*
X181103Y129685D01*
X181103Y121267D01*
X181090Y121255D01*
X181029Y121172D01*
X180963Y121094D01*
X180951Y121066D01*
X180932Y121041D01*
X180899Y120944D01*
X180858Y120849D01*
X180855Y120819D01*
X180845Y120790D01*
X180842Y120687D01*
X180831Y120585D01*
X180837Y120555D01*
X180836Y120524D01*
X180863Y120425D01*
X180883Y120324D01*
X180896Y120304D01*
X180906Y120268D01*
X181048Y120043D01*
X181077Y120019D01*
X181090Y119999D01*
X183859Y117230D01*
X183859Y101557D01*
X183874Y101455D01*
X183882Y101353D01*
X183894Y101325D01*
X183899Y101294D01*
X183943Y101202D01*
X183981Y101106D01*
X184001Y101083D01*
X184014Y101055D01*
X184084Y100980D01*
X184149Y100900D01*
X184175Y100883D01*
X184196Y100861D01*
X184285Y100810D01*
X184370Y100753D01*
X184394Y100747D01*
X184426Y100729D01*
X184686Y100671D01*
X184724Y100674D01*
X184747Y100669D01*
X187353Y100669D01*
X187428Y100594D01*
X187511Y100533D01*
X187589Y100467D01*
X187617Y100455D01*
X187642Y100437D01*
X187739Y100403D01*
X187833Y100362D01*
X187864Y100359D01*
X187893Y100349D01*
X187996Y100346D01*
X188098Y100335D01*
X188128Y100341D01*
X188159Y100340D01*
X188258Y100367D01*
X188358Y100387D01*
X188378Y100400D01*
X188415Y100410D01*
X188639Y100553D01*
X188664Y100581D01*
X188684Y100594D01*
X188759Y100669D01*
X191365Y100669D01*
X191467Y100684D01*
X191569Y100692D01*
X191597Y100704D01*
X191628Y100709D01*
X191720Y100753D01*
X191816Y100791D01*
X191839Y100811D01*
X191867Y100824D01*
X191942Y100894D01*
X192022Y100959D01*
X192039Y100985D01*
X192061Y101006D01*
X192112Y101095D01*
X192169Y101180D01*
X192175Y101204D01*
X192193Y101236D01*
X192251Y101496D01*
X192248Y101534D01*
X192253Y101557D01*
X192253Y113548D01*
X192256Y113551D01*
X192269Y113568D01*
X192285Y113581D01*
X192347Y113675D01*
X192414Y113765D01*
X192421Y113785D01*
X192432Y113802D01*
X192442Y113847D01*
X192501Y114016D01*
X192505Y114129D01*
X192516Y114179D01*
X192516Y119895D01*
X194209Y121588D01*
X203271Y121588D01*
X204964Y119895D01*
X204964Y110833D01*
X203271Y109140D01*
X199747Y109140D01*
X199645Y109125D01*
X199543Y109117D01*
X199515Y109105D01*
X199484Y109100D01*
X199392Y109056D01*
X199296Y109018D01*
X199273Y108998D01*
X199245Y108985D01*
X199170Y108915D01*
X199090Y108850D01*
X199073Y108824D01*
X199051Y108803D01*
X199000Y108714D01*
X198943Y108629D01*
X198937Y108605D01*
X198919Y108573D01*
X198861Y108313D01*
X198861Y108308D01*
X198861Y108306D01*
X198863Y108273D01*
X198859Y108252D01*
X198859Y90069D01*
X198850Y90044D01*
X198846Y89930D01*
X198835Y89880D01*
X198835Y84093D01*
X197353Y82611D01*
X194239Y82611D01*
X194137Y82596D01*
X194035Y82588D01*
X194007Y82576D01*
X193976Y82571D01*
X193884Y82527D01*
X193788Y82489D01*
X193765Y82469D01*
X193737Y82456D01*
X193662Y82386D01*
X193582Y82321D01*
X193565Y82295D01*
X193543Y82274D01*
X193492Y82185D01*
X193435Y82100D01*
X193429Y82076D01*
X193411Y82044D01*
X193353Y81784D01*
X193356Y81746D01*
X193351Y81723D01*
X193351Y78654D01*
X183530Y68833D01*
X139043Y68833D01*
X138941Y68818D01*
X138839Y68810D01*
X138811Y68798D01*
X138780Y68793D01*
X138688Y68749D01*
X138592Y68711D01*
X138569Y68691D01*
X138541Y68678D01*
X138466Y68608D01*
X138386Y68543D01*
X138369Y68517D01*
X138347Y68496D01*
X138296Y68407D01*
X138239Y68322D01*
X138233Y68298D01*
X138215Y68266D01*
X138157Y68006D01*
X138160Y67968D01*
X138155Y67945D01*
X138155Y61417D01*
X138170Y61315D01*
X138178Y61213D01*
X138190Y61185D01*
X138195Y61154D01*
X138239Y61062D01*
X138277Y60966D01*
X138297Y60943D01*
X138310Y60915D01*
X138380Y60840D01*
X138445Y60760D01*
X138471Y60743D01*
X138492Y60721D01*
X138581Y60670D01*
X138666Y60613D01*
X138690Y60607D01*
X138722Y60589D01*
X138982Y60531D01*
X139020Y60534D01*
X139043Y60529D01*
X139097Y60529D01*
X140139Y59487D01*
X140139Y44513D01*
X139097Y43471D01*
X131623Y43471D01*
X130988Y44106D01*
X130905Y44167D01*
X130827Y44234D01*
X130799Y44246D01*
X130774Y44264D01*
X130677Y44298D01*
X130583Y44338D01*
X130552Y44341D01*
X130523Y44351D01*
X130420Y44355D01*
X130318Y44366D01*
X130288Y44360D01*
X130257Y44361D01*
X130158Y44334D01*
X130058Y44314D01*
X130037Y44301D01*
X130001Y44291D01*
X129777Y44148D01*
X129752Y44119D01*
X129732Y44106D01*
X129097Y43471D01*
X125396Y43471D01*
X125345Y43464D01*
X125293Y43465D01*
X125214Y43444D01*
X125133Y43431D01*
X125087Y43409D01*
X125037Y43395D01*
X124968Y43351D01*
X124894Y43316D01*
X124856Y43281D01*
X124813Y43253D01*
X124759Y43190D01*
X124699Y43134D01*
X124674Y43090D01*
X124640Y43050D01*
X124608Y42975D01*
X124568Y42904D01*
X124556Y42853D01*
X124536Y42806D01*
X124528Y42724D01*
X124510Y42644D01*
X124514Y42593D01*
X124509Y42541D01*
X124525Y42461D01*
X124531Y42379D01*
X124551Y42331D01*
X124561Y42281D01*
X124588Y42237D01*
X124630Y42132D01*
X124743Y41993D01*
X124768Y41955D01*
X131517Y35205D01*
X131600Y35145D01*
X131678Y35078D01*
X131706Y35066D01*
X131731Y35048D01*
X131828Y35014D01*
X131923Y34974D01*
X131953Y34971D01*
X131982Y34960D01*
X132085Y34957D01*
X132187Y34946D01*
X132217Y34952D01*
X132248Y34951D01*
X132347Y34978D01*
X132448Y34998D01*
X132468Y35011D01*
X132504Y35021D01*
X132729Y35164D01*
X132753Y35193D01*
X132773Y35205D01*
X133383Y35815D01*
X137381Y35815D01*
X138645Y34551D01*
X138662Y34538D01*
X138675Y34522D01*
X138769Y34460D01*
X138859Y34393D01*
X138879Y34386D01*
X138896Y34375D01*
X138941Y34365D01*
X139110Y34306D01*
X139223Y34302D01*
X139273Y34291D01*
X158594Y34291D01*
X162722Y30163D01*
X162739Y30150D01*
X162752Y30134D01*
X162846Y30072D01*
X162936Y30005D01*
X162956Y29998D01*
X162973Y29987D01*
X163018Y29977D01*
X163187Y29918D01*
X163300Y29914D01*
X163350Y29903D01*
X168454Y29903D01*
X168556Y29918D01*
G37*
G36*
X168172Y5218D02*
X168172Y5218D01*
X168241Y5218D01*
X168303Y5238D01*
X168367Y5248D01*
X168429Y5277D01*
X168494Y5298D01*
X168548Y5335D01*
X168606Y5363D01*
X168656Y5410D01*
X168713Y5449D01*
X168753Y5500D01*
X168801Y5545D01*
X168835Y5604D01*
X168877Y5658D01*
X168900Y5719D01*
X168932Y5775D01*
X168947Y5842D01*
X168972Y5907D01*
X168976Y5972D01*
X168990Y6035D01*
X168985Y6103D01*
X168989Y6172D01*
X168976Y6215D01*
X168969Y6300D01*
X168877Y6527D01*
X168873Y6540D01*
X168829Y6617D01*
X168580Y7545D01*
X168580Y9583D01*
X174677Y9583D01*
X174778Y9598D01*
X174881Y9607D01*
X174909Y9618D01*
X174940Y9623D01*
X175032Y9667D01*
X175127Y9706D01*
X175151Y9725D01*
X175179Y9738D01*
X175254Y9808D01*
X175334Y9873D01*
X175351Y9899D01*
X175373Y9920D01*
X175424Y10009D01*
X175481Y10094D01*
X175486Y10118D01*
X175505Y10150D01*
X175563Y10410D01*
X175560Y10448D01*
X175565Y10471D01*
X175565Y11361D01*
X175567Y11361D01*
X175567Y10471D01*
X175582Y10370D01*
X175591Y10267D01*
X175602Y10239D01*
X175607Y10208D01*
X175651Y10116D01*
X175690Y10021D01*
X175709Y9997D01*
X175722Y9969D01*
X175792Y9894D01*
X175857Y9814D01*
X175883Y9797D01*
X175904Y9775D01*
X175993Y9724D01*
X176078Y9667D01*
X176102Y9661D01*
X176135Y9643D01*
X176394Y9585D01*
X176432Y9588D01*
X176455Y9583D01*
X182552Y9583D01*
X182552Y7545D01*
X182303Y6617D01*
X182259Y6540D01*
X182234Y6476D01*
X182200Y6417D01*
X182185Y6353D01*
X182162Y6293D01*
X182157Y6224D01*
X182142Y6157D01*
X182147Y6092D01*
X182142Y6028D01*
X182158Y5960D01*
X182163Y5892D01*
X182188Y5832D01*
X182202Y5769D01*
X182237Y5709D01*
X182262Y5645D01*
X182303Y5595D01*
X182336Y5539D01*
X182387Y5493D01*
X182430Y5439D01*
X182484Y5403D01*
X182532Y5359D01*
X182594Y5330D01*
X182651Y5292D01*
X182695Y5282D01*
X182772Y5245D01*
X183014Y5211D01*
X183028Y5208D01*
X210000Y5208D01*
X210102Y5223D01*
X210204Y5231D01*
X210232Y5243D01*
X210263Y5248D01*
X210355Y5292D01*
X210451Y5330D01*
X210474Y5350D01*
X210502Y5363D01*
X210577Y5433D01*
X210657Y5498D01*
X210674Y5524D01*
X210696Y5545D01*
X210747Y5634D01*
X210804Y5719D01*
X210810Y5743D01*
X210828Y5775D01*
X210886Y6035D01*
X210883Y6073D01*
X210888Y6096D01*
X210888Y44423D01*
X210885Y44444D01*
X210887Y44465D01*
X210865Y44575D01*
X210848Y44686D01*
X210839Y44705D01*
X210835Y44725D01*
X210811Y44764D01*
X210733Y44925D01*
X210656Y45008D01*
X210628Y45051D01*
X200351Y55328D01*
X200310Y55359D01*
X200274Y55397D01*
X200203Y55437D01*
X200137Y55486D01*
X200088Y55503D01*
X200044Y55528D01*
X199964Y55546D01*
X199886Y55573D01*
X199834Y55575D01*
X199784Y55586D01*
X199702Y55580D01*
X199620Y55582D01*
X199571Y55569D01*
X199519Y55565D01*
X199443Y55534D01*
X199364Y55513D01*
X199320Y55485D01*
X199272Y55466D01*
X199209Y55414D01*
X199140Y55370D01*
X199106Y55331D01*
X199066Y55298D01*
X199021Y55230D01*
X198968Y55167D01*
X198947Y55120D01*
X198919Y55077D01*
X198907Y55027D01*
X198863Y54923D01*
X198845Y54745D01*
X198835Y54700D01*
X198835Y49400D01*
X198838Y49379D01*
X198836Y49358D01*
X198858Y49248D01*
X198859Y49241D01*
X198859Y29596D01*
X192560Y23297D01*
X182678Y23297D01*
X182576Y23282D01*
X182474Y23274D01*
X182446Y23262D01*
X182415Y23257D01*
X182323Y23213D01*
X182227Y23175D01*
X182204Y23155D01*
X182176Y23142D01*
X182101Y23072D01*
X182021Y23007D01*
X182004Y22981D01*
X181982Y22960D01*
X181931Y22871D01*
X181874Y22786D01*
X181868Y22762D01*
X181850Y22730D01*
X181792Y22470D01*
X181795Y22432D01*
X181790Y22409D01*
X181790Y22069D01*
X180097Y20376D01*
X171035Y20376D01*
X169342Y22069D01*
X169342Y22409D01*
X169327Y22511D01*
X169319Y22613D01*
X169307Y22641D01*
X169302Y22672D01*
X169258Y22764D01*
X169220Y22860D01*
X169200Y22883D01*
X169187Y22911D01*
X169117Y22986D01*
X169052Y23066D01*
X169026Y23083D01*
X169005Y23105D01*
X168916Y23156D01*
X168831Y23213D01*
X168807Y23219D01*
X168775Y23237D01*
X168515Y23295D01*
X168477Y23292D01*
X168454Y23297D01*
X160246Y23297D01*
X158417Y25126D01*
X158376Y25157D01*
X158340Y25195D01*
X158269Y25235D01*
X158203Y25284D01*
X158154Y25301D01*
X158110Y25326D01*
X158030Y25344D01*
X157952Y25371D01*
X157900Y25373D01*
X157850Y25384D01*
X157768Y25378D01*
X157686Y25380D01*
X157637Y25367D01*
X157585Y25363D01*
X157509Y25332D01*
X157430Y25311D01*
X157386Y25283D01*
X157338Y25264D01*
X157275Y25212D01*
X157206Y25168D01*
X157172Y25129D01*
X157132Y25096D01*
X157087Y25028D01*
X157034Y24965D01*
X157013Y24918D01*
X156985Y24875D01*
X156973Y24825D01*
X156929Y24721D01*
X156911Y24543D01*
X156901Y24498D01*
X156901Y17027D01*
X149249Y17027D01*
X149148Y17012D01*
X149045Y17003D01*
X149017Y16992D01*
X148986Y16987D01*
X148894Y16943D01*
X148799Y16904D01*
X148775Y16885D01*
X148747Y16872D01*
X148672Y16802D01*
X148592Y16737D01*
X148575Y16711D01*
X148553Y16690D01*
X148502Y16601D01*
X148445Y16516D01*
X148440Y16492D01*
X148421Y16459D01*
X148363Y16200D01*
X148366Y16162D01*
X148361Y16139D01*
X148361Y14361D01*
X148376Y14260D01*
X148385Y14157D01*
X148396Y14129D01*
X148401Y14098D01*
X148445Y14006D01*
X148484Y13911D01*
X148503Y13887D01*
X148516Y13859D01*
X148586Y13784D01*
X148651Y13704D01*
X148677Y13687D01*
X148698Y13665D01*
X148787Y13614D01*
X148872Y13557D01*
X148896Y13551D01*
X148929Y13533D01*
X149188Y13475D01*
X149226Y13478D01*
X149249Y13473D01*
X156901Y13473D01*
X156901Y6096D01*
X156916Y5994D01*
X156924Y5892D01*
X156936Y5864D01*
X156941Y5833D01*
X156985Y5741D01*
X157023Y5645D01*
X157043Y5622D01*
X157056Y5594D01*
X157126Y5519D01*
X157191Y5439D01*
X157217Y5422D01*
X157238Y5400D01*
X157327Y5349D01*
X157412Y5292D01*
X157436Y5286D01*
X157468Y5268D01*
X157728Y5210D01*
X157766Y5213D01*
X157789Y5208D01*
X168104Y5208D01*
X168172Y5218D01*
G37*
G36*
X179089Y78744D02*
X179089Y78744D01*
X179110Y78742D01*
X179220Y78764D01*
X179331Y78781D01*
X179350Y78790D01*
X179371Y78794D01*
X179409Y78818D01*
X179571Y78896D01*
X179653Y78973D01*
X179697Y79001D01*
X181791Y81095D01*
X181821Y81136D01*
X181859Y81172D01*
X181900Y81243D01*
X181948Y81309D01*
X181965Y81358D01*
X181991Y81402D01*
X182009Y81482D01*
X182036Y81560D01*
X182037Y81612D01*
X182049Y81662D01*
X182042Y81744D01*
X182045Y81826D01*
X182031Y81875D01*
X182027Y81927D01*
X181997Y82003D01*
X181975Y82082D01*
X181947Y82126D01*
X181928Y82174D01*
X181876Y82237D01*
X181832Y82306D01*
X181793Y82340D01*
X181760Y82380D01*
X181692Y82425D01*
X181630Y82478D01*
X181582Y82499D01*
X181539Y82527D01*
X181489Y82539D01*
X181385Y82583D01*
X181207Y82601D01*
X181163Y82611D01*
X178759Y82611D01*
X178684Y82686D01*
X178602Y82747D01*
X178523Y82813D01*
X178495Y82825D01*
X178470Y82843D01*
X178373Y82877D01*
X178279Y82918D01*
X178248Y82921D01*
X178219Y82931D01*
X178117Y82934D01*
X178014Y82945D01*
X177984Y82939D01*
X177953Y82940D01*
X177855Y82913D01*
X177754Y82893D01*
X177733Y82880D01*
X177697Y82870D01*
X177473Y82728D01*
X177448Y82699D01*
X177428Y82686D01*
X177353Y82611D01*
X173759Y82611D01*
X172277Y84093D01*
X172277Y89880D01*
X172274Y89901D01*
X172276Y89922D01*
X172254Y90032D01*
X172253Y90039D01*
X172253Y101854D01*
X172250Y101875D01*
X172252Y101896D01*
X172230Y102006D01*
X172213Y102117D01*
X172204Y102136D01*
X172200Y102156D01*
X172176Y102195D01*
X172098Y102356D01*
X172021Y102439D01*
X171993Y102482D01*
X169580Y104895D01*
X169563Y104908D01*
X169550Y104924D01*
X169456Y104986D01*
X169366Y105053D01*
X169346Y105060D01*
X169329Y105071D01*
X169284Y105081D01*
X169115Y105140D01*
X169002Y105144D01*
X168952Y105155D01*
X135086Y105155D01*
X135065Y105152D01*
X135044Y105154D01*
X134934Y105132D01*
X134823Y105115D01*
X134804Y105106D01*
X134784Y105102D01*
X134745Y105078D01*
X134584Y105000D01*
X134501Y104923D01*
X134458Y104895D01*
X130817Y101254D01*
X130804Y101237D01*
X130788Y101224D01*
X130726Y101130D01*
X130659Y101040D01*
X130652Y101020D01*
X130641Y101003D01*
X130631Y100958D01*
X130572Y100789D01*
X130568Y100676D01*
X130557Y100626D01*
X130557Y98839D01*
X129383Y97665D01*
X129370Y97648D01*
X129354Y97635D01*
X129292Y97541D01*
X129225Y97451D01*
X129218Y97431D01*
X129207Y97414D01*
X129197Y97369D01*
X129138Y97200D01*
X129134Y97087D01*
X129123Y97037D01*
X129123Y97001D01*
X129126Y96980D01*
X129124Y96959D01*
X129146Y96849D01*
X129163Y96738D01*
X129172Y96719D01*
X129176Y96698D01*
X129200Y96660D01*
X129278Y96499D01*
X129355Y96416D01*
X129383Y96373D01*
X129653Y96102D01*
X129736Y96041D01*
X129814Y95975D01*
X129842Y95963D01*
X129867Y95945D01*
X129964Y95911D01*
X130058Y95871D01*
X130089Y95867D01*
X130118Y95857D01*
X130221Y95854D01*
X130323Y95843D01*
X130353Y95849D01*
X130384Y95848D01*
X130483Y95875D01*
X130584Y95895D01*
X130604Y95908D01*
X130640Y95918D01*
X130865Y96061D01*
X130889Y96090D01*
X130909Y96102D01*
X131260Y96453D01*
X131839Y96788D01*
X132485Y96961D01*
X134321Y96961D01*
X134321Y88281D01*
X134336Y88180D01*
X134344Y88077D01*
X134356Y88049D01*
X134360Y88018D01*
X134405Y87926D01*
X134443Y87831D01*
X134463Y87807D01*
X134476Y87779D01*
X134546Y87704D01*
X134611Y87624D01*
X134637Y87607D01*
X134658Y87585D01*
X134747Y87534D01*
X134832Y87477D01*
X134856Y87472D01*
X134888Y87453D01*
X135148Y87395D01*
X135186Y87398D01*
X135209Y87393D01*
X135543Y87393D01*
X135543Y87059D01*
X135558Y86957D01*
X135567Y86855D01*
X135578Y86827D01*
X135583Y86796D01*
X135627Y86704D01*
X135666Y86608D01*
X135685Y86585D01*
X135698Y86557D01*
X135769Y86482D01*
X135833Y86402D01*
X135859Y86385D01*
X135880Y86363D01*
X135969Y86312D01*
X136054Y86255D01*
X136078Y86249D01*
X136111Y86231D01*
X136370Y86173D01*
X136408Y86176D01*
X136431Y86171D01*
X141361Y86171D01*
X141361Y80585D01*
X141166Y79859D01*
X141157Y79774D01*
X141138Y79690D01*
X141142Y79642D01*
X141136Y79595D01*
X141153Y79510D01*
X141159Y79425D01*
X141177Y79381D01*
X141186Y79334D01*
X141227Y79258D01*
X141258Y79178D01*
X141289Y79141D01*
X141311Y79099D01*
X141372Y79039D01*
X141426Y78972D01*
X141466Y78946D01*
X141500Y78912D01*
X141576Y78872D01*
X141647Y78825D01*
X141682Y78817D01*
X141736Y78789D01*
X141997Y78741D01*
X142013Y78743D01*
X142024Y78741D01*
X179068Y78741D01*
X179089Y78744D01*
G37*
G36*
X83124Y54915D02*
X83124Y54915D01*
X83145Y54913D01*
X83255Y54935D01*
X83366Y54952D01*
X83385Y54961D01*
X83406Y54965D01*
X83444Y54989D01*
X83606Y55067D01*
X83688Y55144D01*
X83732Y55172D01*
X105403Y76843D01*
X105403Y76844D01*
X106185Y77625D01*
X106215Y77666D01*
X106253Y77702D01*
X106294Y77773D01*
X106342Y77839D01*
X106359Y77888D01*
X106385Y77932D01*
X106403Y78012D01*
X106430Y78090D01*
X106431Y78142D01*
X106443Y78192D01*
X106436Y78274D01*
X106439Y78356D01*
X106425Y78405D01*
X106421Y78457D01*
X106391Y78533D01*
X106369Y78612D01*
X106341Y78656D01*
X106322Y78704D01*
X106270Y78767D01*
X106226Y78836D01*
X106187Y78870D01*
X106154Y78910D01*
X106086Y78955D01*
X106024Y79008D01*
X105976Y79029D01*
X105933Y79057D01*
X105883Y79069D01*
X105779Y79113D01*
X105601Y79131D01*
X105557Y79141D01*
X102083Y79141D01*
X101041Y80183D01*
X101041Y81955D01*
X101026Y82057D01*
X101018Y82159D01*
X101006Y82187D01*
X101001Y82218D01*
X100957Y82310D01*
X100919Y82406D01*
X100899Y82429D01*
X100886Y82457D01*
X100816Y82532D01*
X100751Y82612D01*
X100725Y82629D01*
X100704Y82651D01*
X100615Y82702D01*
X100530Y82759D01*
X100506Y82765D01*
X100474Y82783D01*
X100214Y82841D01*
X100176Y82838D01*
X100153Y82843D01*
X96045Y82843D01*
X94273Y84615D01*
X94256Y84628D01*
X94243Y84644D01*
X94149Y84706D01*
X94059Y84773D01*
X94039Y84780D01*
X94022Y84791D01*
X93977Y84801D01*
X93808Y84860D01*
X93695Y84864D01*
X93645Y84875D01*
X84286Y84875D01*
X84235Y84868D01*
X84183Y84869D01*
X84104Y84848D01*
X84023Y84835D01*
X83976Y84813D01*
X83926Y84799D01*
X83857Y84755D01*
X83784Y84720D01*
X83746Y84684D01*
X83702Y84657D01*
X83649Y84594D01*
X83589Y84538D01*
X83564Y84493D01*
X83530Y84454D01*
X83498Y84379D01*
X83457Y84308D01*
X83446Y84257D01*
X83426Y84210D01*
X83417Y84128D01*
X83399Y84048D01*
X83404Y83997D01*
X83398Y83945D01*
X83414Y83865D01*
X83421Y83783D01*
X83440Y83735D01*
X83450Y83685D01*
X83478Y83641D01*
X83520Y83536D01*
X83559Y83489D01*
X83559Y77089D01*
X83574Y76987D01*
X83582Y76885D01*
X83594Y76857D01*
X83599Y76826D01*
X83643Y76734D01*
X83681Y76638D01*
X83701Y76615D01*
X83714Y76587D01*
X83784Y76512D01*
X83849Y76432D01*
X83875Y76415D01*
X83896Y76393D01*
X83985Y76342D01*
X84070Y76285D01*
X84094Y76279D01*
X84126Y76261D01*
X84386Y76203D01*
X84424Y76206D01*
X84447Y76201D01*
X87343Y76201D01*
X90171Y73373D01*
X90171Y69375D01*
X87343Y66547D01*
X84447Y66547D01*
X84345Y66532D01*
X84243Y66524D01*
X84215Y66512D01*
X84184Y66507D01*
X84092Y66463D01*
X83996Y66425D01*
X83973Y66405D01*
X83945Y66392D01*
X83870Y66322D01*
X83790Y66257D01*
X83773Y66231D01*
X83751Y66210D01*
X83700Y66121D01*
X83643Y66036D01*
X83637Y66012D01*
X83619Y65980D01*
X83561Y65720D01*
X83564Y65683D01*
X83561Y65670D01*
X83561Y65669D01*
X83559Y65659D01*
X83559Y59378D01*
X82517Y58336D01*
X79113Y58336D01*
X79011Y58321D01*
X78909Y58313D01*
X78881Y58301D01*
X78850Y58296D01*
X78758Y58252D01*
X78662Y58214D01*
X78639Y58194D01*
X78611Y58181D01*
X78536Y58111D01*
X78456Y58046D01*
X78439Y58020D01*
X78417Y57999D01*
X78366Y57910D01*
X78309Y57825D01*
X78303Y57801D01*
X78285Y57769D01*
X78227Y57509D01*
X78230Y57471D01*
X78225Y57448D01*
X78225Y55800D01*
X78240Y55698D01*
X78248Y55596D01*
X78260Y55568D01*
X78265Y55537D01*
X78309Y55445D01*
X78347Y55349D01*
X78367Y55326D01*
X78380Y55298D01*
X78450Y55223D01*
X78515Y55143D01*
X78541Y55126D01*
X78562Y55104D01*
X78651Y55053D01*
X78736Y54996D01*
X78760Y54990D01*
X78792Y54972D01*
X79052Y54914D01*
X79090Y54917D01*
X79113Y54912D01*
X83103Y54912D01*
X83124Y54915D01*
G37*
G36*
X176386Y107828D02*
X176386Y107828D01*
X176468Y107826D01*
X176517Y107839D01*
X176569Y107843D01*
X176645Y107874D01*
X176724Y107895D01*
X176768Y107923D01*
X176816Y107942D01*
X176879Y107994D01*
X176948Y108038D01*
X176982Y108077D01*
X177022Y108110D01*
X177067Y108178D01*
X177120Y108241D01*
X177141Y108288D01*
X177169Y108331D01*
X177181Y108381D01*
X177225Y108485D01*
X177243Y108663D01*
X177253Y108708D01*
X177253Y114126D01*
X177250Y114147D01*
X177252Y114168D01*
X177230Y114278D01*
X177213Y114389D01*
X177204Y114408D01*
X177200Y114428D01*
X177176Y114467D01*
X177098Y114628D01*
X177021Y114711D01*
X176993Y114754D01*
X176419Y115328D01*
X176337Y115389D01*
X176258Y115455D01*
X176230Y115467D01*
X176205Y115486D01*
X176108Y115519D01*
X176014Y115560D01*
X175984Y115563D01*
X175954Y115573D01*
X175852Y115576D01*
X175750Y115587D01*
X175719Y115581D01*
X175689Y115582D01*
X175590Y115555D01*
X175489Y115535D01*
X175469Y115522D01*
X175432Y115512D01*
X175208Y115370D01*
X175183Y115341D01*
X175163Y115328D01*
X175151Y115315D01*
X166733Y115315D01*
X160781Y121267D01*
X160781Y129685D01*
X164835Y133738D01*
X164865Y133779D01*
X164903Y133815D01*
X164944Y133886D01*
X164992Y133952D01*
X165009Y134001D01*
X165035Y134045D01*
X165053Y134125D01*
X165080Y134203D01*
X165081Y134255D01*
X165093Y134305D01*
X165086Y134387D01*
X165089Y134469D01*
X165075Y134518D01*
X165071Y134570D01*
X165040Y134646D01*
X165019Y134725D01*
X164991Y134769D01*
X164972Y134817D01*
X164920Y134880D01*
X164876Y134949D01*
X164837Y134983D01*
X164804Y135023D01*
X164736Y135068D01*
X164674Y135121D01*
X164626Y135142D01*
X164583Y135170D01*
X164533Y135182D01*
X164429Y135226D01*
X164251Y135244D01*
X164206Y135254D01*
X158249Y135254D01*
X158147Y135239D01*
X158045Y135231D01*
X158017Y135219D01*
X157986Y135214D01*
X157894Y135170D01*
X157798Y135132D01*
X157775Y135112D01*
X157747Y135099D01*
X157672Y135029D01*
X157592Y134964D01*
X157575Y134938D01*
X157553Y134917D01*
X157502Y134828D01*
X157445Y134743D01*
X157439Y134719D01*
X157421Y134687D01*
X157363Y134427D01*
X157366Y134389D01*
X157361Y134366D01*
X157361Y126197D01*
X149709Y126197D01*
X149608Y126182D01*
X149505Y126173D01*
X149477Y126162D01*
X149446Y126157D01*
X149354Y126113D01*
X149259Y126074D01*
X149235Y126055D01*
X149207Y126042D01*
X149132Y125972D01*
X149052Y125907D01*
X149035Y125881D01*
X149013Y125860D01*
X148962Y125771D01*
X148905Y125686D01*
X148900Y125662D01*
X148881Y125629D01*
X148823Y125370D01*
X148826Y125332D01*
X148821Y125309D01*
X148821Y123531D01*
X148836Y123430D01*
X148845Y123327D01*
X148856Y123299D01*
X148861Y123268D01*
X148905Y123176D01*
X148944Y123081D01*
X148963Y123057D01*
X148976Y123029D01*
X149046Y122954D01*
X149111Y122874D01*
X149137Y122857D01*
X149158Y122835D01*
X149247Y122784D01*
X149332Y122727D01*
X149356Y122721D01*
X149389Y122703D01*
X149648Y122645D01*
X149686Y122648D01*
X149709Y122643D01*
X157361Y122643D01*
X157361Y114085D01*
X157188Y113439D01*
X156988Y113093D01*
X156963Y113029D01*
X156929Y112970D01*
X156914Y112906D01*
X156891Y112846D01*
X156886Y112777D01*
X156871Y112710D01*
X156876Y112645D01*
X156871Y112581D01*
X156887Y112514D01*
X156892Y112445D01*
X156917Y112385D01*
X156931Y112322D01*
X156966Y112262D01*
X156991Y112198D01*
X157032Y112148D01*
X157065Y112092D01*
X157116Y112045D01*
X157159Y111992D01*
X157213Y111956D01*
X157261Y111912D01*
X157323Y111883D01*
X157380Y111845D01*
X157424Y111835D01*
X157501Y111798D01*
X157743Y111764D01*
X157757Y111761D01*
X172056Y111761D01*
X174251Y109566D01*
X175737Y108080D01*
X175778Y108049D01*
X175814Y108011D01*
X175885Y107971D01*
X175951Y107922D01*
X176000Y107905D01*
X176044Y107880D01*
X176124Y107862D01*
X176202Y107835D01*
X176254Y107833D01*
X176304Y107822D01*
X176386Y107828D01*
G37*
G36*
X189477Y29906D02*
X189477Y29906D01*
X189498Y29904D01*
X189608Y29926D01*
X189719Y29943D01*
X189738Y29952D01*
X189758Y29956D01*
X189797Y29980D01*
X189958Y30058D01*
X190041Y30135D01*
X190084Y30163D01*
X191993Y32072D01*
X192006Y32089D01*
X192022Y32102D01*
X192084Y32195D01*
X192151Y32286D01*
X192158Y32306D01*
X192169Y32323D01*
X192179Y32368D01*
X192238Y32537D01*
X192242Y32640D01*
X192251Y32682D01*
X192251Y32688D01*
X192253Y32700D01*
X192253Y37723D01*
X192238Y37825D01*
X192230Y37927D01*
X192218Y37955D01*
X192213Y37986D01*
X192169Y38078D01*
X192131Y38174D01*
X192111Y38197D01*
X192098Y38225D01*
X192028Y38300D01*
X191963Y38380D01*
X191937Y38397D01*
X191916Y38419D01*
X191827Y38470D01*
X191742Y38527D01*
X191718Y38533D01*
X191686Y38551D01*
X191426Y38609D01*
X191388Y38606D01*
X191365Y38611D01*
X188746Y38611D01*
X188708Y38606D01*
X188670Y38608D01*
X188619Y38592D01*
X188483Y38571D01*
X188351Y38508D01*
X188301Y38492D01*
X187576Y38074D01*
X186739Y37849D01*
X186444Y37849D01*
X186444Y47640D01*
X186429Y47741D01*
X186421Y47844D01*
X186409Y47872D01*
X186405Y47902D01*
X186360Y47995D01*
X186322Y48090D01*
X186302Y48114D01*
X186289Y48142D01*
X186219Y48217D01*
X186154Y48297D01*
X186128Y48314D01*
X186107Y48336D01*
X186019Y48387D01*
X185933Y48444D01*
X185910Y48449D01*
X185877Y48468D01*
X185617Y48526D01*
X185579Y48523D01*
X185556Y48528D01*
X185454Y48513D01*
X185352Y48504D01*
X185323Y48493D01*
X185293Y48488D01*
X185201Y48443D01*
X185105Y48405D01*
X185081Y48386D01*
X185054Y48372D01*
X184979Y48302D01*
X184899Y48238D01*
X184882Y48212D01*
X184859Y48191D01*
X184809Y48102D01*
X184751Y48016D01*
X184746Y47993D01*
X184727Y47960D01*
X184670Y47701D01*
X184673Y47663D01*
X184668Y47640D01*
X184668Y37849D01*
X184373Y37849D01*
X183536Y38074D01*
X182811Y38492D01*
X182775Y38506D01*
X182743Y38527D01*
X182692Y38539D01*
X182563Y38589D01*
X182418Y38600D01*
X182366Y38611D01*
X179757Y38611D01*
X179655Y38596D01*
X179553Y38588D01*
X179525Y38576D01*
X179494Y38571D01*
X179402Y38527D01*
X179306Y38489D01*
X179283Y38469D01*
X179255Y38456D01*
X179180Y38386D01*
X179100Y38321D01*
X179083Y38295D01*
X179061Y38274D01*
X179010Y38185D01*
X178953Y38100D01*
X178947Y38076D01*
X178929Y38044D01*
X178871Y37784D01*
X178874Y37746D01*
X178869Y37723D01*
X178869Y33712D01*
X178884Y33610D01*
X178892Y33508D01*
X178904Y33480D01*
X178909Y33449D01*
X178953Y33357D01*
X178991Y33261D01*
X179011Y33238D01*
X179024Y33210D01*
X179094Y33135D01*
X179159Y33055D01*
X179185Y33038D01*
X179206Y33016D01*
X179295Y32965D01*
X179380Y32908D01*
X179404Y32902D01*
X179436Y32884D01*
X179696Y32826D01*
X179734Y32829D01*
X179757Y32824D01*
X180097Y32824D01*
X181790Y31131D01*
X181790Y30791D01*
X181805Y30689D01*
X181813Y30587D01*
X181825Y30559D01*
X181830Y30528D01*
X181874Y30436D01*
X181912Y30340D01*
X181932Y30317D01*
X181945Y30289D01*
X182015Y30214D01*
X182080Y30134D01*
X182106Y30117D01*
X182127Y30095D01*
X182216Y30044D01*
X182301Y29987D01*
X182325Y29981D01*
X182357Y29963D01*
X182617Y29905D01*
X182655Y29908D01*
X182678Y29903D01*
X189456Y29903D01*
X189477Y29906D01*
G37*
%LPC*%
G36*
X94137Y17027D02*
X94137Y17027D01*
X94137Y27791D01*
X98695Y27791D01*
X99341Y27618D01*
X99920Y27283D01*
X100393Y26810D01*
X100728Y26231D01*
X100901Y25585D01*
X100901Y17027D01*
X94137Y17027D01*
G37*
%LPD*%
%LPC*%
G36*
X83819Y17027D02*
X83819Y17027D01*
X83819Y25585D01*
X83992Y26231D01*
X84327Y26810D01*
X84800Y27283D01*
X85379Y27618D01*
X86025Y27791D01*
X90583Y27791D01*
X90583Y17027D01*
X83819Y17027D01*
G37*
%LPD*%
%LPC*%
G36*
X94597Y111879D02*
X94597Y111879D01*
X94597Y122643D01*
X101361Y122643D01*
X101361Y114085D01*
X101188Y113439D01*
X100853Y112860D01*
X100380Y112387D01*
X99801Y112052D01*
X99155Y111879D01*
X94597Y111879D01*
G37*
%LPD*%
%LPC*%
G36*
X86485Y111879D02*
X86485Y111879D01*
X85839Y112052D01*
X85260Y112387D01*
X84787Y112860D01*
X84452Y113439D01*
X84279Y114085D01*
X84279Y122643D01*
X91043Y122643D01*
X91043Y111879D01*
X86485Y111879D01*
G37*
%LPD*%
%LPC*%
G36*
X137319Y89169D02*
X137319Y89169D01*
X137319Y96961D01*
X139155Y96961D01*
X139801Y96788D01*
X140380Y96453D01*
X140853Y95980D01*
X141188Y95401D01*
X141361Y94755D01*
X141361Y89169D01*
X137319Y89169D01*
G37*
%LPD*%
%LPC*%
G36*
X99819Y53499D02*
X99819Y53499D01*
X99819Y59085D01*
X99992Y59731D01*
X100327Y60310D01*
X100800Y60783D01*
X101379Y61118D01*
X102025Y61291D01*
X103861Y61291D01*
X103861Y53499D01*
X99819Y53499D01*
G37*
%LPD*%
%LPC*%
G36*
X102025Y42709D02*
X102025Y42709D01*
X101379Y42882D01*
X100800Y43217D01*
X100327Y43690D01*
X99992Y44269D01*
X99819Y44915D01*
X99819Y50501D01*
X103861Y50501D01*
X103861Y42709D01*
X102025Y42709D01*
G37*
%LPD*%
%LPC*%
G36*
X177343Y13137D02*
X177343Y13137D01*
X177343Y18346D01*
X179381Y18346D01*
X180309Y18097D01*
X181142Y17616D01*
X181822Y16936D01*
X182303Y16103D01*
X182552Y15175D01*
X182552Y13137D01*
X177343Y13137D01*
G37*
%LPD*%
%LPC*%
G36*
X200517Y123618D02*
X200517Y123618D01*
X200517Y128827D01*
X205726Y128827D01*
X205726Y126789D01*
X205477Y125861D01*
X204996Y125028D01*
X204316Y124348D01*
X203483Y123867D01*
X202555Y123618D01*
X200517Y123618D01*
G37*
%LPD*%
%LPC*%
G36*
X168580Y13137D02*
X168580Y13137D01*
X168580Y15175D01*
X168829Y16103D01*
X169310Y16936D01*
X169990Y17616D01*
X170823Y18097D01*
X171751Y18346D01*
X173789Y18346D01*
X173789Y13137D01*
X168580Y13137D01*
G37*
%LPD*%
%LPC*%
G36*
X194925Y123618D02*
X194925Y123618D01*
X193997Y123867D01*
X193164Y124348D01*
X192484Y125028D01*
X192003Y125861D01*
X191754Y126789D01*
X191754Y128827D01*
X196963Y128827D01*
X196963Y123618D01*
X194925Y123618D01*
G37*
%LPD*%
D10*
X178900Y14694D02*
X178900Y8026D01*
X172232Y8026D01*
X172232Y14694D01*
X178900Y14694D01*
X178900Y10138D02*
X172232Y10138D01*
X172232Y12250D02*
X178900Y12250D01*
X178900Y14362D02*
X172232Y14362D01*
X178900Y23266D02*
X178900Y29934D01*
X178900Y23266D02*
X172232Y23266D01*
X172232Y29934D01*
X178900Y29934D01*
X178900Y25378D02*
X172232Y25378D01*
X172232Y27490D02*
X178900Y27490D01*
X178900Y29602D02*
X172232Y29602D01*
X195406Y127270D02*
X195406Y133938D01*
X202074Y133938D01*
X202074Y127270D01*
X195406Y127270D01*
X195406Y129382D02*
X202074Y129382D01*
X202074Y131494D02*
X195406Y131494D01*
X195406Y133606D02*
X202074Y133606D01*
X195406Y118698D02*
X195406Y112030D01*
X195406Y118698D02*
X202074Y118698D01*
X202074Y112030D01*
X195406Y112030D01*
X195406Y114142D02*
X202074Y114142D01*
X202074Y116254D02*
X195406Y116254D01*
X195406Y118366D02*
X202074Y118366D01*
D11*
X105360Y52000D03*
X115360Y52000D03*
X125360Y52000D03*
X135360Y52000D03*
D12*
X148360Y15250D03*
X92360Y15250D03*
D11*
X135820Y87670D03*
X125820Y87670D03*
X115820Y87670D03*
X105820Y87670D03*
D12*
X92820Y124420D03*
X148820Y124420D03*
D13*
X243656Y12700D03*
D14*
X263976Y12700D03*
D15*
X75430Y63290D03*
X75430Y71418D03*
X75430Y79546D03*
D16*
X75430Y71418D02*
X75430Y63036D01*
X75430Y71418D02*
X75430Y80054D01*
D17*
X78287Y94452D02*
X81463Y94452D01*
X81463Y91276D01*
X78287Y91276D01*
X78287Y94452D01*
X78287Y94292D02*
X81463Y94292D01*
X72573Y94452D02*
X69397Y94452D01*
X72573Y94452D02*
X72573Y91276D01*
X69397Y91276D01*
X69397Y94452D01*
X69397Y94292D02*
X72573Y94292D01*
X78357Y51546D02*
X81533Y51546D01*
X81533Y48370D01*
X78357Y48370D01*
X78357Y51546D01*
X78357Y51386D02*
X81533Y51386D01*
X72643Y51546D02*
X69467Y51546D01*
X72643Y51546D02*
X72643Y48370D01*
X69467Y48370D01*
X69467Y51546D01*
X69467Y51386D02*
X72643Y51386D01*
D18*
X194806Y85140D02*
X194806Y98140D01*
X196306Y98140D01*
X196306Y85140D01*
X194806Y85140D01*
X194806Y86565D02*
X196306Y86565D01*
X196306Y87990D02*
X194806Y87990D01*
X194806Y89415D02*
X196306Y89415D01*
X196306Y90840D02*
X194806Y90840D01*
X194806Y92265D02*
X196306Y92265D01*
X196306Y93690D02*
X194806Y93690D01*
X194806Y95115D02*
X196306Y95115D01*
X196306Y96540D02*
X194806Y96540D01*
X194806Y97965D02*
X196306Y97965D01*
X189806Y98140D02*
X189806Y85140D01*
X189806Y98140D02*
X191306Y98140D01*
X191306Y85140D01*
X189806Y85140D01*
X189806Y86565D02*
X191306Y86565D01*
X191306Y87990D02*
X189806Y87990D01*
X189806Y89415D02*
X191306Y89415D01*
X191306Y90840D02*
X189806Y90840D01*
X189806Y92265D02*
X191306Y92265D01*
X191306Y93690D02*
X189806Y93690D01*
X189806Y95115D02*
X191306Y95115D01*
X191306Y96540D02*
X189806Y96540D01*
X189806Y97965D02*
X191306Y97965D01*
X184806Y98140D02*
X184806Y85140D01*
X184806Y98140D02*
X186306Y98140D01*
X186306Y85140D01*
X184806Y85140D01*
X184806Y86565D02*
X186306Y86565D01*
X186306Y87990D02*
X184806Y87990D01*
X184806Y89415D02*
X186306Y89415D01*
X186306Y90840D02*
X184806Y90840D01*
X184806Y92265D02*
X186306Y92265D01*
X186306Y93690D02*
X184806Y93690D01*
X184806Y95115D02*
X186306Y95115D01*
X186306Y96540D02*
X184806Y96540D01*
X184806Y97965D02*
X186306Y97965D01*
X179806Y98140D02*
X179806Y85140D01*
X179806Y98140D02*
X181306Y98140D01*
X181306Y85140D01*
X179806Y85140D01*
X179806Y86565D02*
X181306Y86565D01*
X181306Y87990D02*
X179806Y87990D01*
X179806Y89415D02*
X181306Y89415D01*
X181306Y90840D02*
X179806Y90840D01*
X179806Y92265D02*
X181306Y92265D01*
X181306Y93690D02*
X179806Y93690D01*
X179806Y95115D02*
X181306Y95115D01*
X181306Y96540D02*
X179806Y96540D01*
X179806Y97965D02*
X181306Y97965D01*
X174806Y98140D02*
X174806Y85140D01*
X174806Y98140D02*
X176306Y98140D01*
X176306Y85140D01*
X174806Y85140D01*
X174806Y86565D02*
X176306Y86565D01*
X176306Y87990D02*
X174806Y87990D01*
X174806Y89415D02*
X176306Y89415D01*
X176306Y90840D02*
X174806Y90840D01*
X174806Y92265D02*
X176306Y92265D01*
X176306Y93690D02*
X174806Y93690D01*
X174806Y95115D02*
X176306Y95115D01*
X176306Y96540D02*
X174806Y96540D01*
X174806Y97965D02*
X176306Y97965D01*
X174806Y54140D02*
X174806Y41140D01*
X174806Y54140D02*
X176306Y54140D01*
X176306Y41140D01*
X174806Y41140D01*
X174806Y42565D02*
X176306Y42565D01*
X176306Y43990D02*
X174806Y43990D01*
X174806Y45415D02*
X176306Y45415D01*
X176306Y46840D02*
X174806Y46840D01*
X174806Y48265D02*
X176306Y48265D01*
X176306Y49690D02*
X174806Y49690D01*
X174806Y51115D02*
X176306Y51115D01*
X176306Y52540D02*
X174806Y52540D01*
X174806Y53965D02*
X176306Y53965D01*
X179806Y54140D02*
X179806Y41140D01*
X179806Y54140D02*
X181306Y54140D01*
X181306Y41140D01*
X179806Y41140D01*
X179806Y42565D02*
X181306Y42565D01*
X181306Y43990D02*
X179806Y43990D01*
X179806Y45415D02*
X181306Y45415D01*
X181306Y46840D02*
X179806Y46840D01*
X179806Y48265D02*
X181306Y48265D01*
X181306Y49690D02*
X179806Y49690D01*
X179806Y51115D02*
X181306Y51115D01*
X181306Y52540D02*
X179806Y52540D01*
X179806Y53965D02*
X181306Y53965D01*
X184806Y54140D02*
X184806Y41140D01*
X184806Y54140D02*
X186306Y54140D01*
X186306Y41140D01*
X184806Y41140D01*
X184806Y42565D02*
X186306Y42565D01*
X186306Y43990D02*
X184806Y43990D01*
X184806Y45415D02*
X186306Y45415D01*
X186306Y46840D02*
X184806Y46840D01*
X184806Y48265D02*
X186306Y48265D01*
X186306Y49690D02*
X184806Y49690D01*
X184806Y51115D02*
X186306Y51115D01*
X186306Y52540D02*
X184806Y52540D01*
X184806Y53965D02*
X186306Y53965D01*
X189806Y54140D02*
X189806Y41140D01*
X189806Y54140D02*
X191306Y54140D01*
X191306Y41140D01*
X189806Y41140D01*
X189806Y42565D02*
X191306Y42565D01*
X191306Y43990D02*
X189806Y43990D01*
X189806Y45415D02*
X191306Y45415D01*
X191306Y46840D02*
X189806Y46840D01*
X189806Y48265D02*
X191306Y48265D01*
X191306Y49690D02*
X189806Y49690D01*
X189806Y51115D02*
X191306Y51115D01*
X191306Y52540D02*
X189806Y52540D01*
X189806Y53965D02*
X191306Y53965D01*
X194806Y54140D02*
X194806Y41140D01*
X194806Y54140D02*
X196306Y54140D01*
X196306Y41140D01*
X194806Y41140D01*
X194806Y42565D02*
X196306Y42565D01*
X196306Y43990D02*
X194806Y43990D01*
X194806Y45415D02*
X196306Y45415D01*
X196306Y46840D02*
X194806Y46840D01*
X194806Y48265D02*
X196306Y48265D01*
X196306Y49690D02*
X194806Y49690D01*
X194806Y51115D02*
X196306Y51115D01*
X196306Y52540D02*
X194806Y52540D01*
X194806Y53965D02*
X196306Y53965D01*
D19*
X170942Y125476D03*
D20*
X206756Y96012D03*
X207010Y84074D03*
X95250Y72644D03*
X144018Y101092D03*
X134620Y124460D03*
X107188Y123952D03*
X162814Y12446D03*
X188214Y122936D03*
D21*
X185556Y47640D02*
X185556Y34290D01*
X185420Y34290D01*
D20*
X185420Y34290D03*
D16*
X85069Y87670D02*
X79875Y92864D01*
X85069Y87670D02*
X98044Y87670D01*
X105820Y87670D01*
X190556Y91640D02*
X190556Y79812D01*
X182372Y71628D01*
X151384Y71628D01*
X137414Y71628D01*
X133096Y71628D01*
X112522Y71628D01*
X110236Y69342D01*
D20*
X110236Y69342D03*
X98044Y87670D03*
D16*
X135360Y69574D02*
X135360Y52000D01*
X135360Y69574D02*
X137414Y71628D01*
X135360Y69574D02*
X133306Y71628D01*
X133096Y71628D01*
X82470Y49958D02*
X79945Y49958D01*
X82470Y49958D02*
X108458Y75946D01*
X185556Y80908D02*
X185556Y91640D01*
X180594Y75946D02*
X117856Y75946D01*
X180594Y75946D02*
X185556Y80908D01*
X117856Y75946D02*
X113792Y75946D01*
X108458Y75946D01*
X115820Y77982D02*
X115820Y87670D01*
X115820Y77982D02*
X117856Y75946D01*
X115820Y77974D02*
X115820Y77982D01*
X115820Y77974D02*
X113792Y75946D01*
X125360Y61860D02*
X125360Y52000D01*
X125360Y61860D02*
X125476Y61976D01*
D20*
X125476Y61976D03*
X115820Y77974D03*
D16*
X75430Y79546D02*
X75430Y88419D01*
X70985Y92864D01*
X75430Y63290D02*
X75430Y54333D01*
X71055Y49958D01*
D21*
X180556Y91640D02*
X180556Y115862D01*
X170942Y125476D01*
X190556Y56698D02*
X190556Y47640D01*
X190556Y56698D02*
X193548Y59690D01*
X200660Y59690D01*
X243656Y16694D02*
X243656Y12700D01*
X243656Y16694D02*
X200660Y59690D01*
X180556Y56604D02*
X180556Y47640D01*
X180556Y56604D02*
X188468Y64516D01*
X212160Y64516D01*
X263976Y12700D01*
X195556Y91640D02*
X195556Y112180D01*
X198740Y115364D01*
X115360Y52000D02*
X115360Y46692D01*
X131064Y30988D01*
X135382Y30988D02*
X157226Y30988D01*
X161614Y26600D02*
X175566Y26600D01*
X161614Y26600D02*
X157226Y30988D01*
X175566Y26600D02*
X175566Y47630D01*
X175556Y47640D01*
X135382Y30988D02*
X131064Y30988D01*
D20*
X135382Y30988D03*
X125730Y100838D03*
D21*
X125820Y100748D01*
X125820Y87670D01*
X175556Y91640D02*
X175556Y103590D01*
X133350Y108458D02*
X125730Y100838D01*
X170688Y108458D02*
X175556Y103590D01*
X170688Y108458D02*
X133350Y108458D01*
X85300Y71418D02*
X75430Y71418D01*
X85300Y71418D02*
X85344Y71374D01*
D20*
X85344Y71374D03*
D21*
X195556Y47640D02*
X195556Y30964D01*
X191192Y26600D02*
X175566Y26600D01*
X191192Y26600D02*
X195556Y30964D01*
M02*
